<svg xmlns="http://www.w3.org/2000/svg" viewBox="0 0 300.96 281.75"><title>for-driver-1</title><path d="M20.42,10.81H308.57V94.06H20.42Z" transform="translate(-14.02 -6.01)" style="fill:#fff"/><path d="M307,6H22a8,8,0,0,0-8,8V279.76a8,8,0,0,0,8,8H307a8,8,0,0,0,8-8V14A8,8,0,0,0,307,6Z" transform="translate(-14.02 -6.01)" style="fill:#fff"/><path d="M45.24,106.86a.81.81,0,0,0-1.61,0V209.32a.81.81,0,0,0,1.61,0Z" transform="translate(-14.02 -6.01)" style="fill:#09acfe"/><path d="M44.44,111.67a5.61,5.61,0,1,0-5.61-5.6A5.6,5.6,0,0,0,44.44,111.67Z" transform="translate(-14.02 -6.01)" style="fill:#09acfe"/><path d="M44.44,108.47a2.41,2.41,0,1,0-2.41-2.4A2.41,2.41,0,0,0,44.44,108.47Z" transform="translate(-14.02 -6.01)" style="fill:#fff"/><path d="M44.44,175.7a5.6,5.6,0,1,0-5.61-5.6A5.6,5.6,0,0,0,44.44,175.7Z" transform="translate(-14.02 -6.01)" style="fill:#fff;stroke:#09acfe;stroke-width:2px"/><path d="M44.44,215.72a5.6,5.6,0,1,0-5.61-5.6A5.6,5.6,0,0,0,44.44,215.72Z" transform="translate(-14.02 -6.01)" style="fill:#09acfe"/><path d="M44.44,212.52a2.4,2.4,0,1,0-2.41-2.4A2.4,2.4,0,0,0,44.44,212.52Z" transform="translate(-14.02 -6.01)" style="fill:#fff"/><path d="M37.44,56V67.64h2.39V60h.1l3,7.55h1.63l3-7.52h.1v7.57h2.38V56H47l-3.21,7.82h-.14L40.48,56Zm17.1,11.81a2.67,2.67,0,0,0,2.55-1.38h.07v1.21h2.29V61.76c0-2.09-1.76-3-3.7-3-2.1,0-3.47,1-3.81,2.59l2.24.18a1.47,1.47,0,0,1,1.55-1c.83,0,1.3.41,1.3,1.13v0c0,.57-.6.64-2.11.79-1.73.16-3.28.74-3.28,2.69C51.64,66.93,52.87,67.81,54.54,67.81Zm.69-1.67c-.75,0-1.28-.35-1.28-1s.56-1,1.42-1.14a5.86,5.86,0,0,0,1.68-.39v.92A1.68,1.68,0,0,1,55.23,66.14Zm6.1,4.78h2.42V66.25h.08a2.59,2.59,0,0,0,2.48,1.54c2,0,3.54-1.58,3.54-4.5s-1.62-4.49-3.54-4.49a2.56,2.56,0,0,0-2.48,1.58h-.11V58.91H61.33Zm2.37-7.64c0-1.56.66-2.55,1.84-2.55s1.83,1,1.83,2.55-.64,2.58-1.83,2.58S63.7,64.84,63.7,63.28Zm7.76-4.37v8.73H83.33V58.91H81v6.81H78.55V58.91H76.24v6.81H73.78V58.91Zm13.74,12h2.43V66.25h.07a2.6,2.6,0,0,0,2.48,1.54c2,0,3.54-1.58,3.54-4.5S92.1,58.8,90.18,58.8a2.56,2.56,0,0,0-2.48,1.58h-.11V58.91H85.2Zm2.37-7.64c0-1.56.66-2.55,1.84-2.55s1.84,1,1.84,2.55-.65,2.58-1.84,2.58S87.57,64.84,87.57,63.28Zm9,7.62a3.14,3.14,0,0,0,3.25-2.31l3.4-9.67h-2.57l-1.82,6.42H98.7l-1.81-6.42H94.34l3.14,9-.15.37c-.34.79-.92.85-1.78.58L95,70.66A4.39,4.39,0,0,0,96.53,70.9ZM104,60.82h2.79v6.82h2.31V60.82h2.82V58.91H104Zm13.09,6.82h2.28V60.82h3v6.82h2.31V58.91h-7.63Zm13.51.18c2.65,0,4.3-1.82,4.3-4.51s-1.65-4.51-4.3-4.51-4.3,1.81-4.3,4.51S127.91,67.82,130.56,67.82Zm0-1.88c-1.22,0-1.84-1.12-1.84-2.64s.62-2.65,1.84-2.65,1.83,1.12,1.83,2.65S131.77,65.94,130.57,65.94Zm5.86,1.7h2.42V58.91h-2.42Zm-.51-9.92a1.18,1.18,0,0,0,1.18-1.16,1.19,1.19,0,0,0-2.38,0A1.19,1.19,0,0,0,135.92,57.72Zm3.48,0a1.18,1.18,0,0,0,1.18-1.16,1.19,1.19,0,0,0-2.38,0A1.19,1.19,0,0,0,139.4,57.72Zm.95,7.45c.06,1.71,1.6,2.65,3.7,2.65s3.69-1,3.69-2.6a2,2,0,0,0-1.94-2v-.09c1.08-.27,1.73-.9,1.73-1.83,0-1.52-1.32-2.46-3.46-2.46-2,0-3.47,1-3.49,2.56h2.33c0-.51.55-.87,1.27-.87s1.16.4,1.16,1-.42.92-1.17.92h-1.26V64h1.26c.76,0,1.26.43,1.26,1.07s-.6,1.06-1.39,1.06-1.32-.35-1.35-.93Zm8.19,5h2.36V67.64h5.34V70.2h2.31V65.72H157.2V58.91h-6.7l-.23,2.86c-.13,1.71-.3,3.47-1.06,3.95h-.67Zm3.08-4.48a8.88,8.88,0,0,0,.85-3.95l.09-1h2.35v4.94ZM160,67.64h2.42V64.55h.91l2.15,3.09h2.88l-3.12-4.4,3.08-4.33h-2.84l-2.37,3.39h-.69V58.91H160Zm11.69-3.19V58.91h-2.31v8.73h2.41l3.13-5.55v5.55h2.31V58.91H174.8Z" transform="translate(-14.02 -6.01)" style="fill:#242723"/><path d="M41.23,32.43l-.58-.56-.52.56.52.55Zm9.61.8a.8.8,0,0,0,0-1.6Zm-4.44-5a.82.82,0,0,0,0-1.14.8.8,0,0,0-1.13,0Zm-1.16,9.6a.8.8,0,0,0,1.16-1.1Zm-4-4.55h9.61v-1.6H41.23Zm.58-.25,4.59-4.8-1.16-1.11-4.59,4.8Zm-1.16,0,4.59,4.8,1.16-1.1-4.59-4.81Z" transform="translate(-14.02 -6.01)"/><path d="M63,36.43h1V32.78h4.34v3.65h1V28.28h-1v3.63H64V28.28H63Zm10,.14a1.91,1.91,0,0,0,1.81-1h0v.83h.94v-4a2,2,0,0,0-2.26-2.16,2.47,2.47,0,0,0-2.45,1.43L72,32a1.66,1.66,0,0,1,1.59-.93,1.14,1.14,0,0,1,1.29,1.25v0c0,.45-.46.41-1.58.55s-2.37.4-2.37,1.8A1.89,1.89,0,0,0,73,36.57Zm.14-.84c-.75,0-1.29-.34-1.29-1s.65-.94,1.39-1a4.94,4.94,0,0,0,1.62-.35v.86A1.57,1.57,0,0,1,73.14,35.73Zm4-.86c0,1,1,1.69,2.29,1.69s2.31-.72,2.31-1.84a1.32,1.32,0,0,0-1.15-1.43v-.06a1.3,1.3,0,0,0,1-1.29c0-1-.82-1.7-2.11-1.7s-2.18.7-2.22,1.68h1c0-.5.56-.86,1.27-.86s1.12.37,1.12.91-.35.89-1.1.89h-1v.85h1c.75,0,1.23.41,1.23,1s-.62,1-1.37,1-1.23-.29-1.28-.84Zm7.72,1.7a1.9,1.9,0,0,0,1.81-1h0v.83h.94v-4a2,2,0,0,0-2.26-2.16,2.47,2.47,0,0,0-2.45,1.43l.89.32a1.66,1.66,0,0,1,1.59-.93,1.14,1.14,0,0,1,1.29,1.25v0c0,.45-.46.41-1.57.55s-2.38.4-2.38,1.8A1.89,1.89,0,0,0,84.85,36.57Zm.14-.84c-.75,0-1.29-.34-1.29-1s.66-.94,1.39-1a4.88,4.88,0,0,0,1.62-.35v.86A1.57,1.57,0,0,1,85,35.73Zm3.72,2.45h.94V36.43h4.52v1.75h.94V35.55h-.94V30.32H90.29l-.21,2.42c-.15,1.71-.37,2.3-.86,2.81h-.51Zm1.58-2.63A6,6,0,0,0,91,32.74l.16-1.55h2.07v4.36Z" transform="translate(-14.02 -6.01)" style="fill:#232d42"/><path d="M260.55,87.65H68.45a3.21,3.21,0,0,0-3.2,3.21v25.61a3.2,3.2,0,0,0,3.2,3.2h192.1a3.2,3.2,0,0,0,3.2-3.2V90.86A3.21,3.21,0,0,0,260.55,87.65Z" transform="translate(-14.02 -6.01)" style="fill:#fff"/><path d="M261.35,118.07H67.65a.8.8,0,1,0,0,1.6h193.7a.8.8,0,0,0,0-1.6Z" transform="translate(-14.02 -6.01)" style="fill:#ececec"/><path d="M72.27,99.35H75.2v8.32h1.12V99.35h2.93v-1h-7Zm10.49,8.46a2.73,2.73,0,0,0,2.79-1.76l-1-.29a1.71,1.71,0,0,1-1.75,1.09,2.11,2.11,0,0,1-2.17-2.31h5.07v-.46c0-2.6-1.55-3.49-3-3.49-1.89,0-3.14,1.49-3.14,3.64S80.75,107.81,82.76,107.81Zm-2.17-4.2a2.08,2.08,0,0,1,2.06-2.06,1.9,1.9,0,0,1,1.92,2.06Zm6.7,6.68h1.07v-3.7h.09a2.17,2.17,0,0,0,2,1.22c1.75,0,3-1.4,3-3.62s-1.22-3.6-3-3.6a2.14,2.14,0,0,0-2,1.2h-.12v-1.11h-1Zm1-6.12c0-1.56.7-2.62,2-2.62s2,1.15,2,2.62-.69,2.68-2,2.68S88.34,105.76,88.34,104.17ZM98,107.81a2.73,2.73,0,0,0,2.79-1.76l-1-.29A1.72,1.72,0,0,1,98,106.85a2.12,2.12,0,0,1-2.18-2.31h5.07v-.46c0-2.6-1.54-3.49-3-3.49-1.89,0-3.14,1.49-3.14,3.64S96,107.81,98,107.81Zm-2.18-4.2a2.09,2.09,0,0,1,2.07-2.06,1.9,1.9,0,0,1,1.91,2.06Zm10.53,2.6-2.4-5.53h-1.42v7h1.07v-5.45l2.31,5.45h.87l2.31-5.35v5.35h1.08v-7h-1.38Zm5.78,1.46h1.07v-3h1l2.29,3h1.38L115,104.05l2.82-3.37h-1.39l-2.51,3h-.71v-3h-1.07Zm7.95-1.59v-5.4H119v7h1.26l3.34-5.41v5.41h1.08v-7h-1.24Z" transform="translate(-14.02 -6.01)" style="fill:#232d42"/><path d="M243.51,98.29a.81.81,0,0,0-1.14,1.14l4.24,4.23-4.24,4.24a.8.8,0,0,0,1.14,1.13l4.23-4.24L252,109a.79.79,0,0,0,1.13,0,.8.8,0,0,0,0-1.13l-4.24-4.24,4.24-4.23a.81.81,0,0,0,0-1.14.8.8,0,0,0-1.13,0l-4.24,4.24Z" transform="translate(-14.02 -6.01)"/><path d="M260.55,191.71H68.45a3.2,3.2,0,0,0-3.2,3.2v25.61a3.21,3.21,0,0,0,3.2,3.21h192.1a3.21,3.21,0,0,0,3.2-3.21V194.91A3.2,3.2,0,0,0,260.55,191.71Z" transform="translate(-14.02 -6.01)" style="fill:#fff"/><path d="M261.35,222.13H67.65a.8.8,0,1,0,0,1.6h193.7a.8.8,0,0,0,0-1.6Z" transform="translate(-14.02 -6.01)" style="fill:#ececec"/><path d="M72.87,202.41v3.11c0,2,1.16,2.82,3.09,2.82a8,8,0,0,0,2.58-.38v3.76h1.13v-9.31H78.54v4.53a9.13,9.13,0,0,1-2.58.38c-1.2,0-2-.42-2-1.8v-3.11Zm11,9.47a2.2,2.2,0,0,0,2.08-1.11h0v.95H87v-4.6a2.3,2.3,0,0,0-2.58-2.48,2.85,2.85,0,0,0-2.8,1.64l1,.37a1.88,1.88,0,0,1,1.82-1.06A1.3,1.3,0,0,1,86,207v0c0,.51-.53.47-1.8.63s-2.71.46-2.71,2.06A2.15,2.15,0,0,0,83.84,211.88Zm.17-1c-.86,0-1.48-.38-1.48-1.13s.75-1.07,1.58-1.18a5.6,5.6,0,0,0,1.86-.4v1A1.79,1.79,0,0,1,84,210.92Zm10.18-8.8a2.49,2.49,0,0,1-1.57.28h-.76c-2.13.05-3.18,1.67-3.18,4.78v.75c0,2.58,1.25,3.93,3.12,3.93s3.12-1.36,3.12-3.55S93.65,205,92,205a2.54,2.54,0,0,0-2.33,1.28H89.6c.15-1.8.82-2.77,2.28-2.82,1.29-.06,2.22,0,2.85-.64ZM91.8,210.9c-1.27,0-2-1-2-2.58s.79-2.4,2-2.4,2,.87,2,2.4S93.07,210.9,91.8,210.9Zm6.81,1a2.2,2.2,0,0,0,2.08-1.11h0v.95h1.07v-4.6a2.3,2.3,0,0,0-2.58-2.48,2.84,2.84,0,0,0-2.8,1.64l1,.37a1.88,1.88,0,0,1,1.82-1.06,1.3,1.3,0,0,1,1.47,1.42v0c0,.51-.53.47-1.8.63s-2.71.46-2.71,2.06A2.15,2.15,0,0,0,98.61,211.88Zm.17-1c-.86,0-1.48-.38-1.48-1.13s.75-1.07,1.59-1.18a5.59,5.59,0,0,0,1.85-.4v1A1.79,1.79,0,0,1,98.78,210.92Zm6.07-6.18h-1.08v7h1.08v-3h3.34v3h1.08v-7h-1.08v3h-3.34Zm7.45,5.4v-5.4h-1.07v7h1.25l3.35-5.4v5.4h1.07v-7h-1.23Z" transform="translate(-14.02 -6.01)" style="fill:#232d42"/><path d="M243.51,202.35a.81.81,0,0,0-1.14,0,.8.8,0,0,0,0,1.13l4.24,4.24L242.37,212a.8.8,0,0,0,0,1.13.81.81,0,0,0,1.14,0l4.23-4.24,4.24,4.24a.8.8,0,1,0,1.13-1.13l-4.24-4.24,4.24-4.24a.8.8,0,1,0-1.13-1.13l-4.24,4.24Z" transform="translate(-14.02 -6.01)"/><path d="M260.55,151.69H68.45a3.2,3.2,0,0,0-3.2,3.2V180.5a3.21,3.21,0,0,0,3.2,3.21h192.1a3.21,3.21,0,0,0,3.2-3.21V154.89A3.2,3.2,0,0,0,260.55,151.69Z" transform="translate(-14.02 -6.01)" style="fill:#fff"/><path d="M79.75,162.39h-7v9.31h1.12v-8.31h4.7v8.31h1.13Zm2.12,11.93H83v-3.69H83a2.16,2.16,0,0,0,2,1.22c1.75,0,3-1.4,3-3.62s-1.22-3.61-3-3.61a2.13,2.13,0,0,0-2,1.2h-.13v-1.11h-1Zm1.06-6.11c0-1.57.69-2.62,2-2.62s2,1.14,2,2.62-.69,2.67-2,2.67S82.93,169.79,82.93,168.21Zm9.59,3.64c1.89,0,3.16-1.44,3.16-3.61s-1.27-3.62-3.16-3.62-3.17,1.44-3.17,3.62S90.62,171.85,92.52,171.85Zm0-1c-1.44,0-2.1-1.24-2.1-2.64s.66-2.65,2.1-2.65,2.09,1.25,2.09,2.65S94,170.88,92.52,170.88Zm8.62-.64-2.4-5.53H97.32v7h1.07v-5.44l2.31,5.44h.88l2.31-5.34v5.34H105v-7h-1.38Zm5.79,1.46H108v-7h-1.07Zm.54-8.15a.75.75,0,0,0,.76-.73.76.76,0,0,0-1.52,0A.75.75,0,0,0,107.47,163.55Zm2.06,8.15h1.29l2.38-3h.55v3h1.07v-3h.55l2.36,3H119l-2.82-3.55,2.79-3.44h-1.28l-2.32,3h-.57v-3h-1.07v3h-.58l-2.33-3h-1.28l2.8,3.44Zm12.1-7h-1.07v7h1.07v-3H125v3h1.07v-7H125v3h-3.35Zm7.45,5.41v-5.41H128v7h1.26l3.34-5.4v5.4h1.08v-7h-1.24Zm7.65,0v-5.41h-1.08v7h1.26l3.35-5.4v5.4h1.07v-7h-1.24Zm2.65-7.73a.82.82,0,0,1-.89.89.8.8,0,0,1-.87-.89h-1a1.89,1.89,0,0,0,3.76,0Zm7.52,9.31H148v-6h3.35v6h1.07v-7H146.9Zm7.89,2.6a2.1,2.1,0,0,0,2.06-1.58l3-8-1.17,0-1.93,5.57h-.07l-1.93-5.57h-1.17l2.59,7-.2.54c-.39,1.05-.88,1.15-1.66.95l-.27.94A2,2,0,0,0,154.79,174.3Zm7.52-9.59h-1.07v7h1.07v-3h3.35v3h1.07v-7h-1.07v3h-3.35Zm6.39,7h1.07v-2.95h1L173,171.7h1.39l-2.86-3.62,2.82-3.37H173l-2.51,3h-.71v-3H168.7Zm6.47-6h2.31v6h1.08v-6h2.29v-1h-5.68Z" transform="translate(-14.02 -6.01)" style="fill:#232d42"/><path d="M248.54,164.5a.8.8,0,0,0-1.6,0v2.4h-2.4a.8.8,0,0,0,0,1.6h2.4v2.4a.8.8,0,0,0,1.6,0v-2.4h2.4a.8.8,0,0,0,0-1.6h-2.4Z" transform="translate(-14.02 -6.01)"/><path d="M252.54,160.49h-9.6a2.4,2.4,0,0,0-2.4,2.41v9.6a2.39,2.39,0,0,0,2.4,2.4h9.6a2.4,2.4,0,0,0,2.41-2.4v-9.6A2.41,2.41,0,0,0,252.54,160.49Z" transform="translate(-14.02 -6.01)" style="fill:none;stroke:#000"/><path d="M86.05,131.41a1.53,1.53,0,0,0-1.59-1.47H71.65a1.54,1.54,0,0,0-1.6,1.47v8.81a1.54,1.54,0,0,0,1.6,1.46H82.86l3.2,2.94Zm-4,5.14H78.85v2.93h-1.6v-2.93h-3.2v-1.47h3.2v-2.93h1.6v2.93h3.21Z" transform="translate(-14.02 -6.01)" style="fill:#333"/><path d="M93.51,141.38h.8v-1.7h4.93v1.68h.8v-2.43h-.8V132.7H95.09l-.15,2.94c-.1,2-.52,2.87-1,3.29h-.45ZM95,138.93a7.12,7.12,0,0,0,.77-3.29l.11-2.19h2.58v5.48Zm8.37.86a2.73,2.73,0,1,0-2.38-2.7A2.41,2.41,0,0,0,103.34,139.79Zm0-.72c-1.08,0-1.57-.93-1.57-2s.49-2,1.57-2,1.57.94,1.57,2S104.42,139.07,103.34,139.07Zm3,2.11h.81v-1.5h3.87v1.5h.81v-2.25h-.81v-4.49h-3.33l-.17,2.08c-.13,1.46-.32,2-.74,2.41h-.44Zm1.35-2.25a5.18,5.18,0,0,0,.62-2.41l.13-1.33h1.78v3.74Zm6.75.87A1.64,1.64,0,0,0,116,139h0v.71h.81v-3.45a1.72,1.72,0,0,0-1.94-1.85,2.13,2.13,0,0,0-2.1,1.22l.76.28a1.41,1.41,0,0,1,1.37-.79,1,1,0,0,1,1.1,1.06v0c0,.39-.39.35-1.35.47s-2,.34-2,1.55A1.61,1.61,0,0,0,114.48,139.8Zm.12-.72c-.64,0-1.11-.28-1.11-.84s.56-.81,1.19-.89a4.16,4.16,0,0,0,1.39-.3v.74A1.34,1.34,0,0,1,114.6,139.08Zm3-3.89h1.73v4.49h.8v-4.49h1.72v-.75h-4.25Zm6.23,3.31v-4.06h-.8v5.24H124l2.51-4.05v4.05h.8v-5.24h-.93Zm7.63,1.18h.8v-2.21H133l1.72,2.21h1L133.64,137l2.12-2.53h-1l-1.88,2.28h-.54v-2.28h-.8Zm7.07.11a2.73,2.73,0,1,0-2.37-2.7A2.41,2.41,0,0,0,138.57,139.79Zm0-.72c-1.08,0-1.57-.93-1.57-2s.49-2,1.57-2,1.57.94,1.57,2S139.65,139.07,138.57,139.07Zm6.47-.48-1.8-4.15h-1.07v5.24H143V135.6l1.73,4.08h.66l1.73-4v4h.8v-5.24h-1Zm6.53,1.2a2,2,0,0,0,2.09-1.32l-.78-.22a1.28,1.28,0,0,1-1.31.82,1.59,1.59,0,0,1-1.63-1.73h3.8V137c0-2-1.16-2.61-2.25-2.61a2.72,2.72,0,0,0,.08,5.41Zm-1.63-3.15a1.56,1.56,0,0,1,1.55-1.54,1.42,1.42,0,0,1,1.43,1.54Zm5.83-2.2H155v5.24h.8v-2.23h2.51v2.23h.81v-5.24h-.81v2.26h-2.51Zm4.07.75h1.74v4.49h.8v-4.49h1.72v-.75h-4.26Zm6.7,4.61a1.64,1.64,0,0,0,1.56-.83h0v.71H169v-3.45a1.72,1.72,0,0,0-1.94-1.85,2.13,2.13,0,0,0-2.1,1.22l.76.28a1.41,1.41,0,0,1,1.37-.79,1,1,0,0,1,1.1,1.06v0c0,.39-.39.35-1.35.47s-2,.34-2,1.55A1.61,1.61,0,0,0,166.54,139.8Zm.13-.72c-.64,0-1.11-.28-1.11-.84s.56-.81,1.19-.89a4.16,4.16,0,0,0,1.39-.3v.74A1.34,1.34,0,0,1,166.67,139.08Zm3.75,2.57h.8v-2.77h.07a1.64,1.64,0,0,0,1.53.91c1.31,0,2.22-1,2.22-2.71s-.91-2.7-2.24-2.7a1.59,1.59,0,0,0-1.51.89h-.1v-.83h-.77Zm.79-4.59c0-1.17.52-2,1.5-2s1.53.86,1.53,2-.52,2-1.53,2S171.21,138.25,171.21,137.06Z" transform="translate(-14.02 -6.01)" style="fill:#70757a"/><path d="M86.05,235.47A1.53,1.53,0,0,0,84.46,234H71.65a1.54,1.54,0,0,0-1.6,1.47v8.8a1.54,1.54,0,0,0,1.6,1.47H82.86l3.2,2.93Zm-4,5.13H78.85v2.94h-1.6V240.6h-3.2v-1.47h3.2V236.2h1.6v2.93h3.21Z" transform="translate(-14.02 -6.01)" style="fill:#333"/><path d="M93.51,245.43h.8v-1.69h4.93v1.68h.8V243h-.8v-6.24H95.09l-.15,2.95c-.1,2-.52,2.86-1,3.29h-.45ZM95,243a7.12,7.12,0,0,0,.77-3.29l.11-2.2h2.58V243Zm8.37.86a2.73,2.73,0,1,0-2.38-2.7A2.41,2.41,0,0,0,103.34,243.85Zm0-.73c-1.08,0-1.57-.92-1.57-2s.49-2,1.57-2,1.57.94,1.57,2S104.42,243.12,103.34,243.12Zm3,2.12h.81v-1.5h3.87v1.5h.81V243h-.81V238.5h-3.33l-.17,2.07c-.13,1.47-.32,2-.74,2.42h-.44Zm1.35-2.25a5.23,5.23,0,0,0,.62-2.42l.13-1.32h1.78V243Zm6.75.87A1.64,1.64,0,0,0,116,243h0v.71h.81v-3.45a1.72,1.72,0,0,0-1.94-1.86,2.12,2.12,0,0,0-2.1,1.23l.76.27a1.43,1.43,0,0,1,1.37-.79,1,1,0,0,1,1.1,1.06v0c0,.39-.39.36-1.35.48s-2,.34-2,1.54A1.62,1.62,0,0,0,114.48,243.86Zm.12-.72c-.64,0-1.11-.29-1.11-.85s.56-.8,1.19-.89a3.93,3.93,0,0,0,1.39-.3v.74A1.34,1.34,0,0,1,114.6,243.14Zm3-3.89h1.73v4.49h.8v-4.49h1.72v-.75h-4.25Zm6.23,3.3V238.5h-.8v5.24H124l2.51-4.06v4.06h.8V238.5h-.93Zm7.63,1.19h.8v-2.21H133l1.72,2.21h1L133.64,241l2.12-2.52h-1l-1.88,2.28h-.54V238.5h-.8Zm7.07.11a2.73,2.73,0,1,0-2.37-2.7A2.41,2.41,0,0,0,138.57,243.85Zm0-.73c-1.08,0-1.57-.92-1.57-2s.49-2,1.57-2,1.57.94,1.57,2S139.65,243.12,138.57,243.12Zm6.47-.47-1.8-4.15h-1.07v5.24H143v-4.09l1.73,4.09h.66l1.73-4v4h.8V238.5h-1Zm6.53,1.2a2,2,0,0,0,2.09-1.33l-.78-.22a1.28,1.28,0,0,1-1.31.82,1.59,1.59,0,0,1-1.63-1.73h3.8v-.34c0-2-1.16-2.62-2.25-2.62a2.43,2.43,0,0,0-2.36,2.73A2.41,2.41,0,0,0,151.57,243.85Zm-1.63-3.15a1.56,1.56,0,0,1,1.55-1.55,1.43,1.43,0,0,1,1.43,1.55Zm5.83-2.2H155v5.24h.8V241.5h2.51v2.24h.81V238.5h-.81v2.25h-2.51Zm4.07.75h1.74v4.49h.8v-4.49h1.72v-.75h-4.26Zm6.7,4.61a1.64,1.64,0,0,0,1.56-.83h0v.71H169v-3.45a1.72,1.72,0,0,0-1.94-1.86,2.12,2.12,0,0,0-2.1,1.23l.76.27a1.43,1.43,0,0,1,1.37-.79,1,1,0,0,1,1.1,1.06v0c0,.39-.39.36-1.35.48s-2,.34-2,1.54A1.62,1.62,0,0,0,166.54,243.86Zm.13-.72c-.64,0-1.11-.29-1.11-.85s.56-.8,1.19-.89a3.93,3.93,0,0,0,1.39-.3v.74A1.34,1.34,0,0,1,166.67,243.14Zm3.75,2.56h.8v-2.77h.07a1.62,1.62,0,0,0,1.53.92c1.31,0,2.22-1,2.22-2.72s-.91-2.7-2.24-2.7a1.6,1.6,0,0,0-1.51.9h-.1v-.83h-.77Zm.79-4.58c0-1.18.52-2,1.5-2s1.53.86,1.53,2-.52,2-1.53,2S171.21,242.3,171.21,241.12Z" transform="translate(-14.02 -6.01)" style="fill:#70757a"/></svg>