<svg xmlns="http://www.w3.org/2000/svg" viewBox="0 0 211.58 605.76"><path d="M94.67,168.73,97,187.64s16.1-33.87,26.67-46.95,33.12-44,33.12-44a85.72,85.72,0,0,0,2.07-9.15C148.28,93,132.57,99.19,128.39,99.35c-2,.08-4.06-1.12-5.93-2.79a26.82,26.82,0,0,1-3-3.2l-10.93,24.17Z" transform="translate(0 0)" style="fill:#fff"/><path d="M0,177.15c.32,8.36,13.72,14.83,22.76,18.26L25,176.89C16.25,173.35-.36,167.82,0,177.15Z" transform="translate(0 0)" style="fill:#ee8e9e"/><path d="M171.77,213.24a52.63,52.63,0,0,0-4,11.17c3.86-3.32,6.35-6.24,6.28-8.1a35.8,35.8,0,0,0-1-5.75C172.66,211.45,172.2,212.34,171.77,213.24Z" transform="translate(0 0)" style="fill:none"/><path d="M124.21,318c-48.46,16.12-56.91,2.2-57-1s6.87-27.18,5.22-28.7-23,19.89-29.42,17a4.58,4.58,0,0,1-2.34-2.55c-4.58,12.54-10.45,30-13.45,44.33-5.35,25.54-13.48,60.68-3,85.61s40.22,98.18,40.53,106.08c.25,6.34-1.53,12.74,1,14.91-4.58,10-13.9,30.31-15,31.55-1.52,1.64-12,17.88-4.07,17.57s26.57-8.95,40.31-22.14,31.84-36.07,30.2-37.59c-.83-.77-4.1-2.24-7.15-3.52a2.38,2.38,0,0,0,.64-1c1.4-4.81-11.74-17-11.74-17L66.42,420l33.84-66.22,24.41,98.79,4.78,123.3s.82-.25,2.17-.62c-.59,5-1.6,11.38-3.2,14.91-2.91,6.44-2.54,15.93,5.36,15.62s28.33-4.26,28.33-4.26,1.22-9.55-.43-11.07c-1.14-1.06-4.87-9.67-6-16.46a3.26,3.26,0,0,1,.69.84s10.51-14.66,11.85-21-5-128-5-128,16-102.81,9.3-130.88a6.63,6.63,0,0,1-1.68.77C158.31,299.25,172.66,301.86,124.21,318Z" transform="translate(0 0)" style="fill:#2f2e41"/><path d="M196.56,122.66c-4.37-12.39-9.6-24.53-13.15-33.36-8.75-21.8-29.26-21-25.35-15.72h0c2,2.73,1.64,8.72.77,13.92a85.72,85.72,0,0,1-2.07,9.15s-22.54,31-33.12,44S97,187.64,97,187.64l-2.32-18.91,13.85-51.2,10.93-24.17.75-1.65a34.63,34.63,0,0,1-16.4-4.21c-6,4-10.19,13.2-10.19,13.2L83.52,166.39,60,173.24l-34.77,1.35-.28,2.3-2.19,18.52-1.11,9.4,51.51,3.71c-6.57,11.56-16.93,30.7-16.72,36.1.31,7.91-14.21,41.72-14.21,41.72s-3.9,11-1.61,16.41A4.58,4.58,0,0,0,43,305.3c6.45,2.92,27.78-18.49,29.42-17s-5.34,25.54-5.22,28.7,8.58,17.08,57,1,34.1-18.74,46.62-22.39a6.63,6.63,0,0,0,1.68-.77c3.55-2.35,3.72-8.26,2.48-16-.4-2.58-1-5.38-1.6-8.32,11.76-11.06,24.44-24,30.2-28.41,10.76-8.33,6.49-36.66,7.94-81.05C212.35,135.59,203.92,126.12,196.56,122.66ZM167.81,224.41a52.63,52.63,0,0,1,4-11.17c.43-.9.89-1.79,1.36-2.68a35.8,35.8,0,0,1,1,5.75C174.16,218.17,171.67,221.09,167.81,224.41Z" transform="translate(0 0)" style="fill:#4c4981"/><path d="M158.06,73.58c-1.48-2.06-3-4.2-4.42-6.29a35.22,35.22,0,0,0,1.48-7.74c-1.9,3-4.64,5.32-8,4.84s-5.61-3.76-7.82-6.43-5.89-5.12-8.92-3.44c-1.87,1-2.7,3.28-4.32,4.66a8.61,8.61,0,0,1-6.44,1.57,17.26,17.26,0,0,1-15.15-16.42c0-2.33.07-5.32-2.08-6.23a5.1,5.1,0,0,0-2.6-.14,51.15,51.15,0,0,1-9,.61A34.79,34.79,0,0,0,120.2,91.71h.21c.67,0,1.33,0,2-.06,0,1.64,0,3.3.06,4.9,1.87,1.67,3.93,2.87,5.93,2.79,4.18-.16,19.89-6.31,30.46-11.84.87-5.2,1.26-11.19-.77-13.92Z" transform="translate(0 0)" style="fill:#ee8e9e"/><path d="M99.83,38a5.1,5.1,0,0,1,2.6.14c2.15.91,2,3.9,2.08,6.23a17.26,17.26,0,0,0,15.15,16.42,8.61,8.61,0,0,0,6.44-1.57c1.62-1.38,2.45-3.62,4.32-4.66,3-1.68,6.7.78,8.92,3.44s4.39,5.95,7.82,6.43,6.06-1.88,8-4.84a20.07,20.07,0,0,0,1.73-3.39,48,48,0,0,0-.95-37.31C146.42-1.81,114.06-5.07,97,7A6.78,6.78,0,0,1,94.05,8.5a2.12,2.12,0,0,1-1.55-.34,2.1,2.1,0,0,1-.87-1.34c-.79,1.65-1.69,3.41-3.32,4.26s-4.14.14-4.37-1.68a7.7,7.7,0,0,1-1.77,3.73c-1,1-2.84,1.2-3.72.12.72,3.89.28,7.89.5,11.84s1.28,8.14,4.26,10.73a12.34,12.34,0,0,0,7.63,2.75A51.15,51.15,0,0,0,99.83,38Z" transform="translate(0 0)" style="fill:#2f2e41"/><path d="M100,283.19c3.87,5.1,13.38,4.9,21.83,3.47-1.66-4.07-2.92-11.65-3.7-17.47C108.78,271.53,94.82,276.3,100,283.19Z" transform="translate(0 0)" style="fill:#ee8e9e"/></svg>