<svg xmlns="http://www.w3.org/2000/svg" xmlns:xlink="http://www.w3.org/1999/xlink" viewBox="0 0 207 62"><defs><clipPath id="a"><rect width="207" height="62" style="fill:none"/></clipPath></defs><title>app-store</title><g style="clip-path:url(#a)"><path d="M199.63,62H7.25A7.31,7.31,0,0,1,0,54.66V7.33A7.3,7.3,0,0,1,7.25,0H199.63A7.4,7.4,0,0,1,207,7.33V54.66A7.41,7.41,0,0,1,199.63,62Z" style="fill:#a6a6a6"/><path d="M205.52,54.67a5.9,5.9,0,0,1-5.88,5.93H7.25a5.91,5.91,0,0,1-5.89-5.93V7.32A5.92,5.92,0,0,1,7.25,1.38H199.63a5.91,5.91,0,0,1,5.88,5.94Z"/><path d="M46.2,30.67a9,9,0,0,1,4.23-7.54,9,9,0,0,0-7.17-3.92c-3-.32-5.94,1.82-7.48,1.82s-3.93-1.79-6.48-1.74a9.54,9.54,0,0,0-8,5c-3.47,6.08-.88,15,2.45,19.93,1.67,2.4,3.61,5.09,6.16,5s3.42-1.61,6.43-1.61,3.85,1.61,6.45,1.55,4.36-2.42,6-4.85a19.83,19.83,0,0,0,2.73-5.62A8.67,8.67,0,0,1,46.2,30.67Z" style="fill:#fff"/><path d="M41.29,16a8.85,8.85,0,0,0,2-6.33,8.83,8.83,0,0,0-5.76,3,8.42,8.42,0,0,0-2.05,6.1A7.31,7.31,0,0,0,41.29,16Z" style="fill:#fff"/><path d="M82.26,48.83H78.77l-1.9-6.06H70.24l-1.82,6.06H65L71.6,28.2h4.05Zm-6-8.6-1.72-5.39c-.19-.55-.53-1.84-1-3.88h-.06c-.21.88-.53,2.17-1,3.88l-1.7,5.39Z" style="fill:#fff"/><path d="M99.15,41.21a8.53,8.53,0,0,1-2,6,5.93,5.93,0,0,1-4.51,2,4.51,4.51,0,0,1-4.18-2.11h-.06v7.83H85.1v-16q0-2.39-.12-4.89h2.87L88,36.31h.06a5.78,5.78,0,0,1,9.31-.58A8.28,8.28,0,0,1,99.15,41.21Zm-3.33.12a6.15,6.15,0,0,0-1-3.58A3.35,3.35,0,0,0,92,36.28a3.41,3.41,0,0,0-2.19.81,3.77,3.77,0,0,0-1.29,2.13,4.47,4.47,0,0,0-.15,1v2.48a4,4,0,0,0,1,2.74,3.24,3.24,0,0,0,2.55,1.12,3.35,3.35,0,0,0,2.88-1.44A6.45,6.45,0,0,0,95.82,41.33Z" style="fill:#fff"/><path d="M116.07,41.21a8.49,8.49,0,0,1-2,6,5.91,5.91,0,0,1-4.51,2,4.49,4.49,0,0,1-4.17-2.11h-.07v7.83H102v-16c0-1.59,0-3.22-.13-4.89h2.88l.18,2.35H105a5.78,5.78,0,0,1,9.31-.58A8.28,8.28,0,0,1,116.07,41.21Zm-3.33.12a6.15,6.15,0,0,0-1-3.58,3.33,3.33,0,0,0-2.84-1.47,3.44,3.44,0,0,0-2.2.81,3.75,3.75,0,0,0-1.28,2.13,4.58,4.58,0,0,0-.16,1v2.48a4,4,0,0,0,1,2.74,3.25,3.25,0,0,0,2.56,1.12,3.32,3.32,0,0,0,2.87-1.44A6.38,6.38,0,0,0,112.74,41.33Z" style="fill:#fff"/><path d="M135,43.05a5.52,5.52,0,0,1-1.81,4.28,8,8,0,0,1-5.56,1.81,9.66,9.66,0,0,1-5.29-1.29l.76-2.75a9,9,0,0,0,4.73,1.31,4.45,4.45,0,0,0,2.88-.84,2.77,2.77,0,0,0,1-2.25,2.93,2.93,0,0,0-.84-2.12,8,8,0,0,0-2.82-1.59q-5.36-2-5.36-5.92a5.26,5.26,0,0,1,1.88-4.16,7.32,7.32,0,0,1,5-1.63,9.86,9.86,0,0,1,4.63,1l-.82,2.7a7.89,7.89,0,0,0-3.91-.95,3.91,3.91,0,0,0-2.69.85,2.49,2.49,0,0,0-.82,1.87,2.55,2.55,0,0,0,.94,2,10.53,10.53,0,0,0,3,1.59,10,10,0,0,1,3.87,2.51A5.27,5.27,0,0,1,135,43.05Z" style="fill:#fff"/><path d="M145.8,36.44h-3.6v7.22c0,1.84.63,2.75,1.91,2.75a5.92,5.92,0,0,0,1.45-.15l.09,2.51a7.41,7.41,0,0,1-2.54.37,3.9,3.9,0,0,1-3-1.2,5.87,5.87,0,0,1-1.09-4v-7.5h-2.15V34H139V31.23l3.21-1V34h3.6Z" style="fill:#fff"/><path d="M162.06,41.27a8.2,8.2,0,0,1-1.94,5.63,6.88,6.88,0,0,1-5.39,2.27A6.57,6.57,0,0,1,149.57,47a8,8,0,0,1-1.92-5.48,8.14,8.14,0,0,1,2-5.66A6.82,6.82,0,0,1,155,33.65a6.69,6.69,0,0,1,5.21,2.18A7.87,7.87,0,0,1,162.06,41.27Zm-3.39.11a6.73,6.73,0,0,0-.88-3.53,3.22,3.22,0,0,0-2.93-1.78,3.26,3.26,0,0,0-3,1.78,6.85,6.85,0,0,0-.88,3.59,6.73,6.73,0,0,0,.88,3.53,3.32,3.32,0,0,0,5.9,0A6.8,6.8,0,0,0,158.67,41.38Z" style="fill:#fff"/><path d="M172.69,36.86a5.75,5.75,0,0,0-1-.09A3.09,3.09,0,0,0,169,38.09a5,5,0,0,0-.82,2.94v7.8H164.9l0-10.19c0-1.71,0-3.27-.13-4.68h2.85l.12,2.84h.09a5.12,5.12,0,0,1,1.64-2.35,3.91,3.91,0,0,1,2.36-.8,5.17,5.17,0,0,1,.82.06Z" style="fill:#fff"/><path d="M187.31,40.69a8,8,0,0,1-.12,1.5h-9.81a4.35,4.35,0,0,0,1.42,3.37,4.86,4.86,0,0,0,3.21,1,10.75,10.75,0,0,0,4-.71l.51,2.3a12.22,12.22,0,0,1-4.93.92,7.11,7.11,0,0,1-5.38-2,7.56,7.56,0,0,1-2-5.46,8.6,8.6,0,0,1,1.82-5.6,6.23,6.23,0,0,1,5.14-2.39A5.48,5.48,0,0,1,186,36,8.14,8.14,0,0,1,187.31,40.69Zm-3.12-.86a4.5,4.5,0,0,0-.64-2.54,2.83,2.83,0,0,0-2.6-1.37,3.07,3.07,0,0,0-2.6,1.34,4.93,4.93,0,0,0-1,2.57Z" style="fill:#fff"/><path d="M75.21,15.51a5.11,5.11,0,0,1-1.62,4.12,6.37,6.37,0,0,1-4.27,1.28A19.7,19.7,0,0,1,67,20.79v-10a17,17,0,0,1,2.77-.21,5.93,5.93,0,0,1,4,1.16A4.69,4.69,0,0,1,75.21,15.51Zm-1.69.05a3.72,3.72,0,0,0-.93-2.72,3.66,3.66,0,0,0-2.72-.95,6,6,0,0,0-1.29.11v7.57a8.18,8.18,0,0,0,1.08.05,3.79,3.79,0,0,0,2.85-1A4.17,4.17,0,0,0,73.52,15.56Z" style="fill:#fff"/><path d="M84.19,17.11a4,4,0,0,1-1,2.76A3.36,3.36,0,0,1,80.59,21a3.21,3.21,0,0,1-2.53-1.07,3.91,3.91,0,0,1-1-2.69,4,4,0,0,1,1-2.78,3.35,3.35,0,0,1,2.62-1.08,3.28,3.28,0,0,1,2.56,1.06A3.86,3.86,0,0,1,84.19,17.11Zm-1.66.05a3.39,3.39,0,0,0-.43-1.73,1.59,1.59,0,0,0-1.45-.88,1.61,1.61,0,0,0-1.47.88,3.35,3.35,0,0,0-.43,1.76,3.29,3.29,0,0,0,.43,1.73,1.63,1.63,0,0,0,2.9,0A3.3,3.3,0,0,0,82.53,17.16Z" style="fill:#fff"/><path d="M96.24,13.51,94,20.82H92.51l-.94-3.17A23.17,23.17,0,0,1,91,15.29h0a17.29,17.29,0,0,1-.58,2.36l-1,3.17H87.89l-2.12-7.31h1.65L88.24,17c.19.82.36,1.6.49,2.34h0c.12-.61.31-1.39.59-2.33l1-3.48h1.31l1,3.41c.24.83.43,1.63.58,2.4h0c.11-.75.28-1.55.49-2.4l.88-3.41h1.58Z" style="fill:#fff"/><path d="M104.57,20.82H103V16.64c0-1.29-.48-1.94-1.45-1.94a1.44,1.44,0,0,0-1.16.53,1.91,1.91,0,0,0-.45,1.26v4.33H98.29V15.6c0-.64,0-1.33-.06-2.09h1.42l.07,1.14h0a2.32,2.32,0,0,1,.83-.88,2.7,2.7,0,0,1,1.46-.41,2.31,2.31,0,0,1,1.68.66,3.26,3.26,0,0,1,.83,2.42Z" style="fill:#fff"/><path d="M109,20.82h-1.6V10.16H109Z" style="fill:#fff"/><path d="M118.46,17.11a4,4,0,0,1-.95,2.76A3.36,3.36,0,0,1,114.86,21a3.2,3.2,0,0,1-2.53-1.07,3.91,3.91,0,0,1-1-2.69,4,4,0,0,1,1-2.78A3.35,3.35,0,0,1,115,13.37a3.3,3.3,0,0,1,2.56,1.06A3.91,3.91,0,0,1,118.46,17.11Zm-1.67.05a3.29,3.29,0,0,0-.43-1.73,1.56,1.56,0,0,0-1.44-.88,1.61,1.61,0,0,0-1.47.88,3.35,3.35,0,0,0-.43,1.76,3.29,3.29,0,0,0,.43,1.73,1.63,1.63,0,0,0,2.9,0A3.3,3.3,0,0,0,116.79,17.16Z" style="fill:#fff"/><path d="M126.24,20.82H124.8l-.12-.84h-.05a2.47,2.47,0,0,1-2.11,1,2.18,2.18,0,0,1-1.65-.66,2.08,2.08,0,0,1-.56-1.49,2.27,2.27,0,0,1,1.1-2.05,5.73,5.73,0,0,1,3.12-.69V16c0-1-.5-1.45-1.5-1.45a3.32,3.32,0,0,0-1.88.54L120.82,14a4.59,4.59,0,0,1,2.48-.63c1.89,0,2.84,1,2.84,3v2.69A11.45,11.45,0,0,0,126.24,20.82Zm-1.67-2.51V17.18c-1.77,0-2.66.46-2.66,1.48a1.08,1.08,0,0,0,.31.85,1.13,1.13,0,0,0,.79.29,1.58,1.58,0,0,0,1-.34,1.35,1.35,0,0,0,.55-.86A1.23,1.23,0,0,0,124.57,18.31Z" style="fill:#fff"/><path d="M135.37,20.82h-1.43l-.07-1.17h-.05A2.4,2.4,0,0,1,131.5,21a2.72,2.72,0,0,1-2.17-1,4.09,4.09,0,0,1-.86-2.69,4.24,4.24,0,0,1,.94-2.87,2.87,2.87,0,0,1,2.23-1,2.13,2.13,0,0,1,2,1h0v-4.2h1.6v8.69C135.31,19.56,135.33,20.22,135.37,20.82Zm-1.66-3.08V16.52a2.3,2.3,0,0,0-.05-.51,1.8,1.8,0,0,0-.58-1,1.55,1.55,0,0,0-1.07-.4,1.65,1.65,0,0,0-1.42.72,3.13,3.13,0,0,0-.51,1.85,2.91,2.91,0,0,0,.49,1.76,1.65,1.65,0,0,0,1.4.72,1.54,1.54,0,0,0,1.27-.6A2,2,0,0,0,133.71,17.74Z" style="fill:#fff"/><path d="M149.11,17.11a4,4,0,0,1-1,2.76A3.35,3.35,0,0,1,145.51,21,3.21,3.21,0,0,1,143,19.92a3.91,3.91,0,0,1-.95-2.69,4,4,0,0,1,1-2.78,3.35,3.35,0,0,1,2.62-1.08,3.28,3.28,0,0,1,2.56,1.06A3.91,3.91,0,0,1,149.11,17.11Zm-1.66.05a3.39,3.39,0,0,0-.43-1.73,1.59,1.59,0,0,0-1.45-.88,1.61,1.61,0,0,0-1.47.88,3.35,3.35,0,0,0-.43,1.76,3.29,3.29,0,0,0,.43,1.73,1.63,1.63,0,0,0,2.9,0A3.3,3.3,0,0,0,147.45,17.16Z" style="fill:#fff"/><path d="M157.75,20.82h-1.6V16.64c0-1.29-.49-1.94-1.46-1.94a1.45,1.45,0,0,0-1.16.53,1.9,1.9,0,0,0-.44,1.26v4.33h-1.61V15.6c0-.64,0-1.33-.06-2.09h1.41l.07,1.14h0a2.49,2.49,0,0,1,.83-.88,2.75,2.75,0,0,1,1.46-.41,2.29,2.29,0,0,1,1.68.66,3.22,3.22,0,0,1,.83,2.42Z" style="fill:#fff"/><path d="M168.57,14.73H166.8v3.55c0,.9.31,1.35.94,1.35a2.88,2.88,0,0,0,.71-.07l0,1.23a3.56,3.56,0,0,1-1.25.18,1.91,1.91,0,0,1-1.48-.58,2.88,2.88,0,0,1-.54-2V14.73h-1.05V13.51h1.05V12.18l1.58-.48v1.81h1.77v1.22Z" style="fill:#fff"/><path d="M177.07,20.82h-1.6V16.67c0-1.31-.49-2-1.46-2a1.54,1.54,0,0,0-1.53,1.14,2,2,0,0,0-.08.59v4.39h-1.6V10.16h1.6v4.41h0a2.42,2.42,0,0,1,2.17-1.21,2.22,2.22,0,0,1,1.66.67,3.35,3.35,0,0,1,.81,2.45Z" style="fill:#fff"/><path d="M185.85,16.82a3.88,3.88,0,0,1-.06.74H181a2.12,2.12,0,0,0,.7,1.65,2.38,2.38,0,0,0,1.58.51,5.33,5.33,0,0,0,1.95-.34l.25,1.13A6,6,0,0,1,183,21a3.51,3.51,0,0,1-2.64-1,3.71,3.71,0,0,1-.95-2.68,4.22,4.22,0,0,1,.89-2.76,3,3,0,0,1,2.52-1.17,2.7,2.7,0,0,1,2.37,1.17A3.94,3.94,0,0,1,185.85,16.82Zm-1.53-.42a2.32,2.32,0,0,0-.31-1.25,1.4,1.4,0,0,0-1.28-.67,1.51,1.51,0,0,0-1.28.66A2.42,2.42,0,0,0,181,16.4Z" style="fill:#fff"/></g></svg>