<svg width="100" height="100" viewBox="0 0 100 100" fill="none" xmlns="http://www.w3.org/2000/svg">
<path d="M84.6086 45.8511H83.6846V43.3617C83.6846 25.5711 68.3577 11 49.4999 11C44.9501 11.0052 39.8112 11.8591 35.6412 13.4894C31.4711 15.1196 28.5765 17.1428 25.4781 20.1277C18.9881 26.2847 15.2635 34.8933 15.3151 43.3617V45.8511H14.3912C10.4455 45.8511 6.99986 48.913 6.99986 53.3191C6.971 55.3158 7.52097 57.5231 8.84768 59.1277C9.43184 59.8797 10.718 60.3546 11.6194 60.7872C12.5209 61.2199 13.3687 61.598 14.3912 61.617H15.3151C17.8066 77.1174 32.337 89 49.4999 89C54.0481 88.9937 58.2663 88.1409 62.4346 86.5106C66.603 84.8804 70.4242 82.8562 73.5216 79.8723C78.7245 74.9429 81.7097 68.3357 82.7607 61.617H84.6086C88.5542 61.617 91.9999 57.7253 91.9999 53.3191C91.9999 48.913 88.5542 45.8511 84.6086 45.8511ZM49.4999 13.4894C60.7164 13.4894 70.7268 19.2149 76.2933 27.5957C69.1887 29.4359 61.0798 29.0053 54.1194 26.766C47.3118 24.7018 41.7721 21.1491 37.489 15.9787C41.2854 14.4901 45.3557 13.4837 49.4999 13.4894ZM14.3912 59.1277C13.7985 59.1041 13.0612 58.5572 12.5433 58.2979C12.0255 58.0385 11.9523 57.908 11.6194 57.4681C10.6743 56.2994 9.74009 54.7621 9.77159 53.3191C9.77159 50.3319 12.0108 48.3404 14.3912 48.3404H15.3151V53.3191V56.6383C15.3151 57.4681 15.2132 58.3477 15.3151 59.1277H14.3912ZM71.6738 78.2128C68.8329 80.9512 65.335 82.5252 61.5107 84.0213C57.6864 85.5174 53.6729 86.5052 49.4999 86.5106C32.1332 86.5106 18.0868 73.0598 18.0868 56.6383V46.6809V43.3617C18.0344 35.5306 21.3285 27.4845 27.3259 21.7872C29.562 19.6694 31.8709 18.2212 34.7172 16.8085C39.3386 22.5621 45.7026 26.9785 53.1955 29.2553C57.3633 30.5647 61.7137 30.9004 66.1303 30.9149C69.8262 30.9248 73.6958 31.0902 77.2172 30.0851C79.5069 34.3131 80.9231 38.6624 80.9129 43.3617V53.3191V56.6383C80.9952 64.4597 77.6364 72.4992 71.6738 78.2128ZM84.6086 59.1277H83.6846C83.7402 58.3477 83.6846 57.4266 83.6846 56.6383V48.3404H84.6086C86.9889 48.3404 89.2374 50.2987 89.2281 53.3191C89.2188 56.3396 86.9889 59.1277 84.6086 59.1277Z" fill="#242723"/>
<path d="M61.5108 69.0849C61.339 69.0183 61.6989 69.0881 61.5108 69.0849C61.3227 69.0816 60.7616 69.0243 60.5869 69.0849C60.4122 69.1455 59.7966 68.97 59.663 69.0849C59.5293 69.1997 59.7344 69.7637 59.663 69.9147C58.8169 71.6425 57.7597 73.0109 55.9673 74.0636C54.1749 75.1164 51.6644 75.6829 49.4999 75.7232C47.3355 75.7635 44.8754 75.0487 43.0325 74.0636C41.1896 73.0786 40.2677 71.6094 39.3369 69.9147C39.2575 69.7702 39.4739 70.0219 39.3369 69.9147C39.1998 69.8075 38.5869 69.9682 38.413 69.9147C38.239 69.8611 37.6734 69.9064 37.4891 69.9147C37.3047 69.9229 37.6557 69.8459 37.4891 69.9147C37.3224 69.9835 36.6887 69.7958 36.5651 69.9147C36.4415 70.0335 36.6269 70.5936 36.5651 70.7445C36.5034 70.8953 36.5556 70.5846 36.5651 70.7445C36.5747 70.9043 36.4858 71.4298 36.5651 71.5742C37.7289 73.6926 39.8049 75.3218 42.1086 76.553C44.4124 77.7841 46.7944 78.2632 49.4999 78.2125C52.2055 78.1619 54.6508 77.0393 56.8912 75.7232C59.1316 74.4071 61.3774 72.9044 62.4347 70.7445C62.5832 70.4503 62.568 70.2143 62.4347 69.9147C62.3014 69.6151 61.8487 69.2164 61.5108 69.0849Z" fill="#242723"/>
<path d="M49.4999 64.9358C51.9836 64.9358 54.645 64.0447 56.8912 61.6167C57.1104 61.3525 56.9198 60.2947 56.8912 59.9571C56.8626 59.6196 57.152 59.3534 56.8912 59.1273C56.6305 58.9012 55.3935 59.1182 55.0434 59.1273C54.6933 59.1364 54.3673 58.888 54.1195 59.1273C52.339 61.0433 51.2531 62.5259 49.4999 62.4465C46.7606 62.3229 44.9169 59.9571 44.8804 59.9571C44.661 59.6871 44.3082 59.1741 43.9564 59.1273C43.6047 59.0806 43.3191 58.9246 43.0325 59.1273C42.7459 59.33 42.1691 59.6188 42.1086 59.9571C42.0481 60.2954 41.909 60.503 42.1086 60.7869C42.2091 60.9193 45.464 64.7416 49.4999 64.9358Z" fill="#242723"/>
<path d="M70.7499 46.6808C68.9705 48.5925 67.8733 50.0792 66.1304 50C63.3928 49.8766 61.5473 47.5106 61.5108 47.5106C61.2915 47.2412 60.9384 46.7275 60.5869 46.6808C60.2353 46.6341 59.9494 46.4786 59.663 46.6808C59.3765 46.8831 58.7995 47.173 58.7391 47.5106C58.6786 47.8482 58.5396 48.0571 58.7391 48.3404C58.8486 48.4813 62.1335 52.2691 66.1304 52.4893C68.6124 52.4893 71.2768 51.5929 73.5217 49.1702C73.7407 48.9066 73.5502 47.8474 73.5217 47.5106C73.4931 47.1738 73.7822 46.9064 73.5217 46.6808C73.2611 46.4552 72.0237 46.6717 71.6738 46.6808C71.3239 46.6899 70.9976 46.442 70.7499 46.6808Z" fill="#242723"/>
<path d="M40.2607 49.1701C40.4799 48.9067 40.2893 47.847 40.2607 47.5105C40.2321 47.174 40.5215 46.9062 40.2607 46.6807C40 46.4553 38.763 46.6717 38.4129 46.6807C38.0628 46.6898 37.7368 46.4421 37.489 46.6807C35.7085 48.5909 34.6226 50.0791 32.8694 49.9999C30.1301 49.8766 28.2864 47.5105 28.2499 47.5105C28.0305 47.2414 27.6777 46.7274 27.326 46.6807C26.9742 46.6341 26.6886 46.4786 26.402 46.6807C26.1154 46.8828 25.5386 47.1732 25.4781 47.5105C25.4177 47.8478 25.2785 48.0572 25.4781 48.3403C25.5877 48.4811 28.8701 52.2692 32.8694 52.4892C35.3896 52.4716 38.0054 51.5908 40.2607 49.1701Z" fill="#242723"/>
</svg>
