<svg xmlns="http://www.w3.org/2000/svg" viewBox="0 0 1471 594.25"><path d="M390.36,508.11a6.82,6.82,0,0,0,.09-4,.77.77,0,0,0-.1-.29,6.78,6.78,0,0,0-4.3-4.32l-.82-.28-3.73-6.91a6.36,6.36,0,0,0-3.58-3l-18-6a3.34,3.34,0,0,0-4.2,2.1l-3.12,9.38a2.76,2.76,0,0,0-.08.27v.06a.57.57,0,0,0,0,.26,3.59,3.59,0,0,0,2.39,3.93h0a4.31,4.31,0,0,0,7.92,2.64l16.47,5.5a4.31,4.31,0,0,0,7.95,2.55A2.84,2.84,0,0,0,390.36,508.11Zm-32.1-5.65a3,3,0,1,1,.06,0l-.06,0Zm24.39,8.14a3,3,0,1,1,.06,0l-.06,0Zm5.15-1.84a4.32,4.32,0,0,0-8.22-2.59l-16.22-5.41A4.31,4.31,0,0,0,355.2,498a2.26,2.26,0,0,1-1.45-1.82l.54.18a.64.64,0,0,0,.81-.41h0a.63.63,0,0,0-.39-.8h0l-.76-.26,3-9.09a2,2,0,0,1,2.51-1.3l.06,0,18,6a5,5,0,0,1,2.84,2.4l3.86,7.13a.58.58,0,0,0,.36.31l1.06.35a5.5,5.5,0,0,1,3,2.36.64.64,0,0,0-.37,1.22l1,.35a5.5,5.5,0,0,1-.12,3.06,1.57,1.57,0,0,1-1.33,1.05Z" transform="translate(0 -1.24)" style="fill:#09acfe"/><path d="M379.66,501.44l-14.08-4.7a.64.64,0,0,0-.81.41h0a.66.66,0,0,0,.4.82l14.08,4.69a.64.64,0,0,0,.41-1.22Z" transform="translate(0 -1.24)" style="fill:#09acfe"/><path d="M371.3,495.93l1.83-5.5a.64.64,0,0,0-.41-.81h0l-13.46-4.5a.65.65,0,0,0-.82.41l-1.83,5.5a.63.63,0,0,0,.39.8h0l13.46,4.49a.65.65,0,0,0,.82-.39Zm-1-1-12.24-4.09,1.42-4.27,12.27,4.07Z" transform="translate(0 -1.24)" style="fill:#09acfe"/><path d="M379.52,493.19A4.49,4.49,0,0,0,377,491l-1.78-.6a.65.65,0,0,0-.82.41l-1.83,5.5a.64.64,0,0,0,.41.81h0l9.12,3.05a.66.66,0,0,0,.7-.2.65.65,0,0,0,.07-.73ZM374,496.13l1.42-4.27,1.17.39a3.29,3.29,0,0,1,1.85,1.55l2.52,4.65Z" transform="translate(0 -1.24)" style="fill:#09acfe"/><path d="M359.91,497.49a2.21,2.21,0,1,0,1.4,2.8h0a2.2,2.2,0,0,0-1.39-2.79Zm-1,3a.91.91,0,0,1,.58-1.73.92.92,0,0,1,.57,1.16h0a.91.91,0,0,1-1.13.53Z" transform="translate(0 -1.24)" style="fill:#09acfe"/><path d="M384.31,505.63a2.2,2.2,0,1,0,1.39,2.79A2.2,2.2,0,0,0,384.31,505.63Zm-1,3a.91.91,0,0,1-.58-1.15.92.92,0,0,1,1.16-.58.91.91,0,0,1,.58,1.15h0a.91.91,0,0,1-1.15.54Z" transform="translate(0 -1.24)" style="fill:#09acfe"/><path d="M369.87,481.85l5.51,1.84a.65.65,0,0,0,.41-1.23l-5.51-1.83a.65.65,0,0,0-.82.41.64.64,0,0,0,.41.81Z" transform="translate(0 -1.24)" style="fill:#09acfe"/><path d="M364.36,482.05l8.57,2.86a.65.65,0,0,0,.82-.41.64.64,0,0,0-.41-.81h0l-8.59-2.86a.66.66,0,0,0-.82.4.65.65,0,0,0,.41.82Z" transform="translate(0 -1.24)" style="fill:#09acfe"/><path d="M949.36,52.11a6.82,6.82,0,0,0,.09-4,.77.77,0,0,0-.1-.29,6.78,6.78,0,0,0-4.3-4.32l-.82-.28-3.73-6.91a6.36,6.36,0,0,0-3.58-3l-18-6a3.34,3.34,0,0,0-4.2,2.1l-3.12,9.38a1.12,1.12,0,0,1-.08.26c0,.08,0,0,0,.07a.57.57,0,0,0,0,.26,3.59,3.59,0,0,0,2.39,3.93h0A4.31,4.31,0,0,0,921.83,46l16.47,5.5a4.31,4.31,0,0,0,8,2.59A2.85,2.85,0,0,0,949.36,52.11Zm-32.1-5.65a3,3,0,1,1,.06,0Zm24.39,8.14a3,3,0,1,1,.06,0Zm5.15-1.84a4.32,4.32,0,0,0-8.22-2.59l-16.22-5.41A4.31,4.31,0,0,0,914.2,42a2.26,2.26,0,0,1-1.45-1.8l.54.18a.64.64,0,0,0,.81-.41.63.63,0,0,0-.4-.81h0l-.77-.26,3-9.09a2,2,0,0,1,2.51-1.3l.06,0,18,6a5,5,0,0,1,2.84,2.39l3.86,7.14a.58.58,0,0,0,.36.31l1.06.35a5.5,5.5,0,0,1,3,2.36.63.63,0,0,0-.78.41.65.65,0,0,0,.41.82l1,.34a5.5,5.5,0,0,1-.12,3.06,1.57,1.57,0,0,1-1.33,1Z" transform="translate(0 -1.24)" style="fill:#09acfe"/><path d="M938.66,45.44l-14.08-4.7a.64.64,0,0,0-.81.41h0a.65.65,0,0,0,.4.82l14.08,4.69a.65.65,0,0,0,.82-.41.64.64,0,0,0-.41-.81Z" transform="translate(0 -1.24)" style="fill:#09acfe"/><path d="M930.3,39.93l1.83-5.5a.64.64,0,0,0-.41-.81h0l-13.46-4.5a.65.65,0,0,0-.82.41L915.61,35a.63.63,0,0,0,.39.8h0l13.46,4.5A.65.65,0,0,0,930.3,39.93Zm-1-1-12.24-4.09,1.42-4.27,12.27,4.07Z" transform="translate(0 -1.24)" style="fill:#09acfe"/><path d="M938.52,37.19A4.49,4.49,0,0,0,936,35l-1.78-.6a.65.65,0,0,0-.82.41l-1.83,5.5a.64.64,0,0,0,.41.81h0l9.12,3a.64.64,0,0,0,.81-.4.65.65,0,0,0,0-.51ZM933,40.13l1.42-4.27,1.17.39a3.29,3.29,0,0,1,1.85,1.55l2.52,4.65Z" transform="translate(0 -1.24)" style="fill:#09acfe"/><path d="M918.91,41.5a2.2,2.2,0,1,0,1.4,2.78,2.21,2.21,0,0,0-1.4-2.78Zm-1,3a.91.91,0,1,1,1.15-.58.91.91,0,0,1-1.15.58Z" transform="translate(0 -1.24)" style="fill:#09acfe"/><path d="M943.31,49.63a2.2,2.2,0,1,0,1.44,2.79,2.2,2.2,0,0,0-1.44-2.79Zm-1,3a.91.91,0,1,1,.58-1.73.91.91,0,0,1,.58,1.15h0a.91.91,0,0,1-1.15.54Z" transform="translate(0 -1.24)" style="fill:#09acfe"/><path d="M928.87,25.85l5.51,1.84a.65.65,0,0,0,.41-1.23l-5.51-1.83a.65.65,0,0,0-.82.39h0A.65.65,0,0,0,928.87,25.85Z" transform="translate(0 -1.24)" style="fill:#09acfe"/><path d="M923.36,26.05l8.57,2.86a.65.65,0,0,0,.82-.41.64.64,0,0,0-.41-.81h0l-8.59-2.86a.64.64,0,1,0-.41,1.22Z" transform="translate(0 -1.24)" style="fill:#09acfe"/><path d="M744.65,433.52a6.82,6.82,0,0,0,.09-4,.63.63,0,0,0-.1-.29,6.79,6.79,0,0,0-4.3-4.33l-.81-.27-3.78-6.92a6.3,6.3,0,0,0-3.57-3l-18-6a3.33,3.33,0,0,0-4.2,2.1l-3.13,9.38a.35.35,0,0,1-.08.26v.06a.61.61,0,0,0,0,.27,3.56,3.56,0,0,0,2.4,3.92h0a4.31,4.31,0,0,0,7.91,2.64l16.48,5.5a4.31,4.31,0,0,0,8,2.59A2.85,2.85,0,0,0,744.65,433.52Zm-32.1-5.65a3,3,0,1,1,.06,0l-.06,0ZM736.94,436a3,3,0,1,1,.06,0Zm5.15-1.83a4.31,4.31,0,0,0-8.21-2.59l-16.22-5.41a4.31,4.31,0,0,0-8.17-2.74,2.28,2.28,0,0,1-1.43-1.82l.54.18a.65.65,0,0,0,.41-1.23l-.76-.25,3-9.09a2,2,0,0,1,2.51-1.3l.06,0,18,6a5.06,5.06,0,0,1,2.85,2.39l3.85,7.14a.73.73,0,0,0,.36.31l1.06.35a5.48,5.48,0,0,1,3,2.35.65.65,0,0,0-.78.42.64.64,0,0,0,.41.81h0l1,.34a5.44,5.44,0,0,1-.11,3.07A1.58,1.58,0,0,1,742.09,434.17Z" transform="translate(0 -1.24)" style="fill:#09acfe"/><path d="M734,426.85l-14.07-4.7a.65.65,0,0,0-.5,1.2l.09,0,14.07,4.69a.65.65,0,0,0,.82-.41.64.64,0,0,0-.41-.81Z" transform="translate(0 -1.24)" style="fill:#09acfe"/><path d="M725.59,421.34l1.83-5.5a.65.65,0,0,0-.4-.82l-13.47-4.49a.65.65,0,0,0-.82.41l-1.83,5.5a.64.64,0,0,0,.41.81h0l13.44,4.49a.64.64,0,0,0,.83-.37Zm-1-1-12.24-4.09,1.4-4.25L726,416Z" transform="translate(0 -1.24)" style="fill:#09acfe"/><path d="M733.82,418.6a4.54,4.54,0,0,0-2.58-2.17l-1.78-.59a.64.64,0,0,0-.81.41h0l-1.84,5.49a.65.65,0,0,0,.41.82l9.12,3a.65.65,0,0,0,.82-.39.66.66,0,0,0,0-.53Zm-5.58,2.94,1.43-4.27,1.16.39a3.22,3.22,0,0,1,1.85,1.55l2.52,4.65Z" transform="translate(0 -1.24)" style="fill:#09acfe"/><path d="M714.21,422.9a2.2,2.2,0,1,0,1.39,2.79A2.2,2.2,0,0,0,714.21,422.9Zm-1,3a.91.91,0,1,1,1.16-.58.91.91,0,0,1-1.16.58Z" transform="translate(0 -1.24)" style="fill:#09acfe"/><path d="M738.6,431a2.2,2.2,0,1,0-1.39,4.18h0A2.2,2.2,0,0,0,738.6,431Zm-1,3a.92.92,0,1,1,1.16-.58h0a.92.92,0,0,1-1.15.58Z" transform="translate(0 -1.24)" style="fill:#09acfe"/><path d="M724.16,407.26l5.51,1.84a.65.65,0,0,0,.41-1.23L724.57,406a.64.64,0,0,0-.81.41h0a.66.66,0,0,0,.39.85Z" transform="translate(0 -1.24)" style="fill:#09acfe"/><path d="M718.66,407.46l8.56,2.86a.65.65,0,0,0,.82-.41.64.64,0,0,0-.41-.81h0l-8.56-2.86a.64.64,0,0,0-.81.41.63.63,0,0,0,.4.81Z" transform="translate(0 -1.24)" style="fill:#09acfe"/><path d="M546.86,74.11a6.82,6.82,0,0,0,.09-4,.75.75,0,0,0-.09-.29,6.79,6.79,0,0,0-4.31-4.32l-.81-.28L538,58.31a6.36,6.36,0,0,0-3.58-3l-18-6a3.34,3.34,0,0,0-4.2,2.1l-3.13,9.38a1.11,1.11,0,0,1-.07.26c0,.08,0,0,0,.07a.57.57,0,0,0,0,.26,3.58,3.58,0,0,0,2.4,3.93h0A4.31,4.31,0,0,0,519.34,68l16.48,5.5A4.31,4.31,0,0,0,543.75,76,2.83,2.83,0,0,0,546.86,74.11Zm-32.11-5.65a3.14,3.14,0,1,1,.07,0Zm24.4,8.14a3.45,3.45,0,1,1,.05,0h-.05Zm5.14-1.84a4.31,4.31,0,0,0-8.21-2.59l-16.22-5.41A4.31,4.31,0,0,0,511.75,64a2.25,2.25,0,0,1-1.42-1.82l.53.18a.65.65,0,0,0,.82-.41.64.64,0,0,0-.41-.81h0l-.76-.26,3-9.09a2,2,0,0,1,2.51-1.3l.06,0,18,6a5,5,0,0,1,2.85,2.39l3.82,7.15a.63.63,0,0,0,.37.31l1.06.35a5.46,5.46,0,0,1,3,2.36.62.62,0,0,0-.77.41.65.65,0,0,0,.4.82l1,.34a5.5,5.5,0,0,1-.12,3.06,1.56,1.56,0,0,1-1.39,1.06Z" transform="translate(0 -1.24)" style="fill:#09acfe"/><path d="M536.17,67.44l-14.08-4.7a.65.65,0,0,0-.41,1.23l14.07,4.69a.65.65,0,0,0,.82-.41.64.64,0,0,0-.41-.81h0Z" transform="translate(0 -1.24)" style="fill:#09acfe"/><path d="M527.8,61.93l1.84-5.5a.64.64,0,0,0-.41-.81h0l-13.48-4.5a.64.64,0,0,0-.81.41h0L513.11,57a.64.64,0,0,0,.41.81h0L527,62.31A.64.64,0,0,0,527.8,61.93Zm-1-1-12.24-4.09L516,52.57l12.24,4.09Z" transform="translate(0 -1.24)" style="fill:#09acfe"/><path d="M536,59.19A4.5,4.5,0,0,0,533.45,57l-1.78-.6a.64.64,0,0,0-.81.41h0L529,62.31a.65.65,0,0,0,.4.81l9.12,3a.64.64,0,0,0,.7-.19.65.65,0,0,0,.08-.72Zm-5.58,2.94,1.43-4.27,1.16.39a3.22,3.22,0,0,1,1.85,1.55l2.52,4.65Z" transform="translate(0 -1.24)" style="fill:#09acfe"/><path d="M516.42,63.5a2.2,2.2,0,1,0,1.39,2.78h0A2.21,2.21,0,0,0,516.42,63.5Zm-1,3a.91.91,0,1,1,1.16-.58.92.92,0,0,1-1.15.53Z" transform="translate(0 -1.24)" style="fill:#09acfe"/><path d="M540.81,71.63a2.2,2.2,0,1,0,1.4,2.79,2.21,2.21,0,0,0-1.4-2.79Zm-1,3a.91.91,0,1,1,1.15-.58A.91.91,0,0,1,539.81,74.63Z" transform="translate(0 -1.24)" style="fill:#09acfe"/><path d="M526.38,47.85l5.51,1.84a.64.64,0,0,0,.81-.41h0a.65.65,0,0,0-.41-.82l-5.54-1.83a.65.65,0,0,0-.82.39h0a.65.65,0,0,0,.43.81Z" transform="translate(0 -1.24)" style="fill:#09acfe"/><path d="M520.87,48.05l8.57,2.86a.64.64,0,0,0,.81-.41h0a.63.63,0,0,0-.39-.8h0l-8.56-2.86a.65.65,0,0,0-.82.41.64.64,0,0,0,.41.81Z" transform="translate(0 -1.24)" style="fill:#09acfe"/><path d="M43.86,572.11a6.82,6.82,0,0,0,.09-4,.75.75,0,0,0-.09-.29,6.79,6.79,0,0,0-4.31-4.32l-.81-.27L35,556.31a6.36,6.36,0,0,0-3.58-3l-18-6a3.33,3.33,0,0,0-4.2,2.11L6.1,558.79a.36.36,0,0,1-.07.26c-.07.08,0,0,0,.07a.57.57,0,0,0,0,.26,3.58,3.58,0,0,0,2.4,3.93h0A4.31,4.31,0,0,0,16.34,566l16.48,5.5A4.31,4.31,0,0,0,40.75,574,2.84,2.84,0,0,0,43.86,572.11Zm-32.11-5.65a3,3,0,1,1,.06,0Zm24.4,8.14a3.45,3.45,0,1,1,.05,0h-.05Zm5.14-1.84a4.31,4.31,0,0,0-8.21-2.59l-16.22-5.41A4.31,4.31,0,0,0,8.75,562a2.25,2.25,0,0,1-1.42-1.82l.53.18a.65.65,0,0,0,.82-.41.64.64,0,0,0-.41-.81h0l-.76-.26,3-9.09a2,2,0,0,1,2.51-1.3l.06,0,18,6a5,5,0,0,1,2.85,2.39l3.82,7.15a.63.63,0,0,0,.37.31l1.06.35a5.46,5.46,0,0,1,3,2.36.64.64,0,0,0-.39,1.21h0l1,.35a5.5,5.5,0,0,1-.12,3.06,1.56,1.56,0,0,1-1.39,1.06Z" transform="translate(0 -1.24)" style="fill:#09acfe"/><path d="M33.17,565.44l-14.08-4.7a.65.65,0,0,0-.5,1.2l.09,0,14.07,4.69a.63.63,0,0,0,.8-.39v0A.64.64,0,0,0,33.17,565.44Z" transform="translate(0 -1.24)" style="fill:#09acfe"/><path d="M24.8,559.93l1.84-5.5a.64.64,0,0,0-.41-.81h0l-13.48-4.5a.64.64,0,0,0-.81.41h0L10.11,555a.64.64,0,0,0,.41.81h0L24,560.31A.64.64,0,0,0,24.8,559.93Zm-1-1-12.24-4.09L13,550.57l12.24,4.09Z" transform="translate(0 -1.24)" style="fill:#09acfe"/><path d="M33,557.19A4.57,4.57,0,0,0,30.45,555l-1.77-.6a.65.65,0,0,0-.82.41L26,560.31a.65.65,0,0,0,.4.81l9.12,3a.65.65,0,0,0,.78-.92Zm-5.58,2.94,1.43-4.27,1.16.39a3.22,3.22,0,0,1,1.85,1.55l2.52,4.65Z" transform="translate(0 -1.24)" style="fill:#09acfe"/><path d="M13.42,561.49a2.21,2.21,0,1,0,1.39,2.8h0A2.22,2.22,0,0,0,13.42,561.49Zm-1,3a.9.9,0,0,1-.57-1.15.91.91,0,0,1,1.15-.58h0a.9.9,0,0,1,.57,1.15A.91.91,0,0,1,12.42,564.49Z" transform="translate(0 -1.24)" style="fill:#09acfe"/><path d="M37.81,569.63a2.2,2.2,0,1,0,1.4,2.79A2.21,2.21,0,0,0,37.81,569.63Zm-1,3a.91.91,0,1,1,1.15-.58.91.91,0,0,1-1.15.58Z" transform="translate(0 -1.24)" style="fill:#09acfe"/><path d="M23.38,545.85l5.51,1.84a.64.64,0,0,0,.81-.41h0a.65.65,0,0,0-.41-.82l-5.54-1.83a.64.64,0,0,0-.41,1.22Z" transform="translate(0 -1.24)" style="fill:#09acfe"/><path d="M17.87,546.05l8.57,2.86a.64.64,0,0,0,.81-.41h0a.62.62,0,0,0-.38-.8h0l-8.57-2.86a.65.65,0,0,0-.82.41.64.64,0,0,0,.41.81Z" transform="translate(0 -1.24)" style="fill:#09acfe"/><path d="M114.69,178.42a6.66,6.66,0,0,0,0-4,.63.63,0,0,0-.1-.29,6.84,6.84,0,0,0-4.4-4.23l-.82-.25-3.89-6.83a6.37,6.37,0,0,0-3.64-2.92l-18.09-5.58a3.33,3.33,0,0,0-4.15,2.2L76.68,166a2.68,2.68,0,0,0-.07.27v.06a.57.57,0,0,0,0,.26,3.59,3.59,0,0,0,2.49,3.88h0a4.31,4.31,0,0,0,8,2.46l16.6,5.12a4.32,4.32,0,0,0,8,2.41A2.83,2.83,0,0,0,114.69,178.42Zm-32.22-4.91a2.94,2.94,0,1,1,.06,0Zm24.58,7.58a3,3,0,1,1,3.78-2,3,3,0,0,1-3.78,2Zm5.1-2a4.31,4.31,0,0,0-8.27-2.4l-16.34-5a4.31,4.31,0,0,0-8.23-2.55,2.26,2.26,0,0,1-1.46-1.79l.54.16a.62.62,0,0,0,.79-.4v0a.64.64,0,0,0-.41-.81h0L78,166l2.82-9.15a2,2,0,0,1,2.47-1.37l.07,0,18.1,5.58a5,5,0,0,1,2.9,2.33l4,7a.65.65,0,0,0,.37.3l1.07.33a5.52,5.52,0,0,1,3,2.28.64.64,0,0,0-.34,1.24l1,.32a5.49,5.49,0,0,1,0,3.06,1.59,1.59,0,0,1-1.26,1.16Z" transform="translate(0 -1.24)" style="fill:#09acfe"/><path d="M103.85,172l-14.18-4.37a.64.64,0,0,0-.8.43.63.63,0,0,0,.42.8h0l14.18,4.37a.62.62,0,0,0,.79-.4v0a.64.64,0,0,0-.41-.81Z" transform="translate(0 -1.24)" style="fill:#09acfe"/><path d="M95.36,166.68l1.71-5.53a.66.66,0,0,0-.43-.81l-13.56-4.18a.64.64,0,0,0-.81.41h0l-1.71,5.54a.66.66,0,0,0,.43.81l13.56,4.18A.66.66,0,0,0,95.36,166.68Zm-1-1L82,161.87l1.32-4.3,12.33,3.8Z" transform="translate(0 -1.24)" style="fill:#09acfe"/><path d="M103.52,163.76a4.58,4.58,0,0,0-2.62-2.11l-1.79-.55a.66.66,0,0,0-.81.43l-1.71,5.53a.66.66,0,0,0,.43.81l9.19,2.83a.64.64,0,0,0,.75-.93ZM98,166.83l1.32-4.31,1.18.36a3.27,3.27,0,0,1,1.88,1.52L105,169Z" transform="translate(0 -1.24)" style="fill:#09acfe"/><path d="M84,168.51a2.2,2.2,0,1,0,1.45,2.76A2.2,2.2,0,0,0,84,168.51Zm-.92,3a.92.92,0,1,1,1.15-.62v0a.92.92,0,0,1-1.14.58Z" transform="translate(0 -1.24)" style="fill:#09acfe"/><path d="M108.59,176.09a2.2,2.2,0,1,0,1.46,2.75A2.2,2.2,0,0,0,108.59,176.09Zm-.92,3a.92.92,0,0,1-.6-1.15.91.91,0,1,1,1.74.54h0a.93.93,0,0,1-1.14.59Z" transform="translate(0 -1.24)" style="fill:#09acfe"/><path d="M93.61,152.64l5.55,1.71a.64.64,0,0,0,.81-.41h0a.66.66,0,0,0-.43-.81L94,151.41a.62.62,0,0,0-.79.4v0a.64.64,0,0,0,.41.81Z" transform="translate(0 -1.24)" style="fill:#09acfe"/><path d="M88.11,153l8.64,2.63a.64.64,0,0,0,.38-1.23h0l-8.63-2.66a.64.64,0,0,0-.81.41h0a.65.65,0,0,0,.39.83Z" transform="translate(0 -1.24)" style="fill:#09acfe"/><path d="M1254.36,442.11a6.82,6.82,0,0,0,.09-4,.77.77,0,0,0-.1-.29,6.78,6.78,0,0,0-4.3-4.32l-.82-.28-3.73-6.91a6.36,6.36,0,0,0-3.58-3l-18-6a3.34,3.34,0,0,0-4.2,2.1l-3.12,9.38a2.76,2.76,0,0,0-.08.27v.06a.57.57,0,0,0,0,.26,3.59,3.59,0,0,0,2.39,3.93h0a4.31,4.31,0,0,0,7.92,2.64l16.47,5.5a4.31,4.31,0,0,0,8,2.59A2.85,2.85,0,0,0,1254.36,442.11Zm-32.1-5.65a3,3,0,1,1,.06,0Zm24.39,8.14a3,3,0,1,1,.06,0Zm5.15-1.84a4.32,4.32,0,0,0-8.22-2.59l-16.21-5.41a4.32,4.32,0,0,0-8.18-2.74,2.27,2.27,0,0,1-1.42-1.82l.54.18a.64.64,0,0,0,.81-.41h0a.62.62,0,0,0-.38-.8h0l-.77-.26,3-9.09a2,2,0,0,1,2.51-1.3l.06,0,18,6a5,5,0,0,1,2.84,2.4l3.86,7.13a.58.58,0,0,0,.36.31l1.06.35a5.5,5.5,0,0,1,3,2.36.63.63,0,0,0-.78.41.65.65,0,0,0,.41.82l1,.34a5.5,5.5,0,0,1-.12,3.06A1.55,1.55,0,0,1,1251.8,442.76Z" transform="translate(0 -1.24)" style="fill:#09acfe"/><path d="M1243.66,435.44l-14.08-4.7a.64.64,0,0,0-.81.41h0a.66.66,0,0,0,.4.82l14.08,4.69a.65.65,0,0,0,.82-.41.64.64,0,0,0-.41-.81Z" transform="translate(0 -1.24)" style="fill:#09acfe"/><path d="M1235.3,429.93l1.83-5.5a.64.64,0,0,0-.41-.81h0l-13.46-4.5a.65.65,0,0,0-.82.41l-1.83,5.5a.63.63,0,0,0,.39.8h0l13.46,4.49a.65.65,0,0,0,.82-.39Zm-1-1-12.24-4.09,1.42-4.27,12.24,4.09Z" transform="translate(0 -1.24)" style="fill:#09acfe"/><path d="M1243.52,427.19A4.53,4.53,0,0,0,1241,425l-1.78-.6a.65.65,0,0,0-.82.41l-1.83,5.5a.64.64,0,0,0,.41.81h0l9.12,3.05a.66.66,0,0,0,.7-.2.67.67,0,0,0,.07-.73Zm-5.57,2.94,1.42-4.27,1.17.39a3.29,3.29,0,0,1,1.85,1.55l2.52,4.65Z" transform="translate(0 -1.24)" style="fill:#09acfe"/><path d="M1223.91,431.49a2.21,2.21,0,1,0,1.4,2.8h0A2.21,2.21,0,0,0,1223.91,431.49Zm-1,3a.91.91,0,0,1,.58-1.73.92.92,0,0,1,.57,1.16h0a.91.91,0,0,1-1.13.53Z" transform="translate(0 -1.24)" style="fill:#09acfe"/><path d="M1248.31,439.63a2.2,2.2,0,1,0,1.39,2.79A2.2,2.2,0,0,0,1248.31,439.63Zm-1,3a.91.91,0,0,1-.58-1.15.92.92,0,0,1,1.16-.58h0a.91.91,0,0,1,.58,1.15h0a.91.91,0,0,1-1.15.54Z" transform="translate(0 -1.24)" style="fill:#09acfe"/><path d="M1233.87,415.85l5.51,1.84a.65.65,0,1,0,.5-1.2l-.09,0-5.51-1.83a.65.65,0,0,0-.82.41A.64.64,0,0,0,1233.87,415.85Z" transform="translate(0 -1.24)" style="fill:#09acfe"/><path d="M1228.36,416.05l8.57,2.86a.65.65,0,0,0,.82-.41.64.64,0,0,0-.41-.81h0l-8.57-2.86a.66.66,0,0,0-.82.4.65.65,0,0,0,.41.82Z" transform="translate(0 -1.24)" style="fill:#09acfe"/><path d="M665.08,87.33a.65.65,0,0,0,.52-.25c.28-.34,6.82-8.54,6.82-12.41a7.34,7.34,0,1,0-14.67-.54,4.86,4.86,0,0,0,0,.54c0,3.87,6.53,12.06,6.81,12.41A.67.67,0,0,0,665.08,87.33Zm0-18.66a6,6,0,0,1,6,6c0,2.58-3.94,8.24-6,10.92-2.06-2.68-6-8.34-6-10.92A6,6,0,0,1,665.08,68.67Z" transform="translate(0 -1.24)" style="fill:#00cd78;opacity:0.550000011920929;isolation:isolate"/><path d="M667.75,74a2.67,2.67,0,1,0-2.67,2.67h0A2.68,2.68,0,0,0,667.75,74Zm-4,0a1.34,1.34,0,1,1,1.35,1.33h0A1.34,1.34,0,0,1,663.75,74Z" transform="translate(0 -1.24)" style="fill:#00cd78;opacity:0.550000011920929;isolation:isolate"/><path d="M692.42,64a.66.66,0,0,0,.5-.23c.5-.58,4.83-5.69,4.83-8.44a5.34,5.34,0,0,0-10.67,0c0,2.75,4.34,7.86,4.83,8.44A.66.66,0,0,0,692.42,64Zm0-12.67a4,4,0,0,1,4,4c0,1.69-2.55,5.17-4,7-1.46-1.79-4-5.26-4-7A4,4,0,0,1,692.42,51.33Z" transform="translate(0 -1.24)" style="fill:#00cd78;opacity:0.550000011920929;isolation:isolate"/><path d="M694.42,54.67a2,2,0,1,0-2,2A2,2,0,0,0,694.42,54.67Zm-2.67,0a.67.67,0,0,1,.58-.75.68.68,0,0,1,.75.59.43.43,0,0,1,0,.16.67.67,0,0,1-.75.58A.66.66,0,0,1,691.75,54.67Z" transform="translate(0 -1.24)" style="fill:#00cd78;opacity:0.550000011920929;isolation:isolate"/><path d="M691.75,66.67h.67a.67.67,0,0,0,0-1.34h-.67a.67.67,0,0,0,0,1.34Z" transform="translate(0 -1.24)" style="fill:#00cd78;opacity:0.550000011920929;isolation:isolate"/><path d="M683.08,70.67h1.35a.67.67,0,0,0,0-1.34h-1.36a.67.67,0,1,0,0,1.34Z" transform="translate(0 -1.24)" style="fill:#00cd78;opacity:0.550000011920929;isolation:isolate"/><path d="M690.56,70a.67.67,0,0,0,.66.67h1.36a.67.67,0,1,0,0-1.34h-1.36A.67.67,0,0,0,690.56,70Z" transform="translate(0 -1.24)" style="fill:#00cd78;opacity:0.550000011920929;isolation:isolate"/><path d="M687.67,66.67H689a.67.67,0,0,0,0-1.34h-1.36a.67.67,0,0,0,0,1.34Z" transform="translate(0 -1.24)" style="fill:#00cd78;opacity:0.550000011920929;isolation:isolate"/><path d="M669.89,88.67h-1.36a.67.67,0,0,0,0,1.33h1.36a.67.67,0,1,0,0-1.33Z" transform="translate(0 -1.24)" style="fill:#00cd78;opacity:0.550000011920929;isolation:isolate"/><path d="M681.13,69.08h.13a.68.68,0,0,0,.52-.79,1.89,1.89,0,0,1,.15-.89.67.67,0,0,0-.29-.89h0a.65.65,0,0,0-.88.27v0a2.68,2.68,0,0,0-.24,1.76A.67.67,0,0,0,681.13,69.08Z" transform="translate(0 -1.24)" style="fill:#00cd78;opacity:0.550000011920929;isolation:isolate"/><path d="M687.15,70.67h1.36a.67.67,0,1,0,0-1.34h-1.36a.67.67,0,0,0,0,1.34Z" transform="translate(0 -1.24)" style="fill:#00cd78;opacity:0.550000011920929;isolation:isolate"/><path d="M683.6,66.67H685a.67.67,0,1,0,0-1.34H683.6a.67.67,0,1,0,0,1.34Z" transform="translate(0 -1.24)" style="fill:#00cd78;opacity:0.550000011920929;isolation:isolate"/><path d="M677,78.25h.16a.68.68,0,0,0,.65-.5,2.6,2.6,0,0,1,.47-.94.64.64,0,0,0,.13-.66.66.66,0,0,0-.51-.44.69.69,0,0,0-.64.24,3.72,3.72,0,0,0-.74,1.47.64.64,0,0,0,.45.8h0Z" transform="translate(0 -1.24)" style="fill:#00cd78;opacity:0.550000011920929;isolation:isolate"/><path d="M690.18,88.64a3.09,3.09,0,0,1-.43,0h-.84a.67.67,0,0,0-.67.65h0a.67.67,0,0,0,.67.67h.84a3,3,0,0,0,.6,0,.67.67,0,1,0,0-1.34l-.15,0Z" transform="translate(0 -1.24)" style="fill:#00cd78;opacity:0.550000011920929;isolation:isolate"/><path d="M691.11,80.87a4.48,4.48,0,0,0-1.36-.2h-.17a.67.67,0,0,0-.75.58.68.68,0,0,0,.59.75.43.43,0,0,0,.16,0h.17a3.72,3.72,0,0,1,1,.14.67.67,0,0,0,.2,0,.66.66,0,0,0,.19-1.3Z" transform="translate(0 -1.24)" style="fill:#00cd78;opacity:0.550000011920929;isolation:isolate"/><path d="M689.69,76a.67.67,0,0,0,.58-.75.66.66,0,0,0-.58-.58h-1.36a.67.67,0,0,0-.75.58.68.68,0,0,0,.59.75.43.43,0,0,0,.16,0Z" transform="translate(0 -1.24)" style="fill:#00cd78;opacity:0.550000011920929;isolation:isolate"/><path d="M693.67,86.37a.67.67,0,0,0-.88.32h0a3.25,3.25,0,0,1-.63.93.67.67,0,0,0-.17.66.65.65,0,0,0,.49.46.68.68,0,0,0,.65-.19,5,5,0,0,0,.88-1.31.66.66,0,0,0-.33-.87Z" transform="translate(0 -1.24)" style="fill:#00cd78;opacity:0.550000011920929;isolation:isolate"/><path d="M697.16,72.78a.62.62,0,0,0-.5.06.64.64,0,0,0-.32.4,2.12,2.12,0,0,1-.52.86.66.66,0,0,0,0,.93h0a.68.68,0,0,0,1,0l0,0a3.43,3.43,0,0,0,.86-1.44.62.62,0,0,0,0-.5A.66.66,0,0,0,697.16,72.78Z" transform="translate(0 -1.24)" style="fill:#00cd78;opacity:0.550000011920929;isolation:isolate"/><path d="M696.4,71.55a.67.67,0,0,0,.5-1.11,3.41,3.41,0,0,0-1.4-.93.67.67,0,0,0-.85.42h0a.66.66,0,0,0,.41.84h0a2.18,2.18,0,0,1,.84.56A.64.64,0,0,0,696.4,71.55Z" transform="translate(0 -1.24)" style="fill:#00cd78;opacity:0.550000011920929;isolation:isolate"/><path d="M686.86,80.67H685.5a.67.67,0,0,0-.75.58.68.68,0,0,0,.59.75.43.43,0,0,0,.16,0h1.36a.67.67,0,0,0,.75-.58.68.68,0,0,0-.59-.75A.43.43,0,0,0,686.86,80.67Z" transform="translate(0 -1.24)" style="fill:#00cd78;opacity:0.550000011920929;isolation:isolate"/><path d="M693.75,74.67H692.4a.67.67,0,0,0-.75.58.68.68,0,0,0,.59.75.43.43,0,0,0,.16,0h1.35a.67.67,0,0,0,.75-.58.68.68,0,0,0-.59-.75A.43.43,0,0,0,693.75,74.67Z" transform="translate(0 -1.24)" style="fill:#00cd78;opacity:0.550000011920929;isolation:isolate"/><path d="M674,88.67h-1.36a.67.67,0,0,0-.67.65h0a.67.67,0,0,0,.67.67H674a.67.67,0,1,0,0-1.33Z" transform="translate(0 -1.24)" style="fill:#00cd78;opacity:0.550000011920929;isolation:isolate"/><path d="M693.61,82.71a.67.67,0,1,0-1.15.69l0,.07a3.39,3.39,0,0,1,.47,1,.66.66,0,0,0,.78.52.64.64,0,0,0,.34-.19.67.67,0,0,0,.17-.66A4.77,4.77,0,0,0,693.61,82.71Z" transform="translate(0 -1.24)" style="fill:#00cd78;opacity:0.550000011920929;isolation:isolate"/><path d="M679.05,80.43a2.39,2.39,0,0,1-.81-.67.67.67,0,0,0-.94-.11.66.66,0,0,0-.11.93h0a3.53,3.53,0,0,0,1.27,1,.66.66,0,0,0,.59-1.19Z" transform="translate(0 -1.24)" style="fill:#00cd78;opacity:0.550000011920929;isolation:isolate"/><path d="M678,88.67h-1.36a.67.67,0,0,0,0,1.33H678a.67.67,0,1,0,0-1.33Z" transform="translate(0 -1.24)" style="fill:#00cd78;opacity:0.550000011920929;isolation:isolate"/><path d="M686.19,88.67h-1.35a.67.67,0,0,0-.67.65h0a.67.67,0,0,0,.67.67h1.35a.67.67,0,1,0,0-1.33Z" transform="translate(0 -1.24)" style="fill:#00cd78;opacity:0.550000011920929;isolation:isolate"/><path d="M681.54,76a.67.67,0,0,0,.75-.58.68.68,0,0,0-.59-.75.43.43,0,0,0-.16,0h-1.36a.67.67,0,0,0-.75.58A.68.68,0,0,0,680,76a.43.43,0,0,0,.16,0Z" transform="translate(0 -1.24)" style="fill:#00cd78;opacity:0.550000011920929;isolation:isolate"/><path d="M685.62,76a.67.67,0,0,0,.58-.75.66.66,0,0,0-.58-.58h-1.36a.67.67,0,0,0-.75.58.68.68,0,0,0,.59.75.43.43,0,0,0,.16,0Z" transform="translate(0 -1.24)" style="fill:#00cd78;opacity:0.550000011920929;isolation:isolate"/><path d="M682.75,80.67h-1.36a.67.67,0,0,0-.58.75.66.66,0,0,0,.58.58h1.36a.67.67,0,0,0,.75-.58.68.68,0,0,0-.59-.75A.43.43,0,0,0,682.75,80.67Z" transform="translate(0 -1.24)" style="fill:#00cd78;opacity:0.550000011920929;isolation:isolate"/><path d="M682.12,88.67h-1.37a.67.67,0,0,0-.67.65h0a.67.67,0,0,0,.67.67h1.36a.67.67,0,1,0,0-1.33Z" transform="translate(0 -1.24)" style="fill:#00cd78;opacity:0.550000011920929;isolation:isolate"/><path d="M665.75,88.67h-.67a.67.67,0,0,0,0,1.33h.67a.67.67,0,1,0,0-1.33Z" transform="translate(0 -1.24)" style="fill:#00cd78;opacity:0.550000011920929;isolation:isolate"/><path d="M250.75,91.25a.65.65,0,0,0,.34-.46c.08-.44,2-10.75.19-14.17a7.33,7.33,0,1,0-12.95,6.88c1.81,3.42,11.43,7.6,11.84,7.77A.66.66,0,0,0,250.75,91.25ZM242,74.77a6,6,0,0,1,8.11,2.48c1.21,2.28.39,9.13-.17,12.46-3.08-1.4-9.21-4.55-10.43-6.83a6,6,0,0,1,2.44-8.11Z" transform="translate(0 -1.24)" style="fill:#00cd78"/><path d="M246.75,78.22a2.66,2.66,0,1,0-1.1,3.61,2.66,2.66,0,0,0,1.1-3.61Zm-3.53,1.88a1.34,1.34,0,1,1,1.81.55h0a1.33,1.33,0,0,1-1.77-.55Z" transform="translate(0 -1.24)" style="fill:#00cd78"/><path d="M263.89,57.82a.69.69,0,0,0,.34-.44c.16-.74,1.59-7.29.3-9.71a5.33,5.33,0,1,0-9.42,5h0c1.29,2.42,7.52,4.91,8.22,5.18A.68.68,0,0,0,263.89,57.82ZM258,46.63a4,4,0,0,1,5.4,1.66c.8,1.49.18,5.76-.26,8-2.13-.89-6-2.77-6.8-4.27A4,4,0,0,1,258,46.63Z" transform="translate(0 -1.24)" style="fill:#00cd78"/><path d="M261.28,48.64a2,2,0,1,0-.83,2.7h0A2,2,0,0,0,261.28,48.64Zm-2.36,1.25a.68.68,0,0,1,.28-.91.67.67,0,0,1,.9.28.67.67,0,0,1-.27.91h0A.67.67,0,0,1,258.92,49.89Z" transform="translate(0 -1.24)" style="fill:#00cd78"/><path d="M264.55,60.49l.59-.31a.67.67,0,0,0-.63-1.18l-.58.31a.67.67,0,0,0,.62,1.18Z" transform="translate(0 -1.24)" style="fill:#00cd78"/><path d="M258.75,68.09l1.19-.64a.66.66,0,0,0-.62-1.17l-1.2.63a.67.67,0,0,0-.32.4.58.58,0,0,0,.05.5A.67.67,0,0,0,258.75,68.09Z" transform="translate(0 -1.24)" style="fill:#00cd78"/><path d="M265.06,64a.67.67,0,0,0,.9.28l1.2-.64a.67.67,0,0,0-.62-1.18l-1.2.64A.67.67,0,0,0,265.06,64Z" transform="translate(0 -1.24)" style="fill:#00cd78"/><path d="M261,62.4l1.2-.64a.67.67,0,0,0,.29-.89h0a.66.66,0,0,0-.91-.27h0l-1.19.63a.67.67,0,0,0,.5,1.24A.34.34,0,0,0,261,62.4Z" transform="translate(0 -1.24)" style="fill:#00cd78"/><path d="M255.57,90.17l-1.2.64A.67.67,0,0,0,255,92l1.2-.64a.67.67,0,0,0-.5-1.24Z" transform="translate(0 -1.24)" style="fill:#00cd78"/><path d="M256.3,67.6a.41.41,0,0,0,.11-.07.66.66,0,0,0,.1-.93h0a1.88,1.88,0,0,1-.16-.23,1.31,1.31,0,0,1-.15-.61.66.66,0,0,0-.68-.65.68.68,0,0,0-.66.68,2.67,2.67,0,0,0,.63,1.66A.66.66,0,0,0,256.3,67.6Z" transform="translate(0 -1.24)" style="fill:#00cd78"/><path d="M262.36,66.18l1.2-.64a.66.66,0,0,0-.62-1.17l-1.19.63a.67.67,0,0,0,.62,1.18Z" transform="translate(0 -1.24)" style="fill:#00cd78"/><path d="M257.35,64.31l1.2-.64a.66.66,0,1,0-.62-1.17l-1.2.63a.67.67,0,1,0,.5,1.24Z" transform="translate(0 -1.24)" style="fill:#00cd78"/><path d="M257,77.63h.15a.65.65,0,0,0,.33-.75,2.41,2.41,0,0,1,0-1,.67.67,0,0,0-.5-.81.67.67,0,0,0-.8.5v0a3.83,3.83,0,0,0,0,1.65.65.65,0,0,0,.78.49h0Z" transform="translate(0 -1.24)" style="fill:#00cd78"/><path d="M273.47,80.63c-.12.08-.24.16-.37.23l-.74.39a.67.67,0,0,0,.62,1.19h0l.76-.43a4.33,4.33,0,0,0,.51-.31.67.67,0,0,0,.08-.94.68.68,0,0,0-.85-.15Z" transform="translate(0 -1.24)" style="fill:#00cd78"/><path d="M270.65,73.33a4.69,4.69,0,0,0-1.3.46l-.15.08a.67.67,0,1,0,.5,1.24.34.34,0,0,0,.12-.06L270,75a3.07,3.07,0,0,1,.92-.33.62.62,0,0,0,.19-.07.65.65,0,0,0,.31-.81.67.67,0,0,0-.75-.43Z" transform="translate(0 -1.24)" style="fill:#00cd78"/><path d="M267.11,69.7a.67.67,0,0,0-.63-1.18l-1.2.64a.67.67,0,0,0,.63,1.18Z" transform="translate(0 -1.24)" style="fill:#00cd78"/><path d="M275.49,77a.66.66,0,0,0-.62.7h0a3.51,3.51,0,0,1-.12,1.12.69.69,0,0,0,.15.66.68.68,0,0,0,.65.18.65.65,0,0,0,.48-.48,4.62,4.62,0,0,0,.17-1.57A.68.68,0,0,0,275.49,77Z" transform="translate(0 -1.24)" style="fill:#00cd78"/><path d="M272.2,63.35a.68.68,0,0,0-.52.79,2,2,0,0,1-.05,1,.66.66,0,0,0,.42.84h0a.67.67,0,0,0,.84-.43,3.41,3.41,0,0,0,.09-1.68.68.68,0,0,0-.79-.52Z" transform="translate(0 -1.24)" style="fill:#00cd78"/><path d="M271,62.62a.66.66,0,0,0,.35-.63.65.65,0,0,0-.43-.58,3.39,3.39,0,0,0-1.67-.17.67.67,0,1,0,.21,1.32,2,2,0,0,1,1,.1A.68.68,0,0,0,271,62.62Z" transform="translate(0 -1.24)" style="fill:#00cd78"/><path d="M266.8,75.15l-1.2.63a.67.67,0,1,0,.5,1.24l.12-.06,1.2-.64a.66.66,0,0,0-.62-1.17Z" transform="translate(0 -1.24)" style="fill:#00cd78"/><path d="M270.08,66.61l-1.2.64a.66.66,0,0,0,.63,1.17h0l1.2-.63a.67.67,0,0,0-.63-1.18Z" transform="translate(0 -1.24)" style="fill:#00cd78"/><path d="M259.17,88.26l-1.2.64a.66.66,0,0,0,.62,1.17l1.2-.63a.67.67,0,0,0-.62-1.18Z" transform="translate(0 -1.24)" style="fill:#00cd78"/><path d="M273.75,73.79a.67.67,0,0,0-.62,1.18,3.24,3.24,0,0,1,.89.68.66.66,0,0,0,.93.1.69.69,0,0,0,.22-.33.67.67,0,0,0-.16-.66A4.77,4.77,0,0,0,273.75,73.79Z" transform="translate(0 -1.24)" style="fill:#00cd78"/><path d="M259.75,78.6a2.3,2.3,0,0,1-1-.21.67.67,0,0,0-.54,1.22,3.57,3.57,0,0,0,1.61.32.67.67,0,0,0,.58-.75.66.66,0,0,0-.58-.58Z" transform="translate(0 -1.24)" style="fill:#00cd78"/><path d="M262.75,86.35l-1.2.64a.66.66,0,1,0,.62,1.17l1.2-.63a.67.67,0,0,0-.5-1.24A.34.34,0,0,0,262.75,86.35Z" transform="translate(0 -1.24)" style="fill:#00cd78"/><path d="M270,82.52l-1.19.64a.67.67,0,1,0,.5,1.24.34.34,0,0,0,.12-.06l1.2-.64a.67.67,0,0,0,.29-.89h0A.7.7,0,0,0,270,82.52Z" transform="translate(0 -1.24)" style="fill:#00cd78"/><path d="M259.91,73.52a.67.67,0,0,0,.29-.89h0a.68.68,0,0,0-.9-.28l-1.2.64a.67.67,0,0,0,.5,1.24.34.34,0,0,0,.12-.06Z" transform="translate(0 -1.24)" style="fill:#00cd78"/><path d="M263.51,71.61a.67.67,0,0,0-.62-1.18l-1.21.64a.67.67,0,0,0,.63,1.18Z" transform="translate(0 -1.24)" style="fill:#00cd78"/><path d="M263.2,77.06l-1.2.64a.66.66,0,1,0,.63,1.17l1.19-.63a.67.67,0,0,0-.5-1.24A.34.34,0,0,0,263.2,77.06Z" transform="translate(0 -1.24)" style="fill:#00cd78"/><path d="M266.37,84.44l-1.2.63a.67.67,0,1,0,.5,1.24l.12-.06,1.2-.64a.66.66,0,0,0-.62-1.17Z" transform="translate(0 -1.24)" style="fill:#00cd78"/><path d="M251.91,92.11l-.59.32a.67.67,0,0,0-.29.89h0a.7.7,0,0,0,.91.28l.59-.32a.67.67,0,0,0-.63-1.18Z" transform="translate(0 -1.24)" style="fill:#00cd78"/><path d="M148,595.42a.68.68,0,0,0,.34-.47c.08-.43,2-10.74.19-14.16a7.33,7.33,0,0,0-12.95,6.88c1.82,3.42,11.43,7.59,11.84,7.77A.69.69,0,0,0,148,595.42Zm-8.76-16.49a6,6,0,0,1,8.11,2.49c1.22,2.28.39,9.12-.17,12.46-3.08-1.4-9.21-4.55-10.42-6.83a6,6,0,0,1,2.47-8.12Z" transform="translate(0 -1.24)" style="fill:#00cd78"/><path d="M144.13,582.39A2.67,2.67,0,1,0,143,586a2.67,2.67,0,0,0,1.11-3.61Zm-3.53,1.88a1.33,1.33,0,1,1,1.8.55,1.32,1.32,0,0,1-1.79-.53Z" transform="translate(0 -1.24)" style="fill:#00cd78"/><path d="M161.22,562a.69.69,0,0,0,.34-.44c.17-.74,1.59-7.29.3-9.72a5.33,5.33,0,1,0-9.42,5h0c1.29,2.42,7.52,4.91,8.22,5.18A.68.68,0,0,0,161.22,562Zm-5.94-11.19a4,4,0,0,1,5.41,1.66h0c.79,1.49.18,5.76-.27,8-2.13-.9-6-2.77-6.8-4.27a4,4,0,0,1,1.66-5.4Z" transform="translate(0 -1.24)" style="fill:#00cd78"/><path d="M158.61,552.81a2,2,0,1,0-.83,2.7h0A2,2,0,0,0,158.61,552.81Zm-2.36,1.25a.67.67,0,1,1,.91.26h0a.66.66,0,0,1-.9-.26Z" transform="translate(0 -1.24)" style="fill:#00cd78"/><path d="M161.88,564.66l.59-.32a.66.66,0,0,0-.62-1.17l-.59.31a.67.67,0,0,0,.62,1.18Z" transform="translate(0 -1.24)" style="fill:#00cd78"/><path d="M156.1,572.25l1.19-.63a.67.67,0,1,0-.62-1.18l-1.2.64a.66.66,0,0,0-.32.39.65.65,0,0,0,0,.51.66.66,0,0,0,.88.31Z" transform="translate(0 -1.24)" style="fill:#00cd78"/><path d="M162.39,568.16a.68.68,0,0,0,.9.28l1.2-.64a.67.67,0,0,0-.5-1.24l-.12.06-1.2.64a.67.67,0,0,0-.29.89Z" transform="translate(0 -1.24)" style="fill:#00cd78"/><path d="M158.28,566.57l1.2-.64a.67.67,0,0,0-.62-1.18l-1.2.64a.67.67,0,0,0,.62,1.18Z" transform="translate(0 -1.24)" style="fill:#00cd78"/><path d="M153.63,571.77l.12-.08a.64.64,0,0,0,.09-.91v0a1,1,0,0,1-.15-.24,1.25,1.25,0,0,1-.16-.6.67.67,0,0,0-.67-.65h0a.65.65,0,0,0-.65.65v0a2.69,2.69,0,0,0,.62,1.67A.66.66,0,0,0,153.63,571.77Z" transform="translate(0 -1.24)" style="fill:#00cd78"/><path d="M159.75,570.35l1.2-.64a.67.67,0,0,0-.63-1.18l-1.2.64a.67.67,0,0,0-.33.89.68.68,0,0,0,.89.33Z" transform="translate(0 -1.24)" style="fill:#00cd78"/><path d="M154.68,568.48l1.2-.64a.67.67,0,0,0-.5-1.24l-.12.06-1.2.64a.67.67,0,1,0,.5,1.24Z" transform="translate(0 -1.24)" style="fill:#00cd78"/><path d="M154.3,581.8l.15-.06a.67.67,0,0,0,.3-.74,2.41,2.41,0,0,1,0-1,.69.69,0,0,0-.2-.65.66.66,0,0,0-1.11.37,3.78,3.78,0,0,0,0,1.64.67.67,0,0,0,.81.49Z" transform="translate(0 -1.24)" style="fill:#00cd78"/><path d="M170.8,584.8a2.16,2.16,0,0,1-.36.22l-.74.4a.66.66,0,0,0,.62,1.17l.74-.39a4.33,4.33,0,0,0,.51-.31.67.67,0,0,0,.24-.92.66.66,0,0,0-.91-.24l-.1.07Z" transform="translate(0 -1.24)" style="fill:#00cd78"/><path d="M168,577.5a4.69,4.69,0,0,0-1.3.46l-.15.08a.67.67,0,1,0,.5,1.24l.12-.06.16-.08a3,3,0,0,1,.93-.33l.18-.07a.66.66,0,0,0-.44-1.24Z" transform="translate(0 -1.24)" style="fill:#00cd78"/><path d="M164.44,573.87a.7.7,0,0,0,.31-.87.67.67,0,0,0-.9-.27l-1.2.64a.66.66,0,0,0,.62,1.17Z" transform="translate(0 -1.24)" style="fill:#00cd78"/><path d="M172.82,581.15a.66.66,0,0,0-.62.7h0a3.51,3.51,0,0,1-.12,1.12.67.67,0,1,0,1.24.52.75.75,0,0,0,0-.16,4.39,4.39,0,0,0,.17-1.57A.67.67,0,0,0,172.82,581.15Z" transform="translate(0 -1.24)" style="fill:#00cd78"/><path d="M169.53,567.52a.72.72,0,0,0-.42.28.68.68,0,0,0-.1.5,2.11,2.11,0,0,1,0,1,.67.67,0,1,0,1.23.53.56.56,0,0,0,0-.12,3.41,3.41,0,0,0,.09-1.68.66.66,0,0,0-.28-.43A.73.73,0,0,0,169.53,567.52Z" transform="translate(0 -1.24)" style="fill:#00cd78"/><path d="M168.28,566.79a.67.67,0,0,0-.08-1.22,3.38,3.38,0,0,0-1.67-.16.67.67,0,0,0,.21,1.32,1.89,1.89,0,0,1,1,.1A.68.68,0,0,0,168.28,566.79Z" transform="translate(0 -1.24)" style="fill:#00cd78"/><path d="M164.13,579.31l-1.2.64a.67.67,0,0,0-.33.89.68.68,0,0,0,.89.33l.07,0,1.2-.64a.67.67,0,0,0-.63-1.18Z" transform="translate(0 -1.24)" style="fill:#00cd78"/><path d="M167.41,570.78l-1.2.63a.67.67,0,0,0,.63,1.18L168,572a.66.66,0,1,0-.63-1.17Z" transform="translate(0 -1.24)" style="fill:#00cd78"/><path d="M171.05,578a.67.67,0,0,0-.62,1.19,3.14,3.14,0,0,1,.9.68.64.64,0,0,0,.64.22.65.65,0,0,0,.5-.46.67.67,0,0,0-.16-.66A4.77,4.77,0,0,0,171.05,578Z" transform="translate(0 -1.24)" style="fill:#00cd78"/><path d="M157.12,582.77a2.14,2.14,0,0,1-1-.21.68.68,0,0,0-.89.33h0a.66.66,0,0,0,.34.88,3.89,3.89,0,0,0,1.61.32.67.67,0,0,0,.63-.69.64.64,0,0,0-.66-.64Z" transform="translate(0 -1.24)" style="fill:#00cd78"/><path d="M167.3,586.69l-1.2.64a.67.67,0,0,0,.62,1.18l1.2-.64a.67.67,0,0,0-.62-1.18Z" transform="translate(0 -1.24)" style="fill:#00cd78"/><path d="M157.24,577.69a.67.67,0,0,0-.62-1.18l-1.2.64a.67.67,0,0,0,.62,1.18Z" transform="translate(0 -1.24)" style="fill:#00cd78"/><path d="M160.84,575.78a.67.67,0,0,0-.5-1.24l-.12.06-1.2.64a.66.66,0,0,0,.62,1.17Z" transform="translate(0 -1.24)" style="fill:#00cd78"/><path d="M160.53,581.23l-1.2.63A.67.67,0,0,0,160,583l1.2-.64a.66.66,0,0,0-.63-1.17Z" transform="translate(0 -1.24)" style="fill:#00cd78"/><path d="M447.75,336.3a.68.68,0,0,0,.34-.47c.09-.44,2-10.74.19-14.16a7.33,7.33,0,1,0-12.95,6.88c1.82,3.42,11.43,7.59,11.84,7.77A.69.69,0,0,0,447.75,336.3ZM439,319.81a6,6,0,0,1,8.12,2.47h0c1.21,2.29.38,9.13-.18,12.46-3.07-1.39-9.21-4.54-10.42-6.83a6,6,0,0,1,2.47-8.11Z" transform="translate(0 -1.24)" style="fill:#00cd78"/><path d="M443.84,323.27a2.67,2.67,0,1,0-1.1,3.61h0A2.67,2.67,0,0,0,443.84,323.27Zm-3.53,1.88a1.33,1.33,0,1,1,1.8.55A1.34,1.34,0,0,1,440.31,325.15Z" transform="translate(0 -1.24)" style="fill:#00cd78"/><path d="M460.93,302.87a.68.68,0,0,0,.34-.45c.17-.74,1.59-7.28.31-9.71a5.33,5.33,0,0,0-9.42,5c1.29,2.43,7.51,4.91,8.22,5.19A.66.66,0,0,0,460.93,302.87ZM455,291.68a4,4,0,0,1,5.41,1.66h0c.79,1.49.18,5.76-.27,8-2.12-.9-6-2.78-6.8-4.27A4,4,0,0,1,455,291.68Z" transform="translate(0 -1.24)" style="fill:#00cd78"/><path d="M458.32,293.68a2,2,0,1,0-.83,2.71,2,2,0,0,0,.83-2.71ZM456,294.94a.67.67,0,0,1,.27-.91h0a.67.67,0,0,1,.91.27.67.67,0,1,1-1.18.64Z" transform="translate(0 -1.24)" style="fill:#00cd78"/><path d="M461.6,305.54l.58-.32a.67.67,0,0,0-.62-1.18l-.59.32a.67.67,0,0,0-.29.89h0A.7.7,0,0,0,461.6,305.54Z" transform="translate(0 -1.24)" style="fill:#00cd78"/><path d="M455.82,313.13l1.19-.63a.67.67,0,0,0-.63-1.18l-1.2.64a.66.66,0,0,0-.32.39.7.7,0,0,0,.05.51A.68.68,0,0,0,455.82,313.13Z" transform="translate(0 -1.24)" style="fill:#00cd78"/><path d="M462.11,309a.66.66,0,0,0,.89.27h0l1.2-.63a.68.68,0,0,0,.27-.91.67.67,0,0,0-.9-.27l-1.2.64a.66.66,0,0,0-.27.89Z" transform="translate(0 -1.24)" style="fill:#00cd78"/><path d="M458,307.45l1.2-.64a.67.67,0,0,0-.62-1.19h0l-1.2.64a.66.66,0,0,0-.27.89h0A.67.67,0,0,0,458,307.45Z" transform="translate(0 -1.24)" style="fill:#00cd78"/><path d="M452.61,335.22l-1.2.63A.67.67,0,0,0,452,337l1.2-.64a.66.66,0,1,0-.63-1.17Z" transform="translate(0 -1.24)" style="fill:#00cd78"/><path d="M453.34,312.65l.12-.08a.68.68,0,0,0,.09-.94.87.87,0,0,1-.16-.23,1.41,1.41,0,0,1-.16-.6.67.67,0,0,0-.58-.75.68.68,0,0,0-.75.59.43.43,0,0,0,0,.16,2.69,2.69,0,0,0,.62,1.67A.66.66,0,0,0,453.34,312.65Z" transform="translate(0 -1.24)" style="fill:#00cd78"/><path d="M459.41,311.23l1.2-.64a.67.67,0,0,0,.33-.89.68.68,0,0,0-.89-.33l-.07,0-1.2.64a.66.66,0,0,0-.27.89h0A.67.67,0,0,0,459.41,311.23Z" transform="translate(0 -1.24)" style="fill:#00cd78"/><path d="M454.4,309.36l1.2-.64a.67.67,0,0,0-.63-1.18l-1.2.64a.67.67,0,0,0,.63,1.18Z" transform="translate(0 -1.24)" style="fill:#00cd78"/><path d="M454,322.68a.44.44,0,0,0,.16-.06.67.67,0,0,0,.33-.75,2.41,2.41,0,0,1,0-1,.68.68,0,0,0-.5-.81.73.73,0,0,0-.36,0,.64.64,0,0,0-.44.51,3.5,3.5,0,0,0,0,1.64.71.71,0,0,0,.31.41A.62.62,0,0,0,454,322.68Z" transform="translate(0 -1.24)" style="fill:#00cd78"/><path d="M470.52,325.67a2.85,2.85,0,0,1-.37.23l-.74.4a.67.67,0,0,0-.29.89h0a.67.67,0,0,0,.9.27l.74-.39a5.58,5.58,0,0,0,.52-.32.67.67,0,0,0,.08-.94.68.68,0,0,0-.85-.15Z" transform="translate(0 -1.24)" style="fill:#00cd78"/><path d="M467.69,318.37a4.54,4.54,0,0,0-1.29.47l-.16.08a.66.66,0,0,0-.27.89h0a.67.67,0,0,0,.9.28L467,320a3.82,3.82,0,0,1,.93-.33l.18-.06a.66.66,0,0,0-.44-1.24Z" transform="translate(0 -1.24)" style="fill:#00cd78"/><path d="M464.15,314.74a.66.66,0,1,0-.62-1.17l-1.2.63a.67.67,0,0,0,.5,1.24.34.34,0,0,0,.12-.06Z" transform="translate(0 -1.24)" style="fill:#00cd78"/><path d="M472.53,322a.67.67,0,0,0-.62.71,3,3,0,0,1-.12,1.12.65.65,0,0,0,.16.65.66.66,0,0,0,.65.19.68.68,0,0,0,.48-.48,4.62,4.62,0,0,0,.16-1.57.66.66,0,0,0-.7-.62Z" transform="translate(0 -1.24)" style="fill:#00cd78"/><path d="M469.25,308.4a.66.66,0,0,0-.43.28.68.68,0,0,0-.09.5,2.12,2.12,0,0,1-.06,1,.67.67,0,0,0,1.22.54.34.34,0,0,0,.05-.14,3.27,3.27,0,0,0,.09-1.67.66.66,0,0,0-.28-.43A.67.67,0,0,0,469.25,308.4Z" transform="translate(0 -1.24)" style="fill:#00cd78"/><path d="M468,307.67a.66.66,0,0,0,.27-.91.69.69,0,0,0-.36-.31,3.38,3.38,0,0,0-1.67-.16.67.67,0,0,0-.55.76.68.68,0,0,0,.76.56,2,2,0,0,1,1,.09A.66.66,0,0,0,468,307.67Z" transform="translate(0 -1.24)" style="fill:#00cd78"/><path d="M463.84,320.19l-1.2.64a.67.67,0,0,0,.63,1.18l1.2-.64a.67.67,0,0,0-.63-1.18Z" transform="translate(0 -1.24)" style="fill:#00cd78"/><path d="M467.13,311.65l-1.2.64a.67.67,0,1,0,.5,1.24l.12-.06,1.2-.64a.67.67,0,0,0,.29-.89h0A.67.67,0,0,0,467.13,311.65Z" transform="translate(0 -1.24)" style="fill:#00cd78"/><path d="M456.21,333.3l-1.2.64a.67.67,0,0,0,.63,1.18l1.2-.64a.66.66,0,0,0,.27-.89h0A.67.67,0,0,0,456.21,333.3Z" transform="translate(0 -1.24)" style="fill:#00cd78"/><path d="M470.75,318.83a.67.67,0,0,0-.9.28.66.66,0,0,0,.27.89h0a3.49,3.49,0,0,1,.89.69.65.65,0,0,0,.64.22.68.68,0,0,0,.51-.46.67.67,0,0,0-.17-.66A4.72,4.72,0,0,0,470.75,318.83Z" transform="translate(0 -1.24)" style="fill:#00cd78"/><path d="M456.84,323.64a2.32,2.32,0,0,1-1-.2.67.67,0,0,0-.88.33.68.68,0,0,0,.33.89,3.91,3.91,0,0,0,1.62.32.67.67,0,1,0,0-1.34Z" transform="translate(0 -1.24)" style="fill:#00cd78"/><path d="M459.81,331.39l-1.2.64a.67.67,0,0,0,.5,1.24l.12-.06,1.21-.64a.66.66,0,0,0,.27-.89h0A.67.67,0,0,0,459.81,331.39Z" transform="translate(0 -1.24)" style="fill:#00cd78"/><path d="M467,327.57l-1.2.64a.66.66,0,1,0,.62,1.17h0l1.21-.63a.67.67,0,0,0-.63-1.18Z" transform="translate(0 -1.24)" style="fill:#00cd78"/><path d="M457,318.57a.67.67,0,0,0-.63-1.18l-1.2.64a.66.66,0,0,0,.63,1.17Z" transform="translate(0 -1.24)" style="fill:#00cd78"/><path d="M460.56,316.65a.66.66,0,1,0-.63-1.17l-1.2.63a.67.67,0,0,0-.33.89.68.68,0,0,0,.89.33l.07,0Z" transform="translate(0 -1.24)" style="fill:#00cd78"/><path d="M460.24,322.11l-1.19.63a.67.67,0,0,0,.5,1.24l.12-.06,1.2-.64a.67.67,0,0,0,.29-.89h0a.66.66,0,0,0-.91-.27Z" transform="translate(0 -1.24)" style="fill:#00cd78"/><path d="M463.41,329.48l-1.2.64a.67.67,0,0,0-.33.89.68.68,0,0,0,.89.33l.07,0,1.2-.64a.67.67,0,0,0-.62-1.19Z" transform="translate(0 -1.24)" style="fill:#00cd78"/><path d="M449,337.16l-.59.31a.67.67,0,0,0,.63,1.18l.59-.31a.67.67,0,0,0,.33-.89.68.68,0,0,0-.89-.33Z" transform="translate(0 -1.24)" style="fill:#00cd78"/><path d="M510.53,559.06a.66.66,0,0,0,.56-.13c.35-.27,8.55-6.8,9.42-10.58a7.34,7.34,0,0,0-14.3-3.28c-.86,3.78,3.67,13.23,3.87,13.63A.64.64,0,0,0,510.53,559.06Zm4.22-18.19a6,6,0,0,1,4.51,7.19h0c-.58,2.52-5.69,7.15-8.29,9.3-1.41-3.07-4-9.46-3.41-12A6,6,0,0,1,514.75,540.87Z" transform="translate(0 -1.24)" style="fill:#00cd78"/><path d="M516.11,546.66a2.67,2.67,0,1,0-3.2,2h0A2.66,2.66,0,0,0,516.11,546.66Zm-3.9-.89a1.33,1.33,0,0,1,2.59.59,1.33,1.33,0,0,1-1.59,1h0a1.34,1.34,0,0,1-1-1.59Z" transform="translate(0 -1.24)" style="fill:#00cd78"/><path d="M542.39,542.43a.69.69,0,0,0,.54-.11c.61-.45,6-4.47,6.59-7.14a5.33,5.33,0,1,0-10.39-2.39c-.62,2.68,2.46,8.63,2.82,9.3A.63.63,0,0,0,542.39,542.43Zm2.83-12.34a4,4,0,0,1,3,4.79c-.37,1.65-3.63,4.47-5.45,5.89-1-2.07-2.72-6-2.34-7.68a4,4,0,0,1,4.79-3Z" transform="translate(0 -1.24)" style="fill:#00cd78"/><path d="M546.42,533.78a2,2,0,1,0-2.4,1.5h0A2,2,0,0,0,546.42,533.78Zm-2.59-.59a.66.66,0,1,1,.5.79A.66.66,0,0,1,543.83,533.19Z" transform="translate(0 -1.24)" style="fill:#00cd78"/><path d="M541.14,544.88l.65.15a.67.67,0,1,0,.42-1.27l-.12,0-.65-.15a.67.67,0,0,0-.75.58A.65.65,0,0,0,541.14,544.88Z" transform="translate(0 -1.24)" style="fill:#00cd78"/><path d="M531.8,546.84l1.31.3a.66.66,0,0,0,.8-.49h0a.67.67,0,0,0-.5-.8l-1.32-.3a.64.64,0,0,0-.5.09.66.66,0,0,0-.3.41.67.67,0,0,0,.51.8Z" transform="translate(0 -1.24)" style="fill:#00cd78"/><path d="M539.23,547.86a.67.67,0,0,0,.5.8l1.33.31a.67.67,0,1,0,.43-1.27l-.14,0-1.32-.31A.68.68,0,0,0,539.23,547.86Z" transform="translate(0 -1.24)" style="fill:#00cd78"/><path d="M537.17,544l1.32.31a.67.67,0,0,0,.74-.59.66.66,0,0,0-.48-.72l-1.32-.3A.67.67,0,1,0,537,544l.12,0Z" transform="translate(0 -1.24)" style="fill:#00cd78"/><path d="M514.92,561.43l-1.33-.3a.67.67,0,0,0-.43,1.27l.14,0,1.32.31a.67.67,0,0,0,.3-1.31Z" transform="translate(0 -1.24)" style="fill:#00cd78"/><path d="M530.25,544.86h.13a.68.68,0,0,0,.68-.66,1.22,1.22,0,0,1,0-.27,1.27,1.27,0,0,1,.27-.56.67.67,0,0,0,.1-.94.68.68,0,0,0-.95-.1.65.65,0,0,0-.15.18,2.69,2.69,0,0,0-.62,1.67A.66.66,0,0,0,530.25,544.86Z" transform="translate(0 -1.24)" style="fill:#00cd78"/><path d="M535.75,547.75l1.33.31a.67.67,0,1,0,.42-1.27l-.12,0-1.33-.31a.67.67,0,0,0-.75.58A.65.65,0,0,0,535.75,547.75Z" transform="translate(0 -1.24)" style="fill:#00cd78"/><path d="M533.2,543.06l1.32.3a.66.66,0,0,0,.8-.49h0a.67.67,0,0,0-.5-.8l-1.33-.3a.67.67,0,0,0-.74.59A.68.68,0,0,0,533.2,543.06Z" transform="translate(0 -1.24)" style="fill:#00cd78"/><path d="M524.18,552.88h.16a.65.65,0,0,0,.74-.35,2.35,2.35,0,0,1,.67-.8.68.68,0,0,0,.28-.62.69.69,0,0,0-.41-.54.67.67,0,0,0-.67.1,3.78,3.78,0,0,0-1.06,1.26.65.65,0,0,0,0,.51A.71.71,0,0,0,524.18,552.88Z" transform="translate(0 -1.24)" style="fill:#00cd78"/><path d="M534.75,566l-.43-.07-.82-.19a.67.67,0,1,0-.43,1.27l.14,0,.81.19.6.09a.67.67,0,0,0,.73-.59.68.68,0,0,0-.6-.73Z" transform="translate(0 -1.24)" style="fill:#00cd78"/><path d="M537.34,558.58a4.55,4.55,0,0,0-1.28-.5h-.17a.67.67,0,1,0-.42,1.27l.12,0h.17a3.15,3.15,0,0,1,.92.36l.18.07a.67.67,0,0,0,.77-.41A.66.66,0,0,0,537.34,558.58Z" transform="translate(0 -1.24)" style="fill:#00cd78"/><path d="M537,553.52a.67.67,0,0,0,.31-1.3h0l-1.32-.31a.67.67,0,1,0-.3,1.3Z" transform="translate(0 -1.24)" style="fill:#00cd78"/><path d="M538.61,564.51a.68.68,0,0,0-.94.13,3.34,3.34,0,0,1-.82.77.69.69,0,0,0-.31.6.67.67,0,0,0,.71.63.7.7,0,0,0,.34-.12,4.68,4.68,0,0,0,1.15-1.07A.68.68,0,0,0,538.61,564.51Z" transform="translate(0 -1.24)" style="fill:#00cd78"/><path d="M545.05,552.06a.7.7,0,0,0-.51-.07.71.71,0,0,0-.4.32,1.94,1.94,0,0,1-.7.72.67.67,0,1,0,.7,1.14A3.36,3.36,0,0,0,545.3,553a.66.66,0,0,0-.25-.9Z" transform="translate(0 -1.24)" style="fill:#00cd78"/><path d="M544.58,550.69a.7.7,0,0,0,.69-.25.71.71,0,0,0,.05-.73,3.56,3.56,0,0,0-1.16-1.22.67.67,0,0,0-.7,1.14,2,2,0,0,1,.69.73A.72.72,0,0,0,544.58,550.69Z" transform="translate(0 -1.24)" style="fill:#00cd78"/><path d="M533.24,557.43l-1.32-.3a.67.67,0,0,0-.75.58.65.65,0,0,0,.45.72l1.32.3a.67.67,0,0,0,.75-.58A.65.65,0,0,0,533.24,557.43Z" transform="translate(0 -1.24)" style="fill:#00cd78"/><path d="M541.32,553.13l-1.33-.3a.66.66,0,0,0-.8.49h0a.68.68,0,0,0,.5.8l1.33.3a.67.67,0,1,0,.42-1.27Z" transform="translate(0 -1.24)" style="fill:#00cd78"/><path d="M518.89,562.35l-1.32-.31a.67.67,0,0,0-.31,1.3h0l1.32.31a.67.67,0,1,0,.42-1.27Z" transform="translate(0 -1.24)" style="fill:#00cd78"/><path d="M539.37,560.94a.67.67,0,1,0-1.25.49,3.18,3.18,0,0,1,.23,1.1.68.68,0,0,0,.34.59.64.64,0,0,0,.68,0,.65.65,0,0,0,.31-.61A4.43,4.43,0,0,0,539.37,560.94Z" transform="translate(0 -1.24)" style="fill:#00cd78"/><path d="M525.69,555.45a2.26,2.26,0,0,1-.65-.82.66.66,0,0,0-.87-.33h0a.67.67,0,0,0-.33.89h0a3.75,3.75,0,0,0,1,1.3.67.67,0,0,0,.85-1Z" transform="translate(0 -1.24)" style="fill:#00cd78"/><path d="M522.86,563.26l-1.32-.3a.67.67,0,0,0-.8.5.66.66,0,0,0,.5.79l1.32.31a.67.67,0,1,0,.42-1.27Z" transform="translate(0 -1.24)" style="fill:#00cd78"/><path d="M530.8,565.08l-1.32-.3a.67.67,0,1,0-.42,1.27.53.53,0,0,0,.12,0l1.33.3a.66.66,0,0,0,.8-.49h0a.67.67,0,0,0-.51-.8Z" transform="translate(0 -1.24)" style="fill:#00cd78"/><path d="M529.1,551.7a.67.67,0,0,0,.8-.51h0a.66.66,0,0,0-.5-.79h0l-1.32-.31a.67.67,0,0,0-.31,1.3h0Z" transform="translate(0 -1.24)" style="fill:#00cd78"/><path d="M533.08,552.61a.67.67,0,0,0,.74-.59.68.68,0,0,0-.45-.71l-1.32-.31a.67.67,0,0,0-.31,1.3h0Z" transform="translate(0 -1.24)" style="fill:#00cd78"/><path d="M529.27,556.52l-1.32-.3a.67.67,0,0,0-.75.58.65.65,0,0,0,.45.72l1.32.3a.67.67,0,0,0,.75-.58A.65.65,0,0,0,529.27,556.52Z" transform="translate(0 -1.24)" style="fill:#00cd78"/><path d="M526.83,564.17l-1.32-.3a.66.66,0,0,0-.8.49h0a.67.67,0,0,0,.5.8l1.32.3a.67.67,0,0,0,.31-1.3Z" transform="translate(0 -1.24)" style="fill:#00cd78"/><path d="M510.88,560.51l-.65-.15a.67.67,0,0,0-.3,1.3l.65.15a.67.67,0,1,0,.42-1.27Z" transform="translate(0 -1.24)" style="fill:#00cd78"/><path d="M1000.42,266.19a.64.64,0,0,0,.57,0c.4-.2,9.64-5.15,11.18-8.7a7.33,7.33,0,0,0-13.42-5.84c-1.54,3.56,1.22,13.67,1.34,14.1A.65.65,0,0,0,1000.42,266.19Zm7.39-17.14a6,6,0,0,1,3.13,7.88c-1,2.38-6.88,6-9.83,7.65-.83-3.27-2.21-10-1.19-12.4a6,6,0,0,1,7.89-3.13Z" transform="translate(0 -1.24)" style="fill:#00cd78"/><path d="M1008.14,255a2.66,2.66,0,1,0-3.5,1.39A2.65,2.65,0,0,0,1008.14,255Zm-3.67-1.59a1.33,1.33,0,1,1,.7,1.76,1.34,1.34,0,0,1-.7-1.76Z" transform="translate(0 -1.24)" style="fill:#00cd78"/><path d="M1034.75,255.58a.68.68,0,0,0,.56,0c.68-.33,6.69-3.32,7.77-5.84a5.33,5.33,0,1,0-9.79-4.22c-1.09,2.52.86,8.93,1.09,9.66A.73.73,0,0,0,1034.75,255.58Zm5-11.63a4,4,0,0,1,2.09,5.25c-.67,1.56-4.39,3.75-6.43,4.81-.63-2.22-1.59-6.42-.92-8a4,4,0,0,1,5.26-2Z" transform="translate(0 -1.24)" style="fill:#00cd78"/><path d="M1040.29,247.8a2,2,0,1,0-2.63,1,2,2,0,0,0,2.63-1Zm-2.45-1.06a.67.67,0,1,1,.39,1,.66.66,0,0,1-.45-.83A.47.47,0,0,1,1037.84,246.74Z" transform="translate(0 -1.24)" style="fill:#00cd78"/><path d="M1033.09,257.77l.61.26a.67.67,0,0,0,.87-.34h0a.66.66,0,0,0-.34-.88l-.62-.26a.67.67,0,0,0-.52,1.23Z" transform="translate(0 -1.24)" style="fill:#00cd78"/><path d="M1023.54,258l1.24.53a.67.67,0,0,0,.92-.24.68.68,0,0,0-.24-.92l-.15-.06-1.25-.54a.65.65,0,0,0-.51,0,.7.7,0,0,0-.36.36A.68.68,0,0,0,1023.54,258Z" transform="translate(0 -1.24)" style="fill:#00cd78"/><path d="M1030.67,260.35a.68.68,0,0,0,.35.88l1.25.54a.67.67,0,0,0,.52-1.23l-1.24-.53A.66.66,0,0,0,1030.67,260.35Z" transform="translate(0 -1.24)" style="fill:#00cd78"/><path d="M1029.34,256.15l1.25.54a.67.67,0,0,0,.53-1.23l-1.25-.53a.66.66,0,0,0-.87.34h0A.66.66,0,0,0,1029.34,256.15Z" transform="translate(0 -1.24)" style="fill:#00cd78"/><path d="M1004.3,269.32l-1.24-.54a.67.67,0,0,0-.92.24.68.68,0,0,0,.24.92l.15.06,1.25.54a.67.67,0,0,0,.87-.34h0a.65.65,0,0,0-.33-.86Z" transform="translate(0 -1.24)" style="fill:#00cd78"/><path d="M1022.37,255.77l.14,0a.66.66,0,0,0,.78-.51h0a1.43,1.43,0,0,1,.09-.27,1.39,1.39,0,0,1,.37-.5.68.68,0,0,0,.09-.94.67.67,0,0,0-.94-.08A2.64,2.64,0,0,0,1022,255,.64.64,0,0,0,1022.37,255.77Z" transform="translate(0 -1.24)" style="fill:#00cd78"/><path d="M1027.28,259.62l1.25.54a.67.67,0,0,0,.52-1.23l-1.24-.54a.68.68,0,0,0-.88.35A.67.67,0,0,0,1027.28,259.62Z" transform="translate(0 -1.24)" style="fill:#00cd78"/><path d="M1025.6,254.54l1.25.54a.67.67,0,0,0,.87-.34h0a.66.66,0,0,0-.34-.88l-1.25-.53a.67.67,0,0,0-.92.24.68.68,0,0,0,.24.92Z" transform="translate(0 -1.24)" style="fill:#00cd78"/><path d="M1015,262.57l.14.08a.67.67,0,0,0,.79-.21,2.3,2.3,0,0,1,.81-.67.68.68,0,0,0,.38-.56.67.67,0,0,0-.62-.72.65.65,0,0,0-.38.09,3.69,3.69,0,0,0-1.27,1.05.68.68,0,0,0-.13.5A.66.66,0,0,0,1015,262.57Z" transform="translate(0 -1.24)" style="fill:#00cd78"/><path d="M1023,277.32l-.41-.14-.77-.34a.67.67,0,0,0-.53,1.23l.77.33a4.3,4.3,0,0,0,.57.2.67.67,0,0,0,.37-1.28Z" transform="translate(0 -1.24)" style="fill:#00cd78"/><path d="M1026.88,270.55a4.56,4.56,0,0,0-1.17-.72l-.16-.07a.67.67,0,0,0-.88.35.65.65,0,0,0,.33.86h0l.16.07a3.67,3.67,0,0,1,.84.52.54.54,0,0,0,.16.1.65.65,0,0,0,.83-.26.66.66,0,0,0-.13-.86Z" transform="translate(0 -1.24)" style="fill:#00cd78"/><path d="M1027.5,265.52a.67.67,0,0,0,.53-1.22l-1.25-.54a.67.67,0,0,0-.92.24.68.68,0,0,0,.24.92l.15.06Z" transform="translate(0 -1.24)" style="fill:#00cd78"/><path d="M1027.05,276.62a.66.66,0,0,0-.93,0h0a3.25,3.25,0,0,1-.95.6.66.66,0,0,0-.41.53.7.7,0,0,0,.26.63.67.67,0,0,0,.67.07,4.64,4.64,0,0,0,1.33-.85.66.66,0,0,0,.09-.93Z" transform="translate(0 -1.24)" style="fill:#00cd78"/><path d="M1035.64,265.52a.72.72,0,0,0-.49-.15.69.69,0,0,0-.45.24,2.11,2.11,0,0,1-.82.59.66.66,0,1,0,.48,1.24,3.29,3.29,0,0,0,1.36-1,.61.61,0,0,0,.15-.48A.68.68,0,0,0,1035.64,265.52Z" transform="translate(0 -1.24)" style="fill:#00cd78"/><path d="M1035.42,264.1a.67.67,0,0,0,.9-.83,3.39,3.39,0,0,0-.92-1.41.67.67,0,0,0-.94.05.66.66,0,0,0,0,.93h0a2,2,0,0,1,.55.85A.7.7,0,0,0,1035.42,264.1Z" transform="translate(0 -1.24)" style="fill:#00cd78"/><path d="M1023.05,268.68l-1.25-.53a.66.66,0,0,0-.52,1.22h0l1.24.54a.67.67,0,0,0,.57-1.21Z" transform="translate(0 -1.24)" style="fill:#00cd78"/><path d="M1031.75,265.91l-1.25-.54a.67.67,0,0,0-.53,1.23l1.25.53a.67.67,0,0,0,.92-.24.68.68,0,0,0-.24-.92Z" transform="translate(0 -1.24)" style="fill:#00cd78"/><path d="M1008.05,270.93l-1.25-.54a.67.67,0,0,0-.53,1.23l1.25.53a.67.67,0,0,0,.92-.24.68.68,0,0,0-.24-.92Z" transform="translate(0 -1.24)" style="fill:#00cd78"/><path d="M1028.44,273.24a.67.67,0,0,0-1.31.25,3.57,3.57,0,0,1,0,1.13.65.65,0,0,0,.23.64.63.63,0,0,0,.67.1.64.64,0,0,0,.41-.54A4.66,4.66,0,0,0,1028.44,273.24Z" transform="translate(0 -1.24)" style="fill:#00cd78"/><path d="M1016,265.38a2.38,2.38,0,0,1-.49-.93.65.65,0,0,0-.78-.49h0a.67.67,0,0,0-.48.81,3.65,3.65,0,0,0,.76,1.46.66.66,0,0,0,.93.06.64.64,0,0,0,.09-.91Z" transform="translate(0 -1.24)" style="fill:#00cd78"/><path d="M1011.75,272.54l-1.25-.54a.67.67,0,0,0-.53,1.23l1.25.54a.67.67,0,0,0,.57-1.21Z" transform="translate(0 -1.24)" style="fill:#00cd78"/><path d="M1019.27,275.77l-1.24-.54a.67.67,0,0,0-.53,1.23l1.25.53a.66.66,0,1,0,.52-1.22Z" transform="translate(0 -1.24)" style="fill:#00cd78"/><path d="M1020,262.29a.66.66,0,0,0,.55-1.21h0l-1.25-.54a.67.67,0,0,0-.52,1.23Z" transform="translate(0 -1.24)" style="fill:#00cd78"/><path d="M1023.75,263.91a.67.67,0,0,0,.87-.34h0a.66.66,0,0,0-.34-.88l-1.25-.53a.67.67,0,0,0-.92.24.68.68,0,0,0,.24.92l.15.06Z" transform="translate(0 -1.24)" style="fill:#00cd78"/><path d="M1019.31,267.07l-1.25-.54a.67.67,0,0,0-.53,1.23l1.25.54a.67.67,0,1,0,.57-1.21Z" transform="translate(0 -1.24)" style="fill:#00cd78"/><path d="M1015.53,274.16l-1.24-.54a.66.66,0,0,0-.87.33v0a.67.67,0,0,0,.34.87h0l1.24.54a.66.66,0,0,0,.87-.33v0a.65.65,0,0,0-.33-.86Z" transform="translate(0 -1.24)" style="fill:#00cd78"/><path d="M1000.5,267.67l-.61-.26a.67.67,0,0,0-.53,1.23l.61.26a.67.67,0,0,0,.88-.35A.68.68,0,0,0,1000.5,267.67Z" transform="translate(0 -1.24)" style="fill:#00cd78"/><path d="M1406.59,363.64a.67.67,0,0,0,.57-.07c.38-.23,9.28-5.77,10.57-9.42a7.33,7.33,0,0,0-13.82-4.9h0c-1.29,3.64,2.12,13.55,2.27,14A.69.69,0,0,0,1406.59,363.64Zm6.24-17.6a6,6,0,0,1,3.65,7.66c-.87,2.44-6.47,6.45-9.31,8.29-1.05-3.21-2.87-9.86-2-12.3a6,6,0,0,1,7.64-3.7h0Z" transform="translate(0 -1.24)" style="fill:#00cd78"/><path d="M1413.56,352a2.67,2.67,0,1,0-3.41,1.62h0a2.65,2.65,0,0,0,3.4-1.6Zm-3.77-1.33a1,1,0,1,1-.06,0s0,0,0-.06Z" transform="translate(0 -1.24)" style="fill:#00cd78"/><path d="M1440.15,350.79a.7.7,0,0,0,.55-.05c.66-.38,6.46-3.75,7.37-6.34a5.33,5.33,0,1,0-9.67-4.48,4.79,4.79,0,0,0-.33.92c-.92,2.58,1.46,8.85,1.73,9.56A.71.71,0,0,0,1440.15,350.79Zm4.24-11.94a4,4,0,0,1,2.43,5.11h0c-.57,1.59-4.13,4-6.1,5.22-.77-2.17-2-6.3-1.44-7.9a4,4,0,0,1,5.11-2.43Z" transform="translate(0 -1.24)" style="fill:#00cd78"/><path d="M1445.16,342.66a2,2,0,1,0-2.56,1.22,2,2,0,0,0,2.56-1.22Zm-2.52-.89a.67.67,0,0,1,.85-.42.69.69,0,0,1,.42.86.67.67,0,0,1-.85.41h0A.67.67,0,0,1,1442.64,341.77Z" transform="translate(0 -1.24)" style="fill:#00cd78"/><path d="M1438.63,353.08l.63.22a.69.69,0,1,0,.49-1.3l-.63-.22a.67.67,0,0,0-.44,1.26Z" transform="translate(0 -1.24)" style="fill:#00cd78"/><path d="M1429.12,354l1.27.45a.68.68,0,0,0,.86-.41.67.67,0,0,0-.41-.85l-1.28-.45a.67.67,0,0,0-.85.41A.69.69,0,0,0,1429.12,354Z" transform="translate(0 -1.24)" style="fill:#00cd78"/><path d="M1436.39,355.82a.67.67,0,0,0,.41.85l1.28.46a.67.67,0,1,0,.44-1.26l-1.28-.46A.67.67,0,0,0,1436.39,355.82Z" transform="translate(0 -1.24)" style="fill:#00cd78"/><path d="M1434.75,351.71l1.28.46a.67.67,0,1,0,.44-1.26l-1.28-.45a.67.67,0,0,0-.85.4.67.67,0,0,0,.41.85Z" transform="translate(0 -1.24)" style="fill:#00cd78"/><path d="M1410.67,366.5l-1.28-.45a.65.65,0,0,0-.84.41.65.65,0,0,0,.4.84l1.28.46a.68.68,0,0,0,.89-.33.67.67,0,0,0-.34-.89l-.11,0Z" transform="translate(0 -1.24)" style="fill:#00cd78"/><path d="M1427.81,351.8h.13a.67.67,0,0,0,.75-.57,2.68,2.68,0,0,1,.07-.27,1.42,1.42,0,0,1,.34-.53.66.66,0,0,0,0-.93h0a.66.66,0,0,0-.93,0h0a2.69,2.69,0,0,0-.81,1.58A.68.68,0,0,0,1427.81,351.8Z" transform="translate(0 -1.24)" style="fill:#00cd78"/><path d="M1433,355.31l1.28.45a.65.65,0,0,0,.84-.41.65.65,0,0,0-.4-.84l-1.28-.46a.67.67,0,0,0-.81.49.66.66,0,0,0,.37.77Z" transform="translate(0 -1.24)" style="fill:#00cd78"/><path d="M1431,350.35l1.28.45a.65.65,0,0,0,.84-.37v0a.67.67,0,0,0-.41-.85l-1.28-.46a.67.67,0,1,0-.44,1.26Z" transform="translate(0 -1.24)" style="fill:#00cd78"/><path d="M1420.86,359.07l.15.07a.68.68,0,0,0,.78-.26,2.19,2.19,0,0,1,.76-.72.67.67,0,0,0,.26-.91.65.65,0,0,0-.26-.26.69.69,0,0,0-.68,0,3.67,3.67,0,0,0-1.19,1.13.64.64,0,0,0-.1.5A.7.7,0,0,0,1420.86,359.07Z" transform="translate(0 -1.24)" style="fill:#00cd78"/><path d="M1429.8,373.26a2.77,2.77,0,0,1-.41-.12l-.79-.28a.68.68,0,0,0-.86.41.67.67,0,0,0,.41.85l.79.28a5.5,5.5,0,0,0,.58.16.66.66,0,1,0,.28-1.3Z" transform="translate(0 -1.24)" style="fill:#00cd78"/><path d="M1433.28,366.24a4.74,4.74,0,0,0-1.22-.64l-.16-.06a.67.67,0,0,0-.85.41.65.65,0,0,0,.37.84h0l.17.06a3.1,3.1,0,0,1,.86.46.76.76,0,0,0,.18.09.66.66,0,0,0,.62-1.16Z" transform="translate(0 -1.24)" style="fill:#00cd78"/><path d="M1433.57,361.18a.65.65,0,0,0,.84-.41.65.65,0,0,0-.4-.84h0l-1.28-.46a.67.67,0,0,0-.81.49.66.66,0,0,0,.37.77Z" transform="translate(0 -1.24)" style="fill:#00cd78"/><path d="M1433.85,372.29a.66.66,0,0,0-.93,0h0a3.16,3.16,0,0,1-.91.67.68.68,0,0,0-.3.91.65.65,0,0,0,.23.26.67.67,0,0,0,.67,0,4.34,4.34,0,0,0,1.27-.93A.66.66,0,0,0,1433.85,372.29Z" transform="translate(0 -1.24)" style="fill:#00cd78"/><path d="M1441.69,360.65a.74.74,0,0,0-.5-.12.71.71,0,0,0-.44.27,1.94,1.94,0,0,1-.78.64.67.67,0,1,0,.57,1.21,3.35,3.35,0,0,0,1.29-1.07.62.62,0,0,0,.12-.49A.72.72,0,0,0,1441.69,360.65Z" transform="translate(0 -1.24)" style="fill:#00cd78"/><path d="M1441.38,359.24a.67.67,0,0,0,.84-.88,3.34,3.34,0,0,0-1-1.35.69.69,0,0,0-.94.11.67.67,0,0,0,.11.94,2,2,0,0,1,.61.8A.6.6,0,0,0,1441.38,359.24Z" transform="translate(0 -1.24)" style="fill:#00cd78"/><path d="M1429.34,364.64l-1.28-.46a.67.67,0,0,0-.46,1.26h0l1.28.45a.66.66,0,1,0,.45-1.25Z" transform="translate(0 -1.24)" style="fill:#00cd78"/><path d="M1437.85,361.29l-1.28-.46a.67.67,0,0,0-.81.49.66.66,0,0,0,.37.77l1.28.46a.67.67,0,1,0,.44-1.26Z" transform="translate(0 -1.24)" style="fill:#00cd78"/><path d="M1414.51,367.86l-1.28-.45a.67.67,0,0,0-.81.49.66.66,0,0,0,.37.77l1.28.45a.67.67,0,0,0,.85-.4A.68.68,0,0,0,1414.51,367.86Z" transform="translate(0 -1.24)" style="fill:#00cd78"/><path d="M1435,368.82a.67.67,0,0,0-1.3.32v0a3.52,3.52,0,0,1,.09,1.12.67.67,0,0,0,.28.63.65.65,0,0,0,.67.06.68.68,0,0,0,.38-.57A4.68,4.68,0,0,0,1435,368.82Z" transform="translate(0 -1.24)" style="fill:#00cd78"/><path d="M1422.06,361.8a2.24,2.24,0,0,1-.54-.9.67.67,0,0,0-.85-.42h0a.65.65,0,0,0-.42.83h0a3.83,3.83,0,0,0,.85,1.41.68.68,0,0,0,.94,0A.66.66,0,0,0,1422.06,361.8Z" transform="translate(0 -1.24)" style="fill:#00cd78"/><path d="M1418.35,369.23l-1.28-.46a.67.67,0,0,0-.81.49.66.66,0,0,0,.37.77l1.28.45a.67.67,0,0,0,.85-.4.67.67,0,0,0-.41-.85Z" transform="translate(0 -1.24)" style="fill:#00cd78"/><path d="M1426,372l-1.28-.45a.68.68,0,0,0-.86.4.67.67,0,0,0,.41.85l1.28.46a.67.67,0,0,0,.85-.41A.68.68,0,0,0,1426,372Z" transform="translate(0 -1.24)" style="fill:#00cd78"/><path d="M1425.88,358.46a.68.68,0,0,0,.86-.41.67.67,0,0,0-.41-.85l-1.28-.45a.66.66,0,0,0-.85.39h0a.68.68,0,0,0,.4.85Z" transform="translate(0 -1.24)" style="fill:#00cd78"/><path d="M1429.75,359.82a.65.65,0,0,0,.84-.41.65.65,0,0,0-.4-.84h0l-1.28-.46a.67.67,0,0,0-.85.41.68.68,0,0,0,.4.85Z" transform="translate(0 -1.24)" style="fill:#00cd78"/><path d="M1425.5,363.27l-1.28-.45a.67.67,0,0,0-.45,1.26l1.28.45a.67.67,0,0,0,.45-1.26Z" transform="translate(0 -1.24)" style="fill:#00cd78"/><path d="M1422.2,370.59l-1.29-.45a.67.67,0,0,0-.85.41.66.66,0,0,0,.41.84h0l1.28.46a.67.67,0,0,0,.45-1.26Z" transform="translate(0 -1.24)" style="fill:#00cd78"/><path d="M1406.75,365.12l-.63-.23a.67.67,0,0,0-.85.41.67.67,0,0,0,.4.85l.63.22a.66.66,0,0,0,.85-.39h0a.65.65,0,0,0-.37-.84Z" transform="translate(0 -1.24)" style="fill:#00cd78"/><path d="M900.11,510.84a20,20,0,1,0-1.44,28.25,20,20,0,0,0,1.44-28.25Zm-28.7,25.92a18.67,18.67,0,1,1,26.37,1.31l0,0A18.66,18.66,0,0,1,871.41,536.76Z" transform="translate(0 -1.24)" style="fill:#00cd78"/><path d="M897.14,513.53a16,16,0,1,0-1.16,22.6h0A16,16,0,0,0,897.14,513.53Zm-22.3,21,1.47-1.33a.67.67,0,0,0,.05-.94.66.66,0,0,0-.94,0l-1.48,1.33a14.69,14.69,0,0,1,1-19.75l1.33,1.47a.67.67,0,0,0,.94.1.68.68,0,0,0,.1-.95l0,0L875.94,513a14.68,14.68,0,0,1,19.75,1l-1.47,1.33a.68.68,0,0,0-.09,1l0,0a.66.66,0,0,0,.93,0h0l1.48-1.33a14.69,14.69,0,0,1-1,19.75l-1.33-1.47a.67.67,0,0,0-1,.9l1.33,1.47a14.69,14.69,0,0,1-19.75-1Z" transform="translate(0 -1.24)" style="fill:#00cd78"/><path d="M891.57,530.23l-4.55-5a2,2,0,0,0-.27-2.28,2.15,2.15,0,0,0-.72-.51h0l.53-10.36a.67.67,0,0,0-.63-.71.68.68,0,0,0-.71.64l-.47,10.32h0a2,2,0,1,0,1.33,3.75l4.55,5a.66.66,0,0,0,.93,0h0A.72.72,0,0,0,891.57,530.23Zm-6.8-5.54a.65.65,0,0,1,0-.93h0a.66.66,0,0,1,.95.93h0a.66.66,0,0,1-.93.08.3.3,0,0,1-.08-.08Z" transform="translate(0 -1.24)" style="fill:#00cd78"/><path d="M1354.11,63.84a20,20,0,1,0-1.44,28.25,20,20,0,0,0,1.44-28.25Zm-28.7,25.92a18.67,18.67,0,1,1,26.37,1.31l0,0A18.66,18.66,0,0,1,1325.41,89.76Z" transform="translate(0 -1.24)" style="fill:#00cd78"/><path d="M1351.14,66.53a16,16,0,1,0-1.16,22.6h0A16,16,0,0,0,1351.14,66.53Zm-22.3,21,1.47-1.33a.66.66,0,0,0,0-.94.67.67,0,0,0-.94-.05l-1.48,1.33a14.69,14.69,0,0,1,1-19.75l1.33,1.47a.67.67,0,0,0,1-.89l-1.33-1.47a14.68,14.68,0,0,1,19.75,1l-1.47,1.33a.7.7,0,0,0,0,1,.66.66,0,0,0,.93,0h0l1.48-1.33a14.69,14.69,0,0,1-1,19.75l-1.33-1.47a.67.67,0,1,0-1,.9l1.33,1.47a14.69,14.69,0,0,1-19.75-.94Z" transform="translate(0 -1.24)" style="fill:#00cd78"/><path d="M1345.57,83.23l-4.55-5a2,2,0,0,0-.82-2.71l-.18-.08h0l.53-10.36a.67.67,0,0,0-.64-.69.66.66,0,0,0-.69.62l-.47,10.32h0a2,2,0,1,0,1.33,3.75l4.55,5a.66.66,0,0,0,.93,0h0A.68.68,0,0,0,1345.57,83.23Zm-6.8-5.54a.7.7,0,1,0-.06,0Z" transform="translate(0 -1.24)" style="fill:#00cd78"/><path d="M1162.59,342.6a20,20,0,1,0-1.44,28.25,20,20,0,0,0,1.44-28.25Zm-28.7,25.91a18.67,18.67,0,1,1,26.37,1.35,18.67,18.67,0,0,1-26.37-1.35Z" transform="translate(0 -1.24)" style="fill:#00cd78"/><path d="M1159.62,345.28a16,16,0,1,0-1.15,22.6,16,16,0,0,0,1.15-22.6Zm-22.3,21,1.43-1.28a.66.66,0,0,0,0-.93h0a.67.67,0,0,0-.94-.05l-1.47,1.33a14.68,14.68,0,0,1,1-19.75l1.32,1.48a.68.68,0,0,0,1,0l0,0a.66.66,0,0,0,0-.93h0l-1.33-1.47a14.68,14.68,0,0,1,19.75,1l-1.33,1.34a.66.66,0,0,0,0,.94.69.69,0,0,0,1,.05l1.47-1.33a14.69,14.69,0,0,1-1,19.75l-1.42-1.41a.67.67,0,0,0-1,.9l1.33,1.47a14.67,14.67,0,0,1-19.76-1.06Z" transform="translate(0 -1.24)" style="fill:#00cd78"/><path d="M1154.05,362l-4.55-5a2,2,0,0,0-.82-2.71l-.18-.08h0l.53-10.36a.67.67,0,0,0-.63-.69.66.66,0,0,0-.7.62h0l-.53,10.36h0a1.89,1.89,0,0,0-.77.43,2,2,0,0,0,2.1,3.32l4.55,5a.67.67,0,0,0,.94.05.65.65,0,0,0,.07-.93Zm-6.8-5.54a.66.66,0,0,1,.93-.95h0a.66.66,0,0,1,0,.93h0a.65.65,0,0,1-.93,0h0Z" transform="translate(0 -1.24)" style="fill:#00cd78"/><path d="M362.11,152.85a20,20,0,1,0-1.45,28.25h0A20,20,0,0,0,362.11,152.85Zm-28.7,25.91a18.67,18.67,0,1,1,26.37,1.31l0,0a18.66,18.66,0,0,1-26.34-1.34Z" transform="translate(0 -1.24)" style="fill:#00cd78"/><path d="M359.14,155.52a16,16,0,1,0-1.15,22.6,16,16,0,0,0,1.15-22.6Zm-22.3,21,1.47-1.33a.67.67,0,0,0-.89-1l-1.48,1.33a14.69,14.69,0,0,1,1-19.75l1.33,1.47a.67.67,0,0,0,.94.1.68.68,0,0,0,.1-1l0,0-1.33-1.47a14.69,14.69,0,0,1,19.75,1l-1.47,1.33a.68.68,0,0,0-.09,1l0,0a.66.66,0,0,0,.93,0h0l1.48-1.32a14.69,14.69,0,0,1-1,19.75l-1.33-1.48a.67.67,0,1,0-1,.9l1.33,1.47a14.69,14.69,0,0,1-19.75-1Z" transform="translate(0 -1.24)" style="fill:#00cd78"/><path d="M353.57,172.23l-4.55-5a2,2,0,0,0-.82-2.71l-.18-.08h0l.53-10.36a.67.67,0,0,0-.64-.69.66.66,0,0,0-.69.62l-.47,10.32h0a2,2,0,1,0,1.33,3.75l4.55,5a.67.67,0,0,0,.94,0A.68.68,0,0,0,353.57,172.23Zm-6.8-5.54a.67.67,0,0,1,1-.89.65.65,0,0,1,0,.93h0a.66.66,0,0,1-.93,0l0,0Z" transform="translate(0 -1.24)" style="fill:#00cd78"/><path d="M1465.84,542.84a20,20,0,1,0-1.44,28.25,20,20,0,0,0,1.44-28.25Zm-28.7,25.92a18.67,18.67,0,1,1,26.37,1.34,18.67,18.67,0,0,1-26.37-1.34Z" transform="translate(0 -1.24)" style="fill:#00cd78"/><path d="M1462.87,545.53a16,16,0,1,0-1.16,22.6h0A16,16,0,0,0,1462.87,545.53Zm-22.3,21,1.47-1.33a.66.66,0,0,0,0-.93h0a.66.66,0,0,0-.94,0l-1.47,1.33a14.68,14.68,0,0,1,1-19.75l1.32,1.47a.67.67,0,0,0,.94.1.68.68,0,0,0,.1-.95l0,0-1.33-1.47a14.68,14.68,0,0,1,19.75,1l-1.47,1.33a.69.69,0,0,0,0,1l0,0a.68.68,0,0,0,.95,0l1.47-1.33a14.69,14.69,0,0,1-1,19.75l-1.33-1.47a.67.67,0,0,0-1,.9l1.33,1.47a14.69,14.69,0,0,1-19.75-1Z" transform="translate(0 -1.24)" style="fill:#00cd78"/><path d="M1457.3,562.23l-4.55-5a2,2,0,0,0-.27-2.28,2.15,2.15,0,0,0-.72-.51h0l.53-10.36a.67.67,0,0,0-.63-.69.66.66,0,0,0-.7.62h0l-.53,10.36h0a1.87,1.87,0,0,0-.77.42,2,2,0,0,0,2.1,3.33l4.55,5a.66.66,0,0,0,.93,0h0A.66.66,0,0,0,1457.3,562.23Zm-6.8-5.54a.67.67,0,0,1,1-.89.68.68,0,0,1,0,1,.67.67,0,0,1-1,0Z" transform="translate(0 -1.24)" style="fill:#00cd78"/><path d="M34.84,7.84A20,20,0,1,0,33.4,36.09,20,20,0,0,0,34.84,7.84ZM6.14,33.76A18.67,18.67,0,1,1,32.51,35.1,18.67,18.67,0,0,1,6.14,33.76Z" transform="translate(0 -1.24)" style="fill:#00cd78"/><path d="M31.87,10.53a16,16,0,1,0-1.13,22.6h0A16,16,0,0,0,31.87,10.53Zm-22.3,21L11,30.2a.66.66,0,0,0,.06-.93h0a.66.66,0,0,0-.94,0L8.68,30.57a14.68,14.68,0,0,1,1-19.75L11,12.29a.67.67,0,0,0,.94.1.68.68,0,0,0,.1-1l0,0L10.67,9.93a14.68,14.68,0,0,1,19.75,1L29,12.26a.69.69,0,0,0-.05,1,.68.68,0,0,0,1,0l0,0,1.47-1.33a14.69,14.69,0,0,1-1,19.75L29,30.2a.67.67,0,0,0-1,.9l1.33,1.47a14.69,14.69,0,0,1-19.74-1Z" transform="translate(0 -1.24)" style="fill:#00cd78"/><path d="M26.3,27.23l-4.55-5A2,2,0,0,0,21.48,20a2,2,0,0,0-.73-.55h0L21.29,9a.67.67,0,0,0-.63-.69.66.66,0,0,0-.7.62h0l-.53,10.36h0a1.87,1.87,0,0,0-.77.42,2,2,0,0,0,2.09,3.38l4.55,5a.66.66,0,0,0,.93,0h0A.66.66,0,0,0,26.3,27.23Zm-6.8-5.54a.68.68,0,0,1,0-1,.67.67,0,0,1,.95,0l0,0a.68.68,0,0,1,0,.95.67.67,0,0,1-.95,0Z" transform="translate(0 -1.24)" style="fill:#00cd78"/><path d="M1076.63,500.72a2.53,2.53,0,1,0-3.53.58h0A2.54,2.54,0,0,0,1076.63,500.72Zm-2.83-2a1,1,0,0,1,1.67,1.1,1,1,0,0,1-1.39.29l-.06-.05a1,1,0,0,1-.22-1.37Z" transform="translate(0 -1.24)" style="fill:#09acfe;opacity:0.550000011920929;isolation:isolate"/><path d="M1084.09,520.17l.75-3.23,1.19-.46a3.68,3.68,0,0,0,2.12-2.15L1089,512a4.47,4.47,0,0,0,0-3.1.81.81,0,0,0-.33-.38,16.91,16.91,0,0,0-1.82-20.71.8.8,0,0,0-1.11,0,.78.78,0,0,0,0,1.1,15.33,15.33,0,0,1,1.24,19.39l-.39.52-1.83-.24a14.39,14.39,0,0,0,2.22-3.34v-.06a13.75,13.75,0,0,0-22-15.77h0a14.07,14.07,0,0,0-1.64,1.89c-.29.41-.57.84-.82,1.28l-.81-1.66.36-.53a15.36,15.36,0,0,1,18.8-5,.79.79,0,0,0,1-.38.8.8,0,0,0-.39-1h0a16.91,16.91,0,0,0-20.23,4.86.78.78,0,0,0-.46-.18,4.36,4.36,0,0,0-3,1l-1.9,1.53a3.66,3.66,0,0,0-1.36,2.7l-.06,1.27-2.75,1.71a.78.78,0,1,0,.82,1.33l2.63-1.62,2.35,2.57-9.64,8.35a.78.78,0,0,0-.09,1.1h0l.13.12a.78.78,0,0,0,1,0l8.81-7.64a16.87,16.87,0,0,0,18.46,15.09,17.69,17.69,0,0,0,2.06-.34l-4.54,10.74a.77.77,0,0,0,.27.93.51.51,0,0,0,.16.09.78.78,0,0,0,1-.42l4.85-11.8,3.17,1.4-.69,3a.81.81,0,0,0,.3.82,1.39,1.39,0,0,0,.28.12.76.76,0,0,0,1-.49A.32.32,0,0,0,1084.09,520.17Zm2.89-9.7a.78.78,0,0,0,.4-.05l.31-.13a2.78,2.78,0,0,1-.16,1.21l-.85,2.29a2.13,2.13,0,0,1-1.21,1.23l-1.28.49-3.81-1.68-.16-1a3,3,0,0,1,.53-2.18l1.1-1.53a.52.52,0,0,1,.6-.18l.18.07a1.85,1.85,0,0,0,1.47,1.1Zm-22.5-14.62,3.77,2.71a2.58,2.58,0,0,1,.59,3.59l-3.67,5.09a12.17,12.17,0,0,1-2.86-8.47,4.19,4.19,0,0,0,.79-.84l1.1-1.53a1.91,1.91,0,0,0,.28-.55Zm4.68,1.44-5.33-3.83a12.71,12.71,0,0,1,.76-1.2,12.94,12.94,0,0,1,1.11-1.34l7.56,3.08a17.8,17.8,0,0,1,6.71,4.82l5.33,6.19a12.58,12.58,0,0,1-.92,1.48,11.57,11.57,0,0,1-.89,1.1l-5.33-3.83a4.14,4.14,0,0,0-5.77.94l-3.83,5.33a13.34,13.34,0,0,1-1.19-.76,13.1,13.1,0,0,1-1.09-.88l3.82-5.33a4.14,4.14,0,0,0-.93-5.77Zm4.5,8.33a2.57,2.57,0,0,1,3.59-.59h0l3.77,2.71a1.8,1.8,0,0,0-.43.44l-1.1,1.53a4.24,4.24,0,0,0-.55,1,12.11,12.11,0,0,1-8.94,0Zm7.94-16.14a12.21,12.21,0,0,1,4.39,13.93l-4.83-5.61a19.38,19.38,0,0,0-7.31-5.25l-6.86-2.79a12.21,12.21,0,0,1,14.61-.28Zm-24.66,2.93,1.9-1.53a2.79,2.79,0,0,1,1.09-.54v.34a.76.76,0,0,0,.08.39l1.29,2.61a1.88,1.88,0,0,0,1.51,1l.12.15a.51.51,0,0,1,0,.62l-1.1,1.53a3,3,0,0,1-1.9,1.2l-1,.18-2.81-3.08.06-1.37a2.1,2.1,0,0,1,.76-1.5Zm8.61,19.4a15.33,15.33,0,0,1-6.36-11.88l1-.18a3.53,3.53,0,0,0,.54-.13,14,14,0,0,0,1.26,5.52,13.73,13.73,0,0,0,16.63,7.34,5.23,5.23,0,0,0,0,.56l.15,1a15.42,15.42,0,0,1-13.22-2.23Z" transform="translate(0 -1.24)" style="fill:#09acfe;opacity:0.550000011920929;isolation:isolate"/><path d="M1083.42,486.94h0a.78.78,0,0,0,1.08-.16v0a.78.78,0,0,0-.18-1.09h0a.78.78,0,0,0-1.09.18h0a.78.78,0,0,0,.16,1.08Z" transform="translate(0 -1.24)" style="fill:#09acfe;opacity:0.550000011920929;isolation:isolate"/><path d="M1161.63,84.72a2.53,2.53,0,1,0-3.53.58h0A2.54,2.54,0,0,0,1161.63,84.72Zm-2.83-2a1,1,0,0,1,1.67,1.1,1,1,0,0,1-1.39.29l-.06,0a1,1,0,0,1-.22-1.37Z" transform="translate(0 -1.24)" style="fill:#09acfe;opacity:0.550000011920929;isolation:isolate"/><path d="M1169.09,104.18l.75-3.24,1.19-.46a3.68,3.68,0,0,0,2.12-2.15L1174,96a4.47,4.47,0,0,0,0-3.1.81.81,0,0,0-.33-.38,16.91,16.91,0,0,0-1.82-20.71.78.78,0,1,0-1.11,1.11A15.33,15.33,0,0,1,1172,92.35l-.39.52-1.83-.24a14.39,14.39,0,0,0,2.22-3.34v-.06a13.75,13.75,0,0,0-22-15.77h0a14.07,14.07,0,0,0-1.64,1.89c-.29.41-.57.84-.82,1.28L1146.7,75l.36-.53a15.36,15.36,0,0,1,18.8-5,.79.79,0,0,0,1-.38.8.8,0,0,0-.39-1h0a16.91,16.91,0,0,0-20.23,4.86.78.78,0,0,0-.46-.18,4.36,4.36,0,0,0-3,1l-1.9,1.53a3.66,3.66,0,0,0-1.36,2.7l-.06,1.27-2.75,1.7a.78.78,0,0,0-.26,1.07.93.93,0,0,0,.21.23.81.81,0,0,0,.87,0l2.63-1.62,2.35,2.57-9.64,8.35a.78.78,0,0,0-.09,1.1h0l.13.12a.77.77,0,0,0,1,0l8.81-7.63a16.87,16.87,0,0,0,18.46,15.09,17.69,17.69,0,0,0,2.06-.34l-4.54,10.81a.77.77,0,0,0,.27.93.51.51,0,0,0,.16.09.78.78,0,0,0,1-.42l4.85-11.8,3.17,1.4-.69,3a.81.81,0,0,0,.3.82,1.39,1.39,0,0,0,.28.12.78.78,0,0,0,1-.5A.64.64,0,0,1,1169.09,104.18Zm2.89-9.71a.9.9,0,0,0,.4,0l.31-.13a2.78,2.78,0,0,1-.16,1.21l-.85,2.29a2.07,2.07,0,0,1-1.21,1.23l-1.28.49-3.81-1.68-.16-1a3,3,0,0,1,.53-2.19l1.1-1.53a.52.52,0,0,1,.6-.18l.18.07a1.85,1.85,0,0,0,1.47,1.1Zm-22.5-14.62,3.77,2.71a2.58,2.58,0,0,1,.59,3.59l-3.67,5.09a12.17,12.17,0,0,1-2.86-8.47,4.19,4.19,0,0,0,.79-.84l1.1-1.53A1.91,1.91,0,0,0,1149.48,79.85Zm4.68,1.44-5.33-3.83a12.71,12.71,0,0,1,.76-1.2,12.94,12.94,0,0,1,1.11-1.34l7.56,3.08a17.8,17.8,0,0,1,6.71,4.82L1170.3,89a12.58,12.58,0,0,1-.92,1.48,11.57,11.57,0,0,1-.89,1.1l-5.33-3.83a4.14,4.14,0,0,0-5.77.94L1153.56,94a13.34,13.34,0,0,1-1.19-.76,13.1,13.1,0,0,1-1.09-.88l3.82-5.33a4.14,4.14,0,0,0-.93-5.77Zm4.5,8.33a2.57,2.57,0,0,1,3.59-.59h0l3.77,2.71a1.8,1.8,0,0,0-.43.44l-1.1,1.53a4.24,4.24,0,0,0-.55,1,12.11,12.11,0,0,1-8.94,0Zm7.94-16.14A12.21,12.21,0,0,1,1171,87.41l-4.83-5.61a19.3,19.3,0,0,0-7.31-5.25L1152,73.76A12.21,12.21,0,0,1,1166.6,73.48Zm-24.66,2.93,1.9-1.53a2.79,2.79,0,0,1,1.09-.54v.34a.76.76,0,0,0,.08.39l1.29,2.61a1.88,1.88,0,0,0,1.51,1l.12.15a.51.51,0,0,1,0,.62l-1.1,1.53a3,3,0,0,1-1.9,1.2l-1,.18-2.81-3.08.06-1.37A2.1,2.1,0,0,1,1141.94,76.41Zm8.61,19.4a15.33,15.33,0,0,1-6.36-11.88l1-.18a3.53,3.53,0,0,0,.54-.13,14,14,0,0,0,1.26,5.52,13.75,13.75,0,0,0,16.63,7.35,5,5,0,0,0,0,.55l.15,1a15.43,15.43,0,0,1-13.22-2.23Z" transform="translate(0 -1.24)" style="fill:#09acfe;opacity:0.550000011920929;isolation:isolate"/><path d="M222.24,359.67l.75-3.23,1.19-.46a3.68,3.68,0,0,0,2.12-2.15l.85-2.29a4.47,4.47,0,0,0,0-3.1.84.84,0,0,0-.34-.38A16.91,16.91,0,0,0,225,327.35a.8.8,0,0,0-1.11,0,.77.77,0,0,0,0,1.09h0a15.31,15.31,0,0,1,1.23,19.39,6.41,6.41,0,0,1-.39.52l-1.83-.24a11.45,11.45,0,0,0,1-1.19,12.53,12.53,0,0,0,1.27-2.15.06.06,0,0,0,0-.06A13.75,13.75,0,0,0,203.22,329h0a14.07,14.07,0,0,0-1.64,1.89,13.32,13.32,0,0,0-.83,1.28l-.8-1.66c.11-.18.24-.36.36-.53a15.36,15.36,0,0,1,18.8-5,.75.75,0,1,0,.61-1.38,16.89,16.89,0,0,0-20.22,4.86.8.8,0,0,0-.47-.18,4.41,4.41,0,0,0-3,1l-1.89,1.53a3.57,3.57,0,0,0-1.36,2.7l-.06,1.27-2.83,1.74a.78.78,0,0,0-.27,1.07h0a.8.8,0,0,0,.22.23.75.75,0,0,0,.86,0l2.64-1.62,2.34,2.57L186,347a.78.78,0,0,0-.08,1.1h0l.12.12a.77.77,0,0,0,1-.05l8.81-7.63a16.88,16.88,0,0,0,18.48,15.09,17.53,17.53,0,0,0,2-.34L212,366.08a.79.79,0,0,0,.26.94l.17.08a.78.78,0,0,0,1-.42l4.84-11.8,3.17,1.4-.68,3a.8.8,0,0,0,.29.82,1.39,1.39,0,0,0,.28.12A.77.77,0,0,0,222.24,359.67Zm2.89-9.7a.82.82,0,0,0,.41-.05l.31-.13a2.94,2.94,0,0,1-.17,1.21l-.84,2.29a2.13,2.13,0,0,1-1.21,1.23l-1.28.49-3.81-1.68-.16-1a3,3,0,0,1,.52-2.18l1.11-1.53a.5.5,0,0,1,.59-.18l.19.07a1.85,1.85,0,0,0,1.47,1.1Zm-22.5-14.62,3.77,2.71a2.58,2.58,0,0,1,.59,3.59l-3.67,5.09a12.22,12.22,0,0,1-2.86-8.47,4.55,4.55,0,0,0,.8-.84l1.09-1.53A1.91,1.91,0,0,0,202.63,335.35Zm4.69,1.44L202,333a9.27,9.27,0,0,1,.75-1.2c.35-.47.72-.91,1.11-1.34l7.56,3.08a17.83,17.83,0,0,1,6.72,4.82l5.33,6.19a17.37,17.37,0,0,1-.92,1.48c-.28.38-.58.75-.89,1.1l-5.33-3.83a4.15,4.15,0,0,0-5.78.94l-3.79,5.29c-.39-.23-.8-.48-1.19-.76a12,12,0,0,1-1.09-.88l3.83-5.33A4.14,4.14,0,0,0,207.32,336.79Zm4.5,8.33a2.56,2.56,0,0,1,3.57-.6h0l3.78,2.71a1.84,1.84,0,0,0-.44.44l-1.09,1.53a3.75,3.75,0,0,0-.55,1,12.14,12.14,0,0,1-8.95,0ZM219.75,329a12.25,12.25,0,0,1,4.39,13.94l-4.83-5.62a19.3,19.3,0,0,0-7.31-5.25l-6.86-2.79A12.21,12.21,0,0,1,219.75,329Zm-24.66,2.93L197,330.4a2.83,2.83,0,0,1,1.1-.54v.33a.69.69,0,0,0,.08.4l1.28,2.61a1.89,1.89,0,0,0,1.52,1l.12.15a.51.51,0,0,1,0,.62L200,336.5a3,3,0,0,1-1.9,1.2l-1,.18-2.81-3.08.06-1.37a2.09,2.09,0,0,1,.77-1.52Zm8.61,19.4a15.31,15.31,0,0,1-6.36-11.88l1-.18a3.39,3.39,0,0,0,.55-.13,14,14,0,0,0,1.25,5.52A13.73,13.73,0,0,0,216.75,352a2.59,2.59,0,0,0,.05.56l.15,1a15.42,15.42,0,0,1-13.2-2.25Z" transform="translate(0 -1.24)" style="fill:#09acfe;opacity:0.550000011920929;isolation:isolate"/><path d="M1168.42,70.94h0a.78.78,0,0,0,1.08-.16v0a.78.78,0,0,0-.18-1.09h0a.78.78,0,0,0-1.09.18h0a.78.78,0,0,0,.16,1.08Z" transform="translate(0 -1.24)" style="fill:#09acfe;opacity:0.550000011920929;isolation:isolate"/></svg>