<svg width="100" height="100" viewBox="0 0 100 100" fill="none" xmlns="http://www.w3.org/2000/svg">
<path d="M91 58.9999C89.6299 57.027 87.1088 56.1894 85 56.9999C84.9133 56.1339 84.5068 54.7309 84 53.9999C82.3919 51.6721 79.2682 51.397 77 52.9999H76C75.8954 52.1843 75.4799 51.6936 75 50.9999C73.3879 48.6761 70.304 48.3718 68 49.9999C67.9741 50.0181 68.0238 49.9798 68 49.9999C67.99 50.008 68.0099 49.9909 68 49.9999C61.3098 55.6688 53.0899 61.9999 51 61.9999C49.4526 61.9999 44.7826 59.1463 41 56.9999C36.1768 54.2648 31.6137 51.2046 29 50.9999C24.0921 50.639 9.69464 59.9928 7.99995 60.9999C7.31093 61.4093 6.5957 62.3023 6.99995 62.9999C7.40421 63.6966 8.31093 63.4093 8.99995 62.9999C15.0996 59.3746 25.976 53.7539 29 53.9999C30.9774 54.1542 35.8648 56.654 40 58.9999C45.4554 62.094 48.8233 63.8437 51 63.9999C51.0945 64.0201 50.8994 63.9999 51 63.9999H61C62.8101 63.9999 65 66.1651 65 67.9999C65 69.8348 62.8111 70.9999 61 70.9999C60.986 70.9999 61.0139 70.9999 61 70.9999C60.979 71.0009 61.0209 70.9979 61 70.9999C60.9024 71.008 51.0017 71.6754 47 70.9999C43.2501 70.3668 39.0477 66.0433 39 65.9999C38.4045 65.4586 37.5317 65.3971 37 65.9999C36.4673 66.6028 36.4055 67.4606 37 67.9999C37.221 68.2006 42.4187 73.2267 47 73.9999C48.4965 74.252 50.8214 73.9999 53 73.9999C57.1301 73.9999 60.7301 74.0191 61 73.9999C61.0009 73.9999 60.999 73.9999 61 73.9999C64.3575 73.9425 67 71.4156 67 67.9999C67 64.55 64.4062 61.9999 61 61.9999H58C62.8889 58.8747 68.3341 53.4093 70 51.9999C70.9967 51.3124 72.3089 52.0039 73 52.9999C73.3375 53.4879 73.1035 54.4112 73 54.9999C72.8964 55.5887 73.4809 55.6582 73 55.9999C72.9751 56.0181 72.0238 55.9808 72 55.9999C71.9512 56.0393 72.0418 55.9556 72 55.9999C71.9741 56.0272 72.0238 55.9717 72 55.9999C71.9631 56.0453 72.0308 55.9515 72 55.9999C71.979 56.0332 72.0179 55.9657 72 55.9999C71.9741 56.0483 72.0199 56.9485 72 56.9999C71.985 57.0382 72.0119 56.9606 72 56.9999C71.985 57.0503 72.0099 56.9485 72 56.9999C71.992 57.0423 72.0039 56.9576 72 56.9999C71.995 57.0503 72 56.9495 72 56.9999C72 57.0453 71.996 56.9546 72 56.9999C72.0049 57.0483 71.991 56.9526 72 56.9999C72.0089 57.0483 71.985 57.9515 72 57.9999C72.0129 58.0433 71.983 57.9566 72 57.9999C72.0199 58.0493 71.9741 57.9526 72 57.9999C72.0179 58.0332 71.979 57.9667 72 57.9999C72.0039 58.006 71.996 57.9939 72 57.9999C72.0049 58.007 71.995 57.9939 72 57.9999C72.0149 58.0211 71.985 57.9798 72 57.9999C72.0487 58.0645 71.9422 57.9455 72 57.9999C72.0288 58.0272 72.9701 57.9757 73 57.9999C73.0557 58.0433 72.9402 57.9647 73 57.9999C73.0338 58.0201 72.9641 58.9838 73 58.9999C73.0657 59.0312 72.9313 58.9798 73 58.9999C73.0318 59.009 72.9681 58.9929 73 58.9999C73.0995 59.0221 72.8974 58.9989 73 58.9999C73.0049 58.9999 72.996 58.9999 73 58.9999C73.0129 58.9999 72.987 58.9999 73 58.9999C73.1105 58.9969 73.8914 59.0292 74 58.9999C74.0328 58.9909 73.9671 59.011 74 58.9999C74.1115 58.9606 73.8964 58.0685 74 57.9999L79 54.9999C79.9996 54.2962 81.304 54.9918 82 55.9999C82.3375 56.4859 82.1025 57.4142 82 57.9999C81.8974 58.5887 81.4829 58.6572 81 58.9999L80 59.9999C79.3458 60.4647 78.5419 61.3376 79 61.9999C79.2817 62.4062 80.5439 62.9999 81 62.9999C81.2867 62.9999 81.747 62.1794 82 61.9999L83 60.9999L86 59.9999C86.9977 59.2952 88.305 58.9978 89 59.9999C89.6969 61.0111 88.9977 62.2952 88 62.9999C87.999 63.0009 88.0019 62.9989 88 62.9999C72.2967 74.1622 54.6216 85.9677 52 85.9999C50.0514 85.9999 45.7996 83.2925 42 80.9999C37.7135 78.413 33.8596 76.3861 31 75.9999C25.2906 75.2327 15.9837 81.2327 15 81.9999C14.3667 82.4929 14.5141 84.3588 15 84.9999C15.4869 85.6421 16.3667 85.4929 17 84.9999C19.4105 83.1248 26.1665 78.4797 30 78.9999C32.2702 79.3064 36.3318 81.786 40 83.9999C44.5204 86.728 49.2548 88.9999 52 88.9999C56.7863 88.9999 84.5266 69.8894 90 65.9999C90.0826 65.9415 89.9332 66.0715 90 65.9999C92.0999 64.3204 92.5533 61.2562 91 58.9999Z" fill="#242723"/>
<path d="M39 32C44.7901 32 50 26.7901 50 21C50 15.2099 44.7891 11 39 11C33.2109 11 29 15.2099 29 21C29 26.7901 33.2099 32 39 32ZM39 14C43.1982 14 47 16.8028 47 21C47 25.1972 43.1972 29 39 29C34.8028 29 32 25.1972 32 21C32 16.8028 34.8028 14 39 14Z" fill="#242723"/>
<path d="M66 29C70.4114 29 74 25.4114 74 21C74 16.5886 70.4104 13 66 13C61.5896 13 58 16.5886 58 21C58 25.4114 61.5886 29 66 29ZM66 16C68.8319 16 71 18.1671 71 21C71 23.8329 68.8319 26 66 26C63.1681 26 61 23.8329 61 21C61 18.1671 63.1681 16 66 16Z" fill="#242723"/>
<path d="M42 44C42 49.7896 46.2111 55 52 55C57.7899 55 63 49.7896 63 44C63 38.2104 57.7899 34 52 34C46.2111 34 42 38.2104 42 44ZM53 37C57.1978 37 60 39.8024 60 44C60 48.1976 57.1968 52 53 52C48.8032 52 45 48.1976 45 44C45 39.8024 48.8022 37 53 37Z" fill="#242723"/>
</svg>
