<svg xmlns="http://www.w3.org/2000/svg" width="399.45" height="1000" viewBox="0 0 399.45 1000"><title>for-driver-road</title><path d="M260.64,466.59C203.3,439.75,169,410.93,152.69,375.87c-14.89-32-12.71-63.77-10.41-97.41C146.86,211.35,151.61,142,24.52,47l18-24C182.65,127.71,176.86,212.43,172.21,280.51c-4.3,62.76-7.4,108.12,101.15,158.9Z" style="fill:#09acfe"/><path d="M265.94,455.26,263,453.88l2.15-4.51,2.9,1.37Zm-10.16-4.9c-2.44-1.21-4.85-2.44-7.17-3.65l2.31-4.43c2.29,1.2,4.68,2.41,7.08,3.61Zm-14.27-7.44c-2.38-1.31-4.74-2.64-7-3.95l2.51-4.33c2.24,1.3,4.57,2.61,6.92,3.89Zm-13.94-8.08c-2.32-1.42-4.61-2.87-6.81-4.31l2.73-4.19c2.16,1.41,4.42,2.84,6.7,4.24ZM214.07,426c-2.24-1.57-4.44-3.17-6.54-4.75l3-4c2.05,1.55,4.2,3.12,6.4,4.65Zm-12.9-9.75c-2.12-1.73-4.19-3.51-6.16-5.27l3.34-3.72c1.91,1.71,3.92,3.43,6,5.12ZM189.1,405.43c-1.95-1.93-3.84-3.91-5.62-5.88l3.71-3.35c1.72,1.9,3.55,3.81,5.43,5.68Zm-10.89-12.08c-1.71-2.15-3.35-4.35-4.87-6.55l4.11-2.84c1.46,2.1,3,4.21,4.67,6.27Zm-9.28-13.42c-1.38-2.35-2.69-4.77-3.89-7.19l4.49-2.21c1.14,2.3,2.38,4.61,3.71,6.85Zm-7.22-14.67c-1-2.51-1.92-5.1-2.74-7.7l4.77-1.5c.78,2.48,1.66,4.95,2.62,7.35Zm-4.9-15.58c-.62-2.6-1.15-5.29-1.61-8l4.93-.82c.44,2.6,1,5.18,1.54,7.67Zm-2.71-16.07c-.27-2.6-.49-5.33-.65-8.09l5-.28c.15,2.68.37,5.32.64,7.84Zm-.93-16.19c0-1.13,0-2.26,0-3.39,0-1.56,0-3.12,0-4.69l5,.09c0,1.54,0,3.07,0,4.6,0,1.11,0,2.21,0,3.32Zm5.26-15.93-5-.21c.11-2.66.25-5.34.4-8l5,.29C158.68,296.21,158.54,298.86,158.43,301.49Zm.9-15.92-5-.33c.14-2,.27-3.95.41-5.94l.14-2.05,5,.34-.15,2.05C159.6,281.63,159.46,283.61,159.33,285.57Zm1.07-16-5-.32q.26-4,.47-8l5,.26Q160.66,265.62,160.4,269.6Zm.83-16.06-5-.18c.1-2.78.16-5.38.2-7.94l5,.07C161.4,248.09,161.33,250.73,161.23,253.54Zm-4.77-16.06c0-2.67-.1-5.34-.21-7.92l5-.21c.1,2.63.18,5.35.21,8.07Zm-.67-15.82c-.2-2.65-.45-5.3-.75-7.87l5-.56c.3,2.63.56,5.34.76,8.05ZM154,206c-.4-2.61-.86-5.22-1.36-7.78l4.91-1c.51,2.62,1,5.3,1.39,8Zm-3-15.48c-.62-2.55-1.29-5.11-2-7.62l4.81-1.39c.74,2.59,1.44,5.22,2.07,7.84Zm-4.36-15.15c-.83-2.48-1.73-5-2.67-7.42l4.66-1.8c1,2.52,1.89,5.08,2.75,7.63Zm-5.66-14.73c-1-2.38-2.13-4.79-3.28-7.17l4.5-2.17c1.18,2.43,2.31,4.91,3.37,7.36Zm-6.85-14.21c-1.22-2.3-2.51-4.62-3.84-6.91l4.32-2.51c1.36,2.34,2.68,4.72,3.93,7.07Zm-7.93-13.67c-1.39-2.2-2.85-4.43-4.33-6.62l4.14-2.8c1.52,2.23,3,4.51,4.42,6.76Zm-8.88-13.1c-1.52-2.11-3.12-4.24-4.74-6.34l4-3.05c1.65,2.14,3.28,4.31,4.83,6.45Zm-9.67-12.54c-1.65-2-3.36-4.06-5.1-6.07l3.78-3.27c1.77,2,3.52,4.13,5.19,6.17Zm-10.36-12c-1.75-1.93-3.57-3.89-5.4-5.82l3.62-3.44c1.86,2,3.7,3.94,5.48,5.9ZM86.31,83.57c-1.83-1.85-3.74-3.73-5.65-5.58l3.47-3.6C86.07,76.27,88,78.17,89.86,80Zm-11.42-11C73,70.75,71,68.94,69,67.16l3.33-3.72c2,1.8,4,3.62,5.94,5.42ZM63.05,61.9q-3-2.57-6.06-5.16l3.21-3.83q3.12,2.61,6.12,5.21ZM50.85,51.68c-2-1.66-4.1-3.31-6.21-5l3.1-3.92q3.19,2.52,6.27,5Zm-12.5-9.87c-2.08-1.6-4.19-3.2-6.35-4.81l3-4q3.26,2.43,6.4,4.84Z" style="fill:#f2f4fa"/><path d="M48.56,959.61l-29.12-7.22C43.38,856,141,799.75,227.06,750.16,298.13,709.22,365.25,670.55,369.25,620c3.25-41.07-33.29-91.89-111.68-155.35l18.87-23.32C364.3,512.46,403.3,570,399.15,622.37c-5.24,66.29-79,108.79-157.11,153.78C161.13,822.76,69.42,875.59,48.56,959.61Z" style="fill:#09acfe"/><path d="M36.5,956.32l-4.85-1.21c.65-2.61,1.37-5.24,2.15-7.83l4.79,1.45C37.83,951.23,37.13,953.79,36.5,956.32ZM41,941.24l-4.71-1.67c.9-2.53,1.87-5.07,2.89-7.57l4.63,1.89C42.86,936.31,41.92,938.79,41,941.24Zm6-14.57-4.54-2.1c1.12-2.42,2.32-4.86,3.57-7.27l4.44,2.3C49.25,921.94,48.08,924.32,47,926.67Zm7.24-14L49.9,910.2c1.32-2.3,2.72-4.63,4.17-6.92l4.23,2.66C56.89,908.18,55.52,910.45,54.23,912.69Zm8.41-13.34-4.12-2.84c1.51-2.19,3.1-4.41,4.72-6.59l4,3C65.67,895,64.12,897.2,62.64,899.35Zm9.44-12.71-3.9-3.12c1.66-2.07,3.39-4.16,5.15-6.22l3.8,3.25C75.4,882.57,73.71,884.62,72.08,886.64Zm10.3-12-3.7-3.37c1.78-1.94,3.64-3.92,5.53-5.88l3.59,3.48C85.94,870.77,84.12,872.71,82.38,874.62Zm11-11.39-3.49-3.57c1.89-1.86,3.85-3.73,5.83-5.57l3.41,3.66C97.19,859.56,95.26,861.41,93.39,863.23ZM105,852.42l-3.32-3.74c2-1.75,4-3.52,6.09-5.28l3.23,3.81C109,849,107,850.7,105,852.42Zm12.12-10.28L114,838.26c2-1.66,4.15-3.35,6.29-5l3.09,3.93C121.24,838.83,119.15,840.5,117.14,842.14Zm12.53-9.81-3-4c2.14-1.62,4.29-3.21,6.46-4.8l2.95,4Q132.83,829.94,129.67,832.33Zm12.86-9.4-2.89-4.08q3.27-2.31,6.59-4.6l2.84,4.12Q145.77,820.64,142.53,822.93Zm13.14-9-2.79-4.16q3.35-2.22,6.7-4.43l2.74,4.19C160.09,811,157.87,812.42,155.67,813.9ZM169,805.17,166.33,801q3.38-2.16,6.78-4.3l2.66,4.24C173.51,802.31,171.26,803.74,169,805.17Zm13.55-8.49L180,792.42c2.28-1.41,4.57-2.8,6.86-4.19l2.59,4.27Q186,794.59,182.57,796.68Zm13.69-8.3-2.57-4.29c2.3-1.37,4.59-2.74,6.89-4.09l2.55,4.3Q199.68,786.33,196.26,788.38ZM210,780.25l-2.53-4.31,6.91-4,2.51,4.33Zm13.81-8-2.5-4.33,6.93-4,2.5,4.34Zm13.87-8-2.5-4.33,6.94-4,2.5,4.33Zm13.87-8-2.51-4.32,6.92-4,2.52,4.32Zm13.84-8.08-2.53-4.31,6.87-4.08,2.56,4.3Zm13.78-8.23-2.59-4.27q3.44-2.08,6.81-4.17l2.63,4.25Q282.63,737.82,279.18,739.91Zm13.66-8.44-2.67-4.23q3.4-2.15,6.72-4.29l2.72,4.19Q296.27,729.32,292.84,731.47Zm13.49-8.74-2.78-4.16q3.34-2.24,6.59-4.48l2.85,4.12C310.8,719.72,308.58,721.22,306.33,722.73Zm13.24-9.16-2.92-4.06c2.18-1.57,4.34-3.15,6.4-4.71l3,4C324,710.38,321.78,712,319.57,713.57Zm12.88-9.7L329.34,700c2.11-1.66,4.18-3.35,6.16-5l3.21,3.83C336.7,700.46,334.59,702.18,332.45,703.87Zm12.37-10.39-3.34-3.72c2-1.8,3.95-3.62,5.78-5.39l3.48,3.59C348.87,689.78,346.87,691.63,344.82,693.48Zm11.62-11.28-3.63-3.43c1.84-2,3.61-3.92,5.26-5.85l3.81,3.24C360.17,678.16,358.35,680.19,356.44,682.2ZM367,669.83l-4-3c1.6-2.11,3.12-4.26,4.52-6.39l4.18,2.75C370.23,665.39,368.65,667.63,367,669.83Zm8.93-13.65-4.37-2.42c1.27-2.29,2.44-4.63,3.47-6.94l4.56,2C378.48,651.3,377.25,653.76,375.91,656.18Zm6.67-14.94-4.74-1.61c.83-2.45,1.55-5,2.12-7.41l4.87,1.13C384.22,636,383.46,638.63,382.58,641.24Zm3.71-16-5-.64c.32-2.52.52-5.1.59-7.67l5,.13C386.85,619.84,386.63,622.59,386.29,625.28Zm-4.55-16c-.18-2.54-.49-5.13-.91-7.71l4.93-.81c.45,2.73.77,5.47,1,8.16Zm-2.5-15.33c-.61-2.47-1.35-5-2.18-7.5l4.74-1.57c.87,2.63,1.65,5.27,2.29,7.85Zm-4.89-14.84c-1-2.36-2-4.77-3.18-7.18l4.52-2.15c1.19,2.5,2.29,5,3.29,7.45Zm-6.74-14.19c-1.23-2.26-2.54-4.56-3.91-6.84l4.29-2.58c1.41,2.35,2.76,4.72,4,7Zm-8.11-13.53c-1.42-2.15-2.92-4.35-4.46-6.53l4.08-2.89c1.58,2.23,3.11,4.48,4.56,6.68Zm-9.14-12.91c-1.57-2.07-3.21-4.17-4.88-6.25l3.9-3.13c1.7,2.11,3.37,4.25,5,6.36Zm-9.92-12.38c-1.68-2-3.43-4-5.2-6l3.75-3.31c1.79,2,3.56,4.07,5.27,6.09Zm-10.53-11.89c-1.76-1.91-3.59-3.85-5.45-5.79l3.61-3.46c1.88,2,3.74,3.93,5.52,5.85Zm-11-11.48c-1.85-1.85-3.73-3.72-5.66-5.6l3.49-3.58c1.95,1.9,3.85,3.78,5.71,5.66Zm-11.4-11.12q-2.85-2.7-5.82-5.43l3.39-3.68q3,2.76,5.87,5.48Zm-11.72-10.79c-1.94-1.75-3.93-3.52-6-5.29l3.29-3.76c2,1.79,4,3.56,6,5.33Zm-12-10.52q-3-2.56-6.07-5.16l3.21-3.83q3.12,2.63,6.12,5.2ZM271.61,460q-3-2.5-6.18-5.05l3.15-3.88q3.15,2.55,6.21,5.07Z" style="fill:#f2f4fa"/><path d="M30,60A30,30,0,1,0,0,30,30,30,0,0,0,30,60Z" style="fill:#09acfe"/><path d="M20.83,23.52a2.68,2.68,0,0,1-2.68-2.69,2.7,2.7,0,0,1,2.68-2.68,2.69,2.69,0,0,1,0,5.37Zm0-10.19a7.48,7.48,0,0,0-7.5,7.5c0,5.62,7.5,13.94,7.5,13.94s7.5-8.32,7.5-13.94A7.47,7.47,0,0,0,20.83,13.33ZM39.17,23.52a2.69,2.69,0,1,1,2.68-2.69,2.65,2.65,0,0,1-.79,1.9A2.68,2.68,0,0,1,39.17,23.52Zm0-10.19a7.47,7.47,0,0,0-7.5,7.5c0,5.62,7.5,13.94,7.5,13.94s7.5-8.32,7.5-13.94A7.48,7.48,0,0,0,39.17,13.33Zm0,23.34A5,5,0,0,0,34.47,40H25.53a5,5,0,1,0-3,6.38,5.05,5.05,0,0,0,3-3.05h8.95A5,5,0,0,0,43.92,40,5,5,0,0,0,39.17,36.67Zm0,7.5a2.5,2.5,0,0,1-1.77-.74,2.5,2.5,0,0,1,3.53-3.53,2.51,2.51,0,0,1-1.76,4.27Z" style="fill:#fff"/><path d="M265,484a30,30,0,1,0-30-30A30,30,0,0,0,265,484Z" style="fill:#09acfe"/><path d="M248.33,454A16.67,16.67,0,1,1,265,470.67,16.72,16.72,0,0,1,248.33,454Zm15.79,2.15,6.8,4.18a1.26,1.26,0,1,0,1.31-2.15l-6.4-3.85v-7.41a1.25,1.25,0,0,0-1.25-1.25,1.27,1.27,0,0,0-1.26,1.25v7.81A1.64,1.64,0,0,0,264.12,456.15Z" style="fill:#fff"/><path d="M30,1000A30,30,0,1,0,0,970,30,30,0,0,0,30,1000Z" style="fill:#09acfe"/><path d="M40,967.92v8.33l2.13,2.15A1.67,1.67,0,0,1,41,981.25H19a1.67,1.67,0,0,1-1.17-2.85L20,976.25v-8.33c0-5.14,2.71-9.4,7.5-10.54v-1.13a2.48,2.48,0,0,1,2.48-2.5,2.52,2.52,0,0,1,2.52,2.5v1.13C37.27,958.52,40,962.8,40,967.92Zm-6.69,15a3.33,3.33,0,1,1-6.66,0Zm-12-25.45a1.65,1.65,0,0,0,.05-2.39,1.67,1.67,0,0,0-2.32,0,17.4,17.4,0,0,0-5.45,10.1,1.68,1.68,0,0,0,1.67,1.93,1.65,1.65,0,0,0,1.63-1.38A14,14,0,0,1,21.29,957.47Zm17.38-2.39a1.69,1.69,0,0,1,2.34,0,17.47,17.47,0,0,1,5.41,10.08,1.67,1.67,0,0,1-1.65,1.94,1.65,1.65,0,0,1-1.63-1.39,14.17,14.17,0,0,0-4.42-8.23A1.65,1.65,0,0,1,38.67,955.08Z" style="fill:#fff"/></svg>