<svg xmlns="http://www.w3.org/2000/svg" xmlns:xlink="http://www.w3.org/1999/xlink" viewBox="0 0 516 336.52"><defs><clipPath id="a" transform="translate(0 -14.76)"><rect y="85.57" width="516" height="265.7" style="fill:none"/></clipPath></defs><title>page-not-found-img</title><g style="clip-path:url(#a)"><path d="M25.9,333.82l22.18-35.18-22.19,39v4c-1.58,0-3.14-.08-4.69-.19L23,290l0-.4,0-.07.17-4.87L0,246.08,23.21,281l.07,1,1.36-38.92L4.71,203.21,24.8,236.27l.93-80.65v0l.45,63.59,19.05-25.45L26.18,224.68l-.09,34.83,17.67-33.63L26.08,264.63,26,284,51.7,237.16,26,290.76Z" transform="translate(0 -14.76)" style="fill:#d0cde1"/><path d="M337.12,185.31h-6.24v44.25h6.24Z" transform="translate(0 -14.76)" style="fill:#3f3d56"/><path d="M106.46,91.12l-2.34,5.78,230.67,93.62,2.34-5.78Z" transform="translate(0 -14.76)" style="fill:#3f3d56"/><path d="M516,339.68c-9.65,16.13-516.51,14.78-515.74,0C9.91,323.55,516.77,324.91,516,339.68Z" transform="translate(0 -14.76)" style="fill:#d0cde1"/><path d="M452.43,274.44H398.2v21.2h54.23Z" transform="translate(0 -14.76)" style="fill:#3f3d56"/><path d="M447.45,293.14H180v23.69H447.45Z" transform="translate(0 -14.76)" style="fill:#3f3d56"/><path d="M403.5,305H339.3V224.26h48L403.5,265Z" transform="translate(0 -14.76)" style="fill:#d0cde1"/><path d="M376.7,229.25H349.27v27.43H376.7Z" transform="translate(0 -14.76)" style="fill:#fff"/><path d="M397.27,257H379.82V229.56h7.48Z" transform="translate(0 -14.76)" style="fill:#fff"/><path d="M356.75,272.26h-6.23v11.85h6.23Z" transform="translate(0 -14.76)" style="fill:#3f3d56"/><path d="M385.11,247h.32a5.92,5.92,0,0,1,0,11.84h-.32Z" transform="translate(0 -14.76)" style="fill:#3f3d56"/><path d="M153.23,293.14h.31a5.93,5.93,0,0,1,0,11.85h-.31Z" transform="translate(0 -14.76)" style="fill:#3f3d56"/><path d="M428.44,293.05c9.49,0,18,4.61,24,11.94h12.18l-11.84-33-55.17-10.88L399.14,305h5.32C410.39,297.66,418.94,293.05,428.44,293.05Z" transform="translate(0 -14.76)" style="fill:#d0cde1"/><path d="M429.06,339.89a27.12,27.12,0,1,0-27.12-27.11A27.11,27.11,0,0,0,429.06,339.89Z" transform="translate(0 -14.76)" style="fill:#3f3d56"/><path d="M429.06,327.05a14.27,14.27,0,1,0-14.27-14.27A14.27,14.27,0,0,0,429.06,327.05Z" transform="translate(0 -14.76)" style="fill:#d0cde1"/><path d="M184.09,339.58A23.69,23.69,0,1,0,160.4,315.9,23.68,23.68,0,0,0,184.09,339.58Z" transform="translate(0 -14.76)" style="fill:#3f3d56"/><path d="M184.09,328.36a12.47,12.47,0,1,0-12.47-12.46A12.46,12.46,0,0,0,184.09,328.36Z" transform="translate(0 -14.76)" style="fill:#d0cde1"/><path d="M341.17,213H328.08v94.44h13.09Z" transform="translate(0 -14.76)" style="fill:#3f3d56"/><path d="M341.17,290.34H152.92V296H341.17Z" transform="translate(0 -14.76)" style="fill:#3f3d56"/><path d="M257.48,255.07,52.18,310.93l1.47,5.41L259,260.49Z" transform="translate(0 -14.76)" style="fill:#3f3d56"/><path d="M243.46,261.88,240,264.46l21.59,29.39,3.52-2.58Z" transform="translate(0 -14.76)" style="fill:#3f3d56"/><path d="M388.85,258.24h-6.23v2.49h6.23Z" transform="translate(0 -14.76)" style="fill:#3f3d56"/><path d="M334,276.94H252.34a.69.69,0,0,1-.41-.15.64.64,0,0,1-.2-.39.57.57,0,0,1,.09-.42.59.59,0,0,1,.34-.26L332,252a.67.67,0,0,1,.28,0,.69.69,0,0,1,.25.1.55.55,0,0,1,.19.21.61.61,0,0,1,.08.26l1.87,23.69a.54.54,0,0,1,0,.25.71.71,0,0,1-.13.22.8.8,0,0,1-.21.15A.7.7,0,0,1,334,276.94Zm-77.37-1.25h76.7l-1.76-22.25Z" transform="translate(0 -14.76)" style="fill:#3f3d56"/><path d="M112.88,249.51h0L95,249.34a.75.75,0,0,1-.26-.05.65.65,0,0,1-.21-.16.56.56,0,0,1-.12-.23.54.54,0,0,1,0-.25l9.3-81.13a.64.64,0,0,1,.2-.39.61.61,0,0,1,.42-.16h0a.62.62,0,0,1,.62.56l8.6,81.29a.57.57,0,0,1,0,.26.61.61,0,0,1-.13.22.65.65,0,0,1-.21.16A.74.74,0,0,1,112.88,249.51Zm-17.2-1.41,16.5.16-7.93-75Z" transform="translate(0 -14.76)" style="fill:#3f3d56"/><path d="M456.82,283.55l-.29.12a5.92,5.92,0,0,1-4.19-11.08l.29-.11Z" transform="translate(0 -14.76)" style="fill:#3f3d56"/><path d="M77.66,287.19l-17.39,4.87.77,2.76L78.43,290Z" transform="translate(0 -14.76)" style="fill:#3f3d56"/><path d="M203.57,252.69l-3.36,1.83L63.87,292.69l-2-2.52a29.92,29.92,0,0,1-6.48-15c-.51-4.11-.14-8.44,2.73-11.08l-5.21-42,75.41-21.21,35.76,15.39s13.7-4.09,23.78,3.13a22.63,22.63,0,0,1,7.94,10.76l1.65,4.76Z" transform="translate(0 -14.76)" style="fill:#09acfe"/><path d="M173.43,277.87A17.49,17.49,0,1,0,156,260.38,17.48,17.48,0,0,0,173.43,277.87Z" transform="translate(0 -14.76)" style="fill:#3f3d56"/><path d="M173.43,269.58a9.2,9.2,0,1,0-9.2-9.2A9.2,9.2,0,0,0,173.43,269.58Z" transform="translate(0 -14.76)" style="fill:#d0cde1"/><path d="M90.36,301.12a17.49,17.49,0,1,0-17.49-17.48A17.49,17.49,0,0,0,90.36,301.12Z" transform="translate(0 -14.76)" style="fill:#3f3d56"/><path d="M90.36,292.84a9.21,9.21,0,1,0-9.21-9.2A9.2,9.2,0,0,0,90.36,292.84Z" transform="translate(0 -14.76)" style="fill:#d0cde1"/><path d="M151.7,216.76,97.6,231.9,93,215.62l34.5-9.66Z" transform="translate(0 -14.76)" style="fill:#fff"/><path d="M86.42,217.48l-21.53,6,4.56,16.29,21.53-6Z" transform="translate(0 -14.76)" style="fill:#fff"/><path d="M103.76,243.28l-2.76.77,1.47,5.24,2.76-.77Z" transform="translate(0 -14.76)" style="fill:#3f3d56"/><path d="M148,225.84l-.78-2.76L142,224.54l.77,2.76Z" transform="translate(0 -14.76)" style="fill:#3f3d56"/><path d="M141,213.68l.31-.08a6,6,0,0,1,3.23,11.53l-.31.09Z" transform="translate(0 -14.76)" style="fill:#3f3d56"/><path d="M197.43,234.93a9.26,9.26,0,0,1-9.59-15.52,22.63,22.63,0,0,1,7.94,10.76Z" transform="translate(0 -14.76)" style="fill:#3f3d56"/><path d="M107.1,91.18h-6.23v91h6.23Z" transform="translate(0 -14.76)" style="fill:#3f3d56"/><path d="M104,103a8.73,8.73,0,1,0-8.73-8.73A8.72,8.72,0,0,0,104,103Z" transform="translate(0 -14.76)" style="fill:#3f3d56"/><path d="M334,195.28a8.73,8.73,0,1,0-8.73-8.73A8.73,8.73,0,0,0,334,195.28Z" transform="translate(0 -14.76)" style="fill:#3f3d56"/></g><path d="M257.46,43.79c-19.59-8.09-38.84-1.32-50.94,28-13.72,33.24-3.28,47.84,16.31,55.92s38.48,4.6,51.84-27.81C289,65.28,277.05,51.87,257.46,43.79Zm-29.95,72.95c-13.57-5.6-17.37-16.48-7.87-39.5,8.38-20.32,20.18-28,33.74-22.39s18.05,15.68,8.16,39.67C252.28,117,241.08,122.34,227.51,116.74Z" transform="translate(0 -14.76)" style="fill:#242723"/><path d="M187,85.81l-8.1-3.34,9.84-23.85a5.17,5.17,0,0,0-2.81-6.75l-1.9-.78a5.17,5.17,0,0,0-6.75,2.81l-9.83,23.85-22.85-9.43a2.89,2.89,0,0,1-1.2-.9,2.94,2.94,0,0,1-.59-1.38,2.91,2.91,0,0,1,.15-1.49,2.82,2.82,0,0,1,.88-1.22l43.06-35.8a5.07,5.07,0,0,0,1.3-1.61,5.43,5.43,0,0,0,.55-2,5.14,5.14,0,0,0-.27-2.06,5.2,5.2,0,0,0-1.06-1.78l-1.15-1.26a5.16,5.16,0,0,0-7.11-.51l-52.25,43a7.12,7.12,0,0,0-2,2.74,7,7,0,0,0,3.81,9.15l34.72,14.33-6.22,15.08a6.22,6.22,0,0,0-.47,2.37,6,6,0,0,0,.48,2.37,6.16,6.16,0,0,0,3.35,3.35h0a6.26,6.26,0,0,0,2.37.47,6.39,6.39,0,0,0,2.37-.48,6.22,6.22,0,0,0,3.35-3.36l6.22-15.08,8.1,3.34a5.29,5.29,0,0,0,6.9-6.92A5.34,5.34,0,0,0,187,85.81Z" transform="translate(0 -14.76)" style="fill:#09acfe"/><path d="M337,147.69l-8.1-3.34,9.84-23.85a5.16,5.16,0,0,0-2.8-6.75L334,113a5.37,5.37,0,0,0-2-.39,5.18,5.18,0,0,0-4.77,3.2l-9.84,23.86L294.6,130.2a2.88,2.88,0,0,1-1.19-.91,2.91,2.91,0,0,1-.44-2.86,3,3,0,0,1,.87-1.23L336.9,89.41a5.23,5.23,0,0,0,1.3-1.62,5.16,5.16,0,0,0-.78-5.83l-1.15-1.27a5.17,5.17,0,0,0-7.1-.51l-52.25,43a6.88,6.88,0,0,0-2,2.74,7,7,0,0,0,3.81,9.15l34.72,14.32-6.22,15.09a6.19,6.19,0,1,0,11.45,4.72l6.22-15.08,8.1,3.34a5.29,5.29,0,1,0,4-9.78Z" transform="translate(0 -14.76)" style="fill:#09acfe"/><path d="M190.39,83.94l-8.1-3.34,9.84-23.85A5.15,5.15,0,0,0,191,51.12,5.37,5.37,0,0,0,189.33,50l-1.9-.78a5.16,5.16,0,0,0-6.75,2.8l-9.84,23.86L148,66.45a2.86,2.86,0,0,1-1.19-.9,3,3,0,0,1-.6-1.38,3,3,0,0,1,.16-1.49,2.89,2.89,0,0,1,.87-1.22l43.06-35.8a5,5,0,0,0,1.3-1.62,5.16,5.16,0,0,0-.78-5.83L189.66,17a5.16,5.16,0,0,0-7.1-.52l-52.26,43a7,7,0,0,0-2,2.74h0a7,7,0,0,0,3.81,9.15l34.72,14.32-6.22,15.09a6.17,6.17,0,0,0,3.36,8.08h0a6.19,6.19,0,0,0,8.09-3.36l6.22-15.08,8.1,3.34a5.39,5.39,0,0,0,2,.4,5.22,5.22,0,0,0,2-.41,5.06,5.06,0,0,0,1.71-1.15,5.37,5.37,0,0,0,1.15-1.71h0a5.39,5.39,0,0,0,0-4,5.37,5.37,0,0,0-1.15-1.71,5.3,5.3,0,0,0-1.72-1.15Z" transform="translate(0 -14.76)" style="fill:none;stroke:#3f3d56;stroke-miterlimit:10"/><path d="M342.35,146.63l-8.1-3.35,9.84-23.85a5.18,5.18,0,0,0-2.81-6.75l-1.9-.78a5.18,5.18,0,0,0-2-.39,5,5,0,0,0-2,.4,5.15,5.15,0,0,0-2.8,2.8l-9.84,23.85L300,129.13a2.89,2.89,0,0,1-1.2-.9,3.06,3.06,0,0,1-.6-1.38,3,3,0,0,1,.16-1.49,2.89,2.89,0,0,1,.87-1.22l43.07-35.8a4.91,4.91,0,0,0,1.29-1.61,5.16,5.16,0,0,0,.56-2,5.32,5.32,0,0,0-.27-2.06,5.2,5.2,0,0,0-1.06-1.78l-1.15-1.26a5.16,5.16,0,0,0-7.11-.51l-52.25,43A7,7,0,0,0,284,134l34.72,14.33-6.22,15.08a6.21,6.21,0,0,0,3.36,8.09h0a6.2,6.2,0,0,0,8.09-3.37l6.22-15.08,8.1,3.34a5.25,5.25,0,0,0,2,.4,5.23,5.23,0,0,0,3.73-1.55,5.25,5.25,0,0,0,1.15-1.72h0a5.29,5.29,0,0,0-2.87-6.9Z" transform="translate(0 -14.76)" style="fill:none;stroke:#3f3d56;stroke-miterlimit:10"/><path d="M232.09,79.76c2.14.89,4.8-.64,5.94-3.41s.34-5.74-1.81-6.62-4.8.65-5.94,3.42S230,78.88,232.09,79.76Z" transform="translate(0 -14.76)" style="fill:#2f2e41"/><path d="M253.13,88.57c2.14.89,4.8-.64,5.94-3.41s.33-5.73-1.81-6.62-4.8.65-5.94,3.42S251,87.69,253.13,88.57Z" transform="translate(0 -14.76)" style="fill:#2f2e41"/><path d="M246.12,97.15c-.94,2.27-4.86,2.8-8.76,1.19s-6.31-4.75-5.37-7c.81-2,3.86-2.62,7.19-1.71a10.61,10.61,0,0,1,1.56.53,12.42,12.42,0,0,1,2.43,1.32C245.57,93.14,246.84,95.41,246.12,97.15Z" transform="translate(0 -14.76)" style="fill:#2f2e41"/><path d="M233.47,79c2.14.88,4.8-.65,5.94-3.42s.34-5.73-1.8-6.61-4.81.65-6,3.42S231.33,78.12,233.47,79Z" transform="translate(0 -14.76)" style="fill:none;stroke:#3f3d56;stroke-miterlimit:10"/><path d="M254.51,87.81c2.14.88,4.8-.65,5.94-3.42s.34-5.73-1.8-6.61-4.81.65-5.95,3.42S252.37,86.93,254.51,87.81Z" transform="translate(0 -14.76)" style="fill:none;stroke:#3f3d56;stroke-miterlimit:10"/><path d="M238.74,97.58c3.9,1.61,7.83,1.08,8.76-1.19s-1.47-5.41-5.37-7-7.83-1.08-8.76,1.19S234.84,96,238.74,97.58Z" transform="translate(0 -14.76)" style="fill:none;stroke:#3f3d56;stroke-miterlimit:10"/><path d="M243.11,91.83a1.2,1.2,0,0,1-.62.65,1,1,0,0,1-.42.1.89.89,0,0,1-.43-.08l-2.28-.94a1.08,1.08,0,0,1-.6-.64,1.14,1.14,0,0,1,0-.87,1.16,1.16,0,0,1,.45-.55,12.41,12.41,0,0,1,1.56.52,11.66,11.66,0,0,1,2.42,1.34A1.1,1.1,0,0,1,243.11,91.83Z" transform="translate(0 -14.76)" style="fill:#fff"/><path d="M235.63,73.76a1.23,1.23,0,1,0-.67-1.61A1.23,1.23,0,0,0,235.63,73.76Z" transform="translate(0 -14.76)" style="fill:#fff"/><path d="M256.83,82.5a1.23,1.23,0,1,0-.67-1.61A1.23,1.23,0,0,0,256.83,82.5Z" transform="translate(0 -14.76)" style="fill:#fff"/><path d="M253.55,93.69a1.23,1.23,0,1,0-.67-1.61A1.23,1.23,0,0,0,253.55,93.69Z" transform="translate(0 -14.76)" style="fill:#09acfe;opacity:0.30000001192092896;isolation:isolate"/><path d="M225.74,82.21a1.23,1.23,0,1,0-.67-1.61A1.23,1.23,0,0,0,225.74,82.21Z" transform="translate(0 -14.76)" style="fill:#09acfe;opacity:0.30000001192092896;isolation:isolate"/></svg>