<?xml version="1.0" standalone="no"?>
<!DOCTYPE svg PUBLIC "-//W3C//DTD SVG 20010904//EN"
 "http://www.w3.org/TR/2001/REC-SVG-20010904/DTD/svg10.dtd">
<svg version="1.0" xmlns="http://www.w3.org/2000/svg"
 width="299.000000pt" height="299.000000pt" viewBox="0 0 299.000000 299.000000"
 preserveAspectRatio="xMidYMid meet">
<metadata>
Created by potrace 1.11, written by Peter Selinger 2001-2013
</metadata>
<g transform="translate(0.000000,299.000000) scale(0.100000,-0.100000)"
fill="#000000" stroke="none">
<path d="M216 2598 c-123 -27 -218 -154 -212 -283 3 -52 117 -454 341 -1200
13 -44 51 -174 85 -290 69 -232 83 -266 134 -318 125 -129 313 -149 461 -47
25 17 45 35 45 39 0 8 -50 184 -69 246 -25 77 -134 467 -171 610 -23 88 -68
264 -101 390 -32 127 -64 246 -69 265 -16 53 -91 342 -96 367 -16 82 -82 166
-160 202 -49 24 -130 32 -188 19z"/>
<path d="M1422 2594 c-75 -20 -111 -40 -164 -96 -40 -42 -72 -104 -84 -163 -1
-5 -41 -163 -89 -350 -47 -187 -92 -362 -98 -390 -12 -48 -10 -56 85 -385 134
-463 123 -430 136 -400 6 14 68 209 138 435 70 226 132 422 138 436 10 23 30
-35 174 -500 90 -289 176 -553 191 -586 68 -147 226 -225 394 -192 34 7 47 14
47 27 0 9 -15 77 -34 151 -64 248 -167 654 -171 669 -2 8 -17 71 -35 140 -18
69 -34 134 -36 144 -2 10 -8 33 -14 51 -6 18 -12 41 -14 51 -2 10 -34 138 -71
284 -37 146 -68 272 -70 280 -12 57 -58 217 -69 239 -67 126 -214 191 -354
155z"/>
<path d="M2658 2604 c-2 -1 -15 -5 -30 -8 -58 -10 -133 -64 -168 -121 -17 -28
-52 -133 -65 -195 -2 -8 -8 -35 -15 -60 -7 -25 -13 -49 -14 -55 -1 -5 -5 -19
-9 -30 -3 -11 -8 -31 -11 -45 -3 -14 -16 -66 -30 -115 -86 -316 -108 -416
-100 -463 10 -59 7 -49 22 -102 6 -25 27 -110 46 -190 56 -234 146 -602 157
-645 l11 -40 21 40 c18 36 64 188 273 900 36 121 87 297 115 390 28 94 53 177
55 185 1 8 17 61 33 118 35 119 41 180 21 237 -40 120 -131 191 -255 199 -30
2 -56 2 -57 0z"/>
</g>
</svg>
