<svg xmlns="http://www.w3.org/2000/svg" xmlns:xlink="http://www.w3.org/1999/xlink" style="display:none"><symbol id="for-driver-step-1" viewBox="0 0 30 30"><path d="M19.58 19.35a1.24 1.24 0 100 2.47 1.29 1.29 0 00.89-.36 1.24 1.24 0 000-1.75 1.29 1.29 0 00-.89-.36zM11.37 11.23a1.33 1.33 0 00-1.9-1.87 1.29 1.29 0 00-.39.93 1.33 1.33 0 001.34 1.33 1.37 1.37 0 00.95-.39zM19.58 9a1.32 1.32 0 00-.95 2.26 1.37 1.37 0 00.95.39 1.33 1.33 0 100-2.65z"/><path d="M15 0a15 15 0 1015 15A15 15 0 0015 0zm-4.58 6.59a3.71 3.71 0 013.75 3.7c0 2.78-3.75 6.89-3.75 6.89s-3.75-4.11-3.75-6.89a3.7 3.7 0 013.75-3.7zm10 16.33a2.51 2.51 0 01-3.18-1.51h-4.47a2.51 2.51 0 01-4.72 0 2.47 2.47 0 011.53-3.15 2.51 2.51 0 013.19 1.5h4.46a2.49 2.49 0 012.35-1.64A2.51 2.51 0 0122 19.76a2.47 2.47 0 01-1.58 3.16zm-.84-5.74s-3.75-4.11-3.75-6.89a3.75 3.75 0 017.5 0c0 2.78-3.75 6.89-3.75 6.89z"/></symbol><symbol id="for-driver-step-2" viewBox="0 0 30 30"><path d="M18.58 17.09l-3.17-1.92v-3.71a.63.63 0 00-.62-.63.65.65 0 00-.62.63v3.91a.82.82 0 00.39.7l3.37 2.1a.63.63 0 00.86-.2.65.65 0 00-.21-.88z"/><path d="M15 0a15 15 0 1015 15A15 15 0 0015 0zm0 23.33A8.33 8.33 0 1123.24 15 8.31 8.31 0 0115 23.33z"/></symbol><symbol id="for-driver-step-3" viewBox="0 0 30 30"><path d="M15 0a15 15 0 1015 15A15 15 0 0015 0zM7.62 13.54a.83.83 0 01-.83-1 8.65 8.65 0 012.72-5 .84.84 0 011.16 0 .82.82 0 010 1.19 7.07 7.07 0 00-2.2 4.12.84.84 0 01-.85.69zM15 23.13a1.66 1.66 0 01-1.66-1.67h3.33A1.67 1.67 0 0115 23.13zm5.49-2.5H9.5a.84.84 0 01-.58-1.43L10 18.13V14c0-2.57 1.36-4.7 3.75-5.27v-.6a1.25 1.25 0 112.5 0v.56A5.08 5.08 0 0120 14v4.17l1.07 1.07a.84.84 0 01-.59 1.39zm1.91-7.1a.82.82 0 01-.82-.69 7 7 0 00-2.21-4.11.82.82 0 010-1.19.84.84 0 011.16 0 8.7 8.7 0 012.71 5 .83.83 0 01-.85.99z"/></symbol><symbol id="for-passenger-step-3" viewBox="0 0 30 30"><path d="M18.57 15.06a1 1 0 101 1 1 1 0 00-1-1zM18.07 10.54h-6.64a.71.71 0 00-.66.47l-.88 2.66h9.72L18.73 11a.71.71 0 00-.66-.46z"/><path d="M15 0a15 15 0 1015 15A15 15 0 0015 0zm6 19.57a1 1 0 01-2.08 0v-.35h-8.34v.35a1 1 0 01-2.08 0v-5a1.39 1.39 0 01.08-.46l1.36-3.91a1.05 1.05 0 011-.7h7.64a1 1 0 011 .7l1.36 3.94a1.39 1.39 0 01.08.46z"/><path d="M10.93 15.06a1 1 0 101 1 1 1 0 00-1-1z"/></symbol><symbol id="mail-icon"><path d="M27 2.63A2.67 2.67 0 0024.3 0H2.7A2.67 2.67 0 000 2.63v15.75A2.67 2.67 0 002.7 21h21.6a2.67 2.67 0 002.7-2.62zm-2.7 0L13.5 9.17 2.7 2.63zm0 15.75H2.7V5.25l10.8 6.56 10.8-6.56z"/></symbol><symbol id="phone-icon"><path d="M4.72 2.67a16.5 16.5 0 00.6 3.45l-1.6 1.6a19.6 19.6 0 01-1-5zm13.15 16a16.94 16.94 0 003.46.6v2a20.64 20.64 0 01-5.06-1zM6 0H1.33A1.34 1.34 0 000 1.33 22.67 22.67 0 0022.67 24 1.34 1.34 0 0024 22.67V18a1.34 1.34 0 00-1.33-1.33 15.26 15.26 0 01-4.76-.76 1.23 1.23 0 00-.42-.07 1.37 1.37 0 00-.94.39l-2.94 2.93a20.19 20.19 0 01-8.78-8.78l2.93-2.93a1.33 1.33 0 00.33-1.36 15.21 15.21 0 01-.76-4.76A1.34 1.34 0 006 0z"/></symbol><symbol id="scroll-down-icon"><path d="M20 0A20.2 20.2 0 000 20.35v21.3A20.2 20.2 0 0020 62a20.2 20.2 0 0020-20.35v-21.3A20.2 20.2 0 0020 0zm17 41.65A17.2 17.2 0 0120 59 17.2 17.2 0 013 41.65v-21.3A17.2 17.2 0 0120 3a17.2 17.2 0 0117 17.35z" fill="#242723"/><path d="M20 29.83a1.5 1.5 0 01-1.5-1.5V13.92a1.5 1.5 0 013 0v14.41a1.5 1.5 0 01-1.5 1.5z" fill="#242723"/></symbol></svg>