<svg xmlns="http://www.w3.org/2000/svg" viewBox="0 0 325 45"><title>way4you-logo-footer</title><path d="M178.55,7.47A4.94,4.94,0,0,0,174.34,0a4.88,4.88,0,0,0-4.2,2.42L158.87,21.58l-2.43,4.13-.66,1.11a5.75,5.75,0,0,0-.78,2.89,5.63,5.63,0,0,0,5.59,5.65h11.85V25.71h-4.66l2.44-4.13Z" transform="translate(0)" style="fill:#09acfe"/><path d="M176.31,40V21.09a4.85,4.85,0,1,1,9.69,0V40a4.85,4.85,0,1,1-9.69,0Z" transform="translate(0)" style="fill:#09acfe"/><path d="M9.86,39.87a7.19,7.19,0,0,0,12,3L17.93,29.35l-6.55-25a5.77,5.77,0,1,0-11.14,3Z" transform="translate(0)" style="fill:#fff"/><path d="M30.71,0a6.74,6.74,0,0,0-6.5,4.82l-4.28,16.7,4.56,15.65L30.5,18l6,19.15L37.4,40a7,7,0,0,0,1.74,2.89A7.19,7.19,0,0,0,44.25,45a7.3,7.3,0,0,0,2.68-.51L43.06,29.37,36.79,4.82A6.26,6.26,0,0,0,30.71,0Z" transform="translate(0)" style="fill:#fff"/><path d="M51.14,39.87,60.76,7.38a5.77,5.77,0,1,0-11.14-3l-4.5,17.17,5,20.49A7.11,7.11,0,0,0,51.14,39.87Z" transform="translate(0)" style="fill:#fff"/><path d="M72.56,45a5.54,5.54,0,0,0,5.3-3.86l1.56-4.9a1,1,0,0,1,.94-.69H91.24l-2.63-8.26H82.26l3.21-9.89L80.67,2.6a10,10,0,0,0-2.84,4.28L67.3,37.72A5.52,5.52,0,0,0,72.56,45Z" transform="translate(0)" style="fill:#fff"/><path d="M97.14,41.14l-1.56-4.9-2.84-9L87.49,11.16,84.14.56A10.43,10.43,0,0,1,87.5,0a10.2,10.2,0,0,1,9.67,6.88L107.7,37.72a5.55,5.55,0,1,1-10.56,3.42Z" transform="translate(0)" style="fill:#fff"/><path d="M103,38.5a.51.51,0,0,1-.47-.32l-.7-1.88a.49.49,0,0,1,.29-.64.5.5,0,0,1,.65.29l.7,1.87a.52.52,0,0,1-.29.65A.57.57,0,0,1,103,38.5Zm-2.11-5.62a.51.51,0,0,1-.47-.32l-.7-1.87A.52.52,0,0,1,100,30a.5.5,0,0,1,.64.29l.7,1.88a.5.5,0,0,1-.29.64Zm-2.1-5.62a.49.49,0,0,1-.47-.32l-.7-1.87a.5.5,0,0,1,.29-.65.49.49,0,0,1,.64.3l.7,1.87a.49.49,0,0,1-.29.64A.51.51,0,0,1,98.79,27.26Zm-2.11-5.61a.52.52,0,0,1-.47-.33l-.7-1.87a.49.49,0,0,1,.29-.64.5.5,0,0,1,.65.29l.7,1.87a.5.5,0,0,1-.29.64A.39.39,0,0,1,96.68,21.65ZM94.57,16a.52.52,0,0,1-.47-.33l-.7-1.87a.5.5,0,0,1,.94-.35l.7,1.87a.5.5,0,0,1-.29.65A.57.57,0,0,1,94.57,16Zm-2.1-5.62a.49.49,0,0,1-.47-.32l-.7-1.88a.5.5,0,0,1,.93-.35l.7,1.87a.5.5,0,0,1-.29.65Z" transform="translate(0)" style="fill:#fff"/><path d="M114.65,7.71l11,21.64V39.52a5.32,5.32,0,0,0,1.71,3.88,6.12,6.12,0,0,0,8.25,0,5.34,5.34,0,0,0,1.7-3.88V29.35l-6.07-11.74-7.7-14.85A5,5,0,0,0,119.08,0,5.18,5.18,0,0,0,114.65,7.71Zm18.83,5.88,6,11.64,8.92-17.52A5.18,5.18,0,0,0,143.92,0a5,5,0,0,0-4.48,2.76Z" transform="translate(0)" style="fill:#fff"/><path d="M226.35,7.71l-11,21.64V39.52a5.34,5.34,0,0,1-1.7,3.88,6.12,6.12,0,0,1-8.25,0,5.32,5.32,0,0,1-1.71-3.88V29.35l6.07-11.74,7.7-14.85A5,5,0,0,1,221.92,0,5.18,5.18,0,0,1,226.35,7.71Zm-18.83,5.88-6,11.64L192.65,7.71A5.18,5.18,0,0,1,197.08,0a5,5,0,0,1,4.48,2.76Z" transform="translate(0)" style="fill:#fff"/><path d="M305.5,45c13.65,0,19.5-9.78,19.5-22.5v-10a38,38,0,0,1-4,5.27c-.47.53-.89,1-1.21,1.31a.91.91,0,0,1-1.32,0c-.32-.34-.74-.78-1.21-1.31a38,38,0,0,1-4-5.27v10c0,7-1.95,10.76-7.8,10.76s-7.8-3.74-7.8-10.76V0H286V22.5C286,35.22,291.85,45,305.5,45Z" transform="translate(0)" style="fill:#fff"/><path d="M254.5,33.26c-5.87,0-11.75-3.74-11.75-10.76A10.41,10.41,0,0,1,244.2,17L251.74.15a24.08,24.08,0,0,0-9,2.86A22.35,22.35,0,0,0,231,22.5,22.35,22.35,0,0,0,242.75,42a24.2,24.2,0,0,0,9.89,2.94l5.44-12.14A13.9,13.9,0,0,1,254.5,33.26Z" transform="translate(0)" style="fill:#fff"/><path d="M254.5,11.74c5.88,0,11.75,3.74,11.75,10.76a10.43,10.43,0,0,1-1.35,5.29l-7.73,17.07A24.18,24.18,0,0,0,266.25,42,22.35,22.35,0,0,0,278,22.5,22.35,22.35,0,0,0,266.25,3a24,24,0,0,0-10-2.95l-5.43,12.17A13.54,13.54,0,0,1,254.5,11.74Z" transform="translate(0)" style="fill:#fff"/><path d="M319,0a6.21,6.21,0,0,0-4.24,1.64,5.39,5.39,0,0,0-1.76,4c0,2.86,2.79,6.65,4.56,8.78.45.53.83,1,1.09,1.24a.47.47,0,0,0,.7,0c.26-.28.64-.71,1.09-1.24C322.21,12.25,325,8.46,325,5.6a5.39,5.39,0,0,0-1.76-4A6.21,6.21,0,0,0,319,0Z" transform="translate(0)" style="fill:#09acfe"/><path d="M305.5,39.5q-1,0-1.83-.06a.5.5,0,0,1-.47-.53.51.51,0,0,1,.53-.47q.84.06,1.77.06h.2a.5.5,0,0,1,0,1h-.2Zm4.17-.33a.49.49,0,0,1-.49-.41.51.51,0,0,1,.41-.58,14.78,14.78,0,0,0,1.88-.44.5.5,0,0,1,.62.33.51.51,0,0,1-.33.63,16.28,16.28,0,0,1-2,.47Zm-9.9-.39a.32.32,0,0,1-.14,0,12.39,12.39,0,0,1-1.94-.74.5.5,0,1,1,.43-.9,10.54,10.54,0,0,0,1.79.68.5.5,0,0,1-.14,1Zm15.38-1.87a.5.5,0,0,1-.39-.18.51.51,0,0,1,.07-.71,7.91,7.91,0,0,0,1.32-1.33.5.5,0,0,1,.79.61,9.13,9.13,0,0,1-1.48,1.5A.45.45,0,0,1,315.15,36.91Zm-20.38-1.26a.51.51,0,0,1-.39-.18,10.58,10.58,0,0,1-1.15-1.75.5.5,0,1,1,.89-.46,8.55,8.55,0,0,0,1,1.57.52.52,0,0,1-.07.71A.54.54,0,0,1,294.77,35.65Zm23.49-3.73-.13,0a.51.51,0,0,1-.35-.62,14.11,14.11,0,0,0,.4-1.9.51.51,0,0,1,.57-.42.51.51,0,0,1,.42.57,17.94,17.94,0,0,1-.42,2A.52.52,0,0,1,318.26,31.92ZM292.44,30.2a.49.49,0,0,1-.49-.41c-.12-.63-.21-1.29-.28-2a.5.5,0,0,1,.45-.55.51.51,0,0,1,.54.45c.07.7.16,1.34.27,1.94a.5.5,0,0,1-.4.58ZM319,26h0a.5.5,0,0,1-.49-.51c0-.66,0-1.32,0-2a.5.5,0,0,1,1,0c0,.67,0,1.35,0,2A.5.5,0,0,1,319,26Zm-27-1.75a.5.5,0,0,1-.5-.5v-2a.5.5,0,0,1,1,0v2A.5.5,0,0,1,292,24.22Zm0-6a.5.5,0,0,1-.5-.5v-2a.5.5,0,0,1,1,0v2A.5.5,0,0,1,292,18.22Zm0-6a.5.5,0,0,1-.5-.5v-2a.5.5,0,0,1,1,0v2A.5.5,0,0,1,292,12.22Z" transform="translate(0)" style="fill:#fff"/><circle cx="319" cy="6" r="2" style="fill:#fff"/></svg>