<svg xmlns="http://www.w3.org/2000/svg" viewBox="0 0 322 44.83"><title>way4you-logo</title><path d="M176.82,7.44a4.9,4.9,0,1,0-8.42-5L157.11,21.5l-2.43,4.12-.65,1.1a5.63,5.63,0,0,0,4.81,8.5H170.7v-9.6H166l2.44-4.12Z" transform="translate(0)" style="fill:#09acfe"/><path d="M174.58,39.83V21a4.85,4.85,0,1,1,9.7,0V39.83a4.85,4.85,0,1,1-9.7,0Z" transform="translate(0)" style="fill:#09acfe"/><path d="M9.73,39.72a7.07,7.07,0,0,0,11.84,3L17.69,29.24,11.24,4.34a5.71,5.71,0,1,0-11,3Z" transform="translate(0)" style="fill:#00cd78"/><path d="M30.3,0a6.67,6.67,0,0,0-6.41,4.8L19.67,21.44,24.17,37,30.1,18,36,37l.87,2.79a7.07,7.07,0,0,0,9.4,4.49L42.5,29.26,36.31,4.8A6.2,6.2,0,0,0,30.3,0Z" transform="translate(0)" style="fill:#00cd78"/><path d="M50.47,39.72,60,7.36a5.7,5.7,0,1,0-11-3l-4.44,17.1,4.91,20.41A7.13,7.13,0,0,0,50.47,39.72Z" transform="translate(0)" style="fill:#00cd78"/><path d="M71.48,44.83A5.52,5.52,0,0,0,76.75,41L78.3,36.1a1,1,0,0,1,.93-.68H90l-2.62-8.23h-6.3l3.19-9.86L79.53,2.59a10.09,10.09,0,0,0-2.82,4.27L66.25,37.58A5.5,5.5,0,0,0,71.48,44.83Z" transform="translate(0)" style="fill:#00cd78"/><path d="M95.89,41,94.34,36.1l-2.82-8.91L86.31,11.12,83,.56A10.31,10.31,0,0,1,86.32,0a10.14,10.14,0,0,1,9.61,6.86l10.46,30.72A5.52,5.52,0,1,1,95.89,41Z" transform="translate(0)" style="fill:#00cd78"/><path d="M101.51,39a.5.5,0,0,1-.47-.33l-.68-1.88a.5.5,0,0,1,.94-.34l.68,1.88a.5.5,0,0,1-.3.64Zm-2-5.64A.5.5,0,0,1,99,33l-.69-1.89a.5.5,0,0,1,.3-.64.5.5,0,0,1,.64.3l.69,1.89a.5.5,0,0,1-.3.64Zm-2-5.65a.5.5,0,0,1-.47-.33l-.68-1.88a.5.5,0,0,1,.94-.34L97.89,27a.49.49,0,0,1-.3.64A.47.47,0,0,1,97.42,27.71Zm-2-5.64a.52.52,0,0,1-.47-.33l-.68-1.88a.5.5,0,0,1,.94-.34l.68,1.88a.49.49,0,0,1-.3.64A.47.47,0,0,1,95.38,22.07Zm-2-5.64a.51.51,0,0,1-.47-.33l-.68-1.88a.5.5,0,0,1,.3-.64.49.49,0,0,1,.64.3l.68,1.88a.5.5,0,0,1-.3.64A.51.51,0,0,1,93.34,16.43Zm-2-5.64a.5.5,0,0,1-.47-.33l-.68-1.88a.5.5,0,0,1,.94-.34l.68,1.88a.5.5,0,0,1-.3.64Z" transform="translate(0)" style="fill:#fff"/><path d="M113.16,7.68l11,21.56V39.37a5.29,5.29,0,0,0,1.71,3.86,6.09,6.09,0,0,0,8.23,0,5.28,5.28,0,0,0,1.7-3.86V29.24l-6.05-11.7L122.05,2.75A5.06,5.06,0,0,0,117.57,0,5.16,5.16,0,0,0,113.16,7.68Zm18.78,5.86,5.94,11.59,8.89-17.45A5.16,5.16,0,0,0,142.36,0a5.06,5.06,0,0,0-4.48,2.75Z" transform="translate(0)" style="fill:#00cd78"/><path d="M224.36,7.68l-11,21.56V39.37a5.28,5.28,0,0,1-1.7,3.86,6.09,6.09,0,0,1-8.23,0,5.28,5.28,0,0,1-1.7-3.86V29.24l6-11.7,7.68-14.79A5.06,5.06,0,0,1,220,0,5.16,5.16,0,0,1,224.36,7.68Zm-18.78,5.86-5.94,11.59L190.75,7.68A5.16,5.16,0,0,1,195.16,0a5.06,5.06,0,0,1,4.48,2.75Z" transform="translate(0)" style="fill:#00cd78"/><path d="M302.6,44.83c13.58,0,19.4-9.74,19.4-22.41V12.48a37.53,37.53,0,0,1-4,5.25c-.47.53-.88,1-1.2,1.31a.91.91,0,0,1-1.32,0c-.32-.34-.73-.78-1.2-1.31a38.32,38.32,0,0,1-4-5.25v9.94c0,7-1.94,10.72-7.76,10.72s-7.76-3.73-7.76-10.72V0H283.2V22.42C283.2,35.09,289,44.83,302.6,44.83Z" transform="translate(0)" style="fill:#00cd78"/><path d="M252.17,33.14c-5.82,0-11.64-3.73-11.64-10.72A10.4,10.4,0,0,1,242,17L249.43.15A23.93,23.93,0,0,0,240.53,3a22.26,22.26,0,0,0-11.64,19.42,22.26,22.26,0,0,0,11.64,19.41,23.63,23.63,0,0,0,9.8,2.93l5.38-12.09A13.55,13.55,0,0,1,252.17,33.14Z" transform="translate(0)" style="fill:#00cd78"/><path d="M252.17,11.7c5.82,0,11.64,3.72,11.64,10.72a10.48,10.48,0,0,1-1.34,5.27l-7.65,17a23.78,23.78,0,0,0,9-2.86,22.26,22.26,0,0,0,11.64-19.41A22.26,22.26,0,0,0,263.81,3,23.81,23.81,0,0,0,253.94.06l-5.38,12.12A13.71,13.71,0,0,1,252.17,11.7Z" transform="translate(0)" style="fill:#00cd78"/><path d="M316.18,0a6,6,0,0,0-4.11,1.6,5.29,5.29,0,0,0-1.71,3.86c0,2.79,2.71,6.48,4.43,8.55.42.52.79.93,1,1.2a.47.47,0,0,0,.7,0c.25-.27.62-.68,1.05-1.2C319.3,11.94,322,8.25,322,5.46a5.28,5.28,0,0,0-1.7-3.86A6.07,6.07,0,0,0,316.18,0Z" transform="translate(0)" style="fill:#09acfe"/><path d="M302.6,39.48c-.6,0-1.17,0-1.71,0a.49.49,0,0,1-.47-.53.48.48,0,0,1,.53-.46c.53,0,1.08,0,1.65,0h.32a.51.51,0,0,1,.5.5.5.5,0,0,1-.5.5Zm4.29-.34a.5.5,0,0,1-.09-1,15.71,15.71,0,0,0,1.88-.45.49.49,0,0,1,.63.32.51.51,0,0,1-.33.63,15.84,15.84,0,0,1-2,.48ZM297,38.81l-.13,0a13.14,13.14,0,0,1-2-.72.5.5,0,0,1,.42-.9,12.24,12.24,0,0,0,1.8.65.51.51,0,0,1-.14,1Zm15.37-2a.52.52,0,0,1-.39-.19A.5.5,0,0,1,312,36a8.67,8.67,0,0,0,1.3-1.34.49.49,0,0,1,.7-.1.51.51,0,0,1,.1.7,9.14,9.14,0,0,1-1.47,1.51A.49.49,0,0,1,312.35,36.85Zm-20.42-1.09a.52.52,0,0,1-.38-.17,9.64,9.64,0,0,1-1.19-1.73.5.5,0,0,1,.88-.48,8.68,8.68,0,0,0,1.07,1.55.51.51,0,0,1-.05.71A.54.54,0,0,1,291.93,35.76Zm23.52-3.93h-.13a.5.5,0,0,1-.35-.62,15.89,15.89,0,0,0,.39-1.9.51.51,0,0,1,.57-.42.5.5,0,0,1,.42.57,17.94,17.94,0,0,1-.42,2A.49.49,0,0,1,315.45,31.83ZM289.5,30.35A.5.5,0,0,1,289,30c-.12-.63-.22-1.31-.3-2a.5.5,0,0,1,1-.11c.07.69.17,1.34.28,1.94a.48.48,0,0,1-.39.58Zm26.66-4.46h0a.5.5,0,0,1-.49-.51c0-.66,0-1.32,0-2a.5.5,0,1,1,1,0c0,.67,0,1.35,0,2A.5.5,0,0,1,316.16,25.89ZM289,24.38a.5.5,0,0,1-.5-.5v-2a.5.5,0,0,1,.5-.5.5.5,0,0,1,.5.5v2a.5.5,0,0,1-.5.5Zm0-6a.5.5,0,0,1-.5-.5v-2a.5.5,0,0,1,.5-.5.5.5,0,0,1,.5.5v2A.5.5,0,0,1,289,18.38Zm0-6a.5.5,0,0,1-.5-.5v-2a.5.5,0,0,1,.5-.5.5.5,0,0,1,.5.5v2A.5.5,0,0,1,289,12.38Zm0-6a.48.48,0,0,1-.5-.48v0a.5.5,0,0,1,.5-.5.5.5,0,0,1,.5.5A.51.51,0,0,1,289,6.36Z" transform="translate(0)" style="fill:#fff"/><ellipse cx="316.18" cy="5.85" rx="1.94" ry="1.95" style="fill:#fff"/></svg>