<svg xmlns="http://www.w3.org/2000/svg" viewBox="0 0 226 601.9"><path d="M127.9,96.4a27.93,27.93,0,0,0-3.57-13.7.43.43,0,0,0,0,0c-.89,8.87-9.64,16-20.8,17.08A26.9,26.9,0,0,1,78,118.37c-.39,0-.77,0-1.16,0,0,.67-.07,1.34-.11,2a112.76,112.76,0,0,1-2,16.83C83.2,136,95.06,135,100,134.4c3.16-.4,6,1.09,8.28,3A74.78,74.78,0,0,1,106,123.76,28,28,0,0,0,127.9,96.4Z" transform="translate(0)" style="fill:#ee8e9e"/><path d="M69.13,294.4c-.51-2.56.8-6.95,2.08-11.16-3.8-7.86-8.25-19.12-7.06-26.84a137.06,137.06,0,0,0,1-24.23c-4.25,2.24-16.3,3.34-21.64,1.59.61,11.62,2.16,38.3,3.71,40.64s11.89,26.84,17,39.11C66.84,303.36,69.56,296.55,69.13,294.4Z" transform="translate(0)" style="fill:#ee8e9e"/><path d="M146.83,558.2v3.44A14.07,14.07,0,0,0,146.83,558.2Z" transform="translate(0)" style="fill:none"/><path d="M150.82,572.4c-3-3-4-14.2-4-14.2a14.07,14.07,0,0,1,0,3.44c-.72,5.64-5.28,6.16-7,2.76-1.5-3-6.37-4.32-10-5.21-1.2-.29-2.25-.54-3-.79-3-1-3,23-4,28s-.5,15.5-.5,15.5h27.9l.5-1.5,3-1-.5,2.5s6.48-.5,7.48-11.5S153.8,575.4,150.82,572.4Z" transform="translate(0)" style="fill:#2f2e41"/><path d="M42.75,569.89a42.53,42.53,0,0,0,2.23-9.6Z" transform="translate(0)" style="fill:#ee8e9e"/><path d="M69.13,586.4c-1-5-1-29-4-28-.84.28-2.08.57-3.46.92-3.54.88-8,2.21-9.49,5.08-1.87,3.76-7.26,2.74-7.07-4.7,0-.47,0-1,.1-1.5,0,0-.07.83-.24,2.09a42.53,42.53,0,0,1-2.23,9.6,7.91,7.91,0,0,1-1.51,2.51c-3,3-11,7-10,18s7.47,11.5,7.47,11.5l-.5-2.5,3,1,.49,1.5h27.9S70.13,591.4,69.13,586.4Z" transform="translate(0)" style="fill:#2f2e41"/><path d="M204.78,306.34c-13.18-12-31.62-38.18-42-52.52-9.49-13.07-6.76-21.67-5.93-32.16-5.09,2.24-15.12,6.69-22.19,7.89-1.85,16.07-1.41,30.69,10.86,44.15q9.07,10,19.07,19.1a279.73,279.73,0,0,0,31.27,24.67c1.83,4.87,28.67,40.57,30,26.33S218,318.39,204.78,306.34Z" transform="translate(0)" style="fill:#ee8e9e"/><path d="M47.17,550.87l-2.05,8.83c-.19,7.44,5.2,8.46,7.07,4.7,1.44-2.87,6-4.2,9.49-5.08l1.37-6.72C57.25,552.94,51.39,552.57,47.17,550.87Z" transform="translate(0)" style="fill:#ee8e9e"/><path d="M129.9,553.71v5.48c3.59.89,8.46,2.21,10,5.21,1.69,3.4,6.25,2.88,7-2.76v-6.93A83.78,83.78,0,0,1,129.9,553.71Z" transform="translate(0)" style="fill:#ee8e9e"/><path d="M168.83,310.46c-1.26-5.74-2.69-11.77-4.27-17.66q-10-9.07-19.07-19.1c-12.27-13.46-12.71-28.08-10.86-44.15,7.07-1.2,17.1-5.65,22.19-7.89,1.45-.64,2.5-1.11,3-1.26,3-1-4-22-8-31s-4-31-4-31-10-10-15.94-10-17.93-4-17.93-4a27.75,27.75,0,0,0-5.67-7c-2.28-1.94-5.12-3.43-8.28-3-5,.62-16.81,1.63-25.33,2.78-5.2.7-9.16,1.46-9.54,2.22-1,2-4,9-6,11s-16.94,5-17.93,17a13.59,13.59,0,0,0,.35,3.5c-.86,16.74-2.74,58.31-.35,61.5a4.6,4.6,0,0,0,2.26,1.36c5.34,1.75,17.39.65,21.64-1.59a3.07,3.07,0,0,0,1.43-1.25h0C72.48,243.26,77.1,252.4,77.1,252.4s-5,17-4,21c.49,2-.69,5.82-1.9,9.84-1.28,4.21-2.59,8.6-2.08,11.16.43,2.15-2.29,9-4.88,19.11-3.42,13.42-6.63,32.69-2.09,54.89v63s-26.9,109-18.93,117a11.62,11.62,0,0,0,3.94,2.47c4.22,1.7,10.08,2.07,15.88,1.73,8.78-.51,17.41-2.63,20-4.2,5-3,25.9-154,25.9-154l10-51,1,112s-2,94,5,97a23.91,23.91,0,0,0,5,1.31,83.78,83.78,0,0,0,16.93,1c7-.31,13-1.58,13.95-4.31,1.55-4.68,9.16-129.19,12.44-183.77A204.61,204.61,0,0,0,168.83,310.46Z" transform="translate(0)" style="fill:#2f2e41"/><path d="M87.76,48.45a36.64,36.64,0,0,0-5.06.36A36.64,36.64,0,1,0,45.29,73.49,36.74,36.74,0,0,1,1.52,32.86,36.84,36.84,0,0,0,15.35,73.3,36.43,36.43,0,0,0,52.1,76.72a36.86,36.86,0,0,0,24.61,43.63c0-.67.08-1.34.11-2,.39,0,.77,0,1.16,0a26.9,26.9,0,0,0,25.54-18.54c11.16-1.08,19.91-8.21,20.8-17.08A36.71,36.71,0,0,0,87.76,48.45Z" transform="translate(0)" style="fill:#4b3648"/></svg>