<svg width="291" height="231" viewBox="0 0 291 231" fill="none" xmlns="http://www.w3.org/2000/svg">
<path d="M0.74292 0.575195H290.425V209.005C290.425 220.712 280.936 230.201 269.229 230.201H21.9389C10.2329 230.201 0.74292 220.712 0.74292 209.005V0.575195Z" fill="white"/>
<path d="M23.0559 30.1221V42.9681H25.6899V34.5751H25.7969L29.1209 42.9051H30.9149L34.2399 34.6071H34.3459V42.9681H36.9809V30.1221H33.6309L30.0939 38.7531H29.9429L26.4049 30.1221H23.0559ZM41.9159 43.1501C43.3399 43.1501 44.2619 42.5291 44.7319 41.6321H44.8069V42.9681H47.3419V36.4691C47.3419 34.1741 45.3969 33.2081 43.2519 33.2081C40.9439 33.2081 39.4259 34.3121 39.0559 36.0681L41.5269 36.2691C41.7089 35.6291 42.2799 35.1591 43.2389 35.1591C44.1489 35.1591 44.6699 35.6161 44.6699 36.4071V36.4441C44.6699 37.0651 44.0109 37.1471 42.3359 37.3101C40.4289 37.4861 38.7169 38.1251 38.7169 40.2771C38.7169 42.1841 40.0779 43.1501 41.9159 43.1501ZM42.6809 41.3061C41.8589 41.3061 41.2699 40.9231 41.2699 40.1891C41.2699 39.4361 41.8909 39.0661 42.8319 38.9351C43.4149 38.8531 44.3679 38.7151 44.6879 38.5021V39.5241C44.6879 40.5341 43.8539 41.3061 42.6809 41.3061ZM49.4149 46.5811H52.0869V41.4251H52.1689C52.5389 42.2281 53.3479 43.1251 54.9029 43.1251C57.0989 43.1251 58.8109 41.3871 58.8109 38.1631C58.8109 34.8511 57.0239 33.2081 54.9089 33.2081C53.2969 33.2081 52.5249 34.1671 52.1689 34.9521H52.0489V33.3331H49.4149V46.5811ZM52.0299 38.1511C52.0299 36.4321 52.7579 35.3341 54.0559 35.3341C55.3799 35.3341 56.0819 36.4821 56.0819 38.1511C56.0819 39.8321 55.3679 40.9981 54.0559 40.9981C52.7699 40.9981 52.0299 39.8691 52.0299 38.1511ZM60.5919 33.3331V42.9681H73.6829V33.3331H71.1299V40.8481H68.4149V33.3331H65.8609V40.8481H63.1459V33.3331H60.5919ZM75.7549 46.5811H78.4269V41.4251H78.5089C78.8789 42.2281 79.6879 43.1251 81.2429 43.1251C83.4379 43.1251 85.1509 41.3871 85.1509 38.1631C85.1509 34.8511 83.3629 33.2081 81.2499 33.2081C79.6369 33.2081 78.8659 34.1671 78.5089 34.9521H78.3889V33.3331H75.7549V46.5811ZM78.3709 38.1511C78.3709 36.4321 79.0979 35.3341 80.3969 35.3341C81.7199 35.3341 82.4229 36.4821 82.4229 38.1511C82.4229 39.8321 81.7069 40.9981 80.3969 40.9981C79.1109 40.9981 78.3709 39.8691 78.3709 38.1511ZM88.2539 46.5621C90.2419 46.5621 91.3029 45.5521 91.8429 44.0091L95.5869 33.3461L92.7579 33.3331L90.7449 40.4091H90.6439L88.6489 33.3331H85.8399L89.2959 43.2441L89.1379 43.6521C88.7619 44.5231 88.1169 44.5861 87.1749 44.2911L86.5739 46.2921C86.9559 46.4491 87.5769 46.5621 88.2539 46.5621ZM96.4529 35.4351H99.5329V42.9681H102.079V35.4351H105.184V33.3331H96.4529V35.4351Z" fill="#242723"/>
<path d="M265.696 113.622H53.7339C51.7829 113.622 50.2009 115.204 50.2009 117.155V145.416C50.2009 147.368 51.7829 148.949 53.7339 148.949H265.696C267.647 148.949 269.229 147.368 269.229 145.416V117.155C269.229 115.204 267.647 113.622 265.696 113.622Z" fill="white"/>
<path d="M266.579 147.183H52.8498C52.3628 147.183 51.9668 147.578 51.9668 148.066C51.9668 148.554 52.3628 148.949 52.8498 148.949H266.579C267.067 148.949 267.463 148.554 267.463 148.066C267.463 147.578 267.067 147.183 266.579 147.183Z" fill="#ECECEC"/>
<path d="M57.949 126.529H61.181V135.701H62.425V126.529H65.657V125.425H57.949V126.529ZM69.53 135.862C71.096 135.862 72.241 135.079 72.602 133.915L71.457 133.594C71.156 134.397 70.459 134.798 69.53 134.798C68.14 134.798 67.182 133.9 67.127 132.249H72.722V131.747C72.722 128.877 71.016 127.893 69.41 127.893C67.322 127.893 65.937 129.54 65.937 131.908C65.937 134.276 67.303 135.862 69.53 135.862ZM67.127 131.226C67.207 130.026 68.055 128.958 69.41 128.958C70.695 128.958 71.517 129.921 71.517 131.226H67.127ZM74.524 138.592H75.708V134.517H75.808C76.069 134.938 76.571 135.862 78.056 135.862C79.983 135.862 81.328 134.317 81.328 131.868C81.328 129.439 79.983 127.893 78.036 127.893C76.53 127.893 76.069 128.817 75.808 129.218H75.667V127.994H74.524V138.592ZM75.688 131.847C75.688 130.122 76.451 128.958 77.896 128.958C79.401 128.958 80.143 130.221 80.143 131.847C80.143 133.494 79.381 134.798 77.896 134.798C76.47 134.798 75.688 133.594 75.688 131.847ZM86.366 135.862C87.932 135.862 89.076 135.079 89.437 133.915L88.293 133.594C87.992 134.397 87.294 134.798 86.366 134.798C84.976 134.798 84.018 133.9 83.962 132.249H89.557V131.747C89.557 128.877 87.852 127.893 86.245 127.893C84.158 127.893 82.773 129.54 82.773 131.908C82.773 134.276 84.138 135.862 86.366 135.862ZM83.962 131.226C84.043 130.026 84.89 128.958 86.245 128.958C87.53 128.958 88.353 129.921 88.353 131.226H83.962ZM95.574 134.096L92.925 127.994H91.359V135.701H92.543V129.695L95.093 135.701H96.056L98.605 129.805V135.701H99.79V127.994H98.264L95.574 134.096ZM101.957 135.701H103.141V132.45H104.206L106.734 135.701H108.26L105.108 131.707L108.22 127.994H106.694L103.925 131.346H103.141V127.994H101.957V135.701ZM110.731 133.955V127.994H109.547V135.701H110.932L114.625 129.74V135.701H115.81V127.994H114.444L110.731 133.955Z" fill="#232D42"/>
<path fill-rule="evenodd" clip-rule="evenodd" d="M246.891 125.362C246.546 125.017 245.986 125.017 245.642 125.362C245.297 125.706 245.297 126.266 245.642 126.611L250.317 131.285L245.642 135.96C245.297 136.305 245.297 136.865 245.642 137.209C245.986 137.554 246.546 137.554 246.891 137.209L251.566 132.534L256.24 137.209C256.585 137.554 257.145 137.554 257.489 137.209C257.834 136.865 257.834 136.305 257.489 135.96L252.814 131.285L257.489 126.611C257.834 126.266 257.834 125.706 257.489 125.362C257.145 125.017 256.585 125.017 256.24 125.362L251.566 130.037L246.891 125.362Z" fill="black"/>
<path d="M265.696 64.1641H53.7339C51.7829 64.1641 50.2009 65.7461 50.2009 67.6971V95.9581C50.2009 97.9101 51.7829 99.4911 53.7339 99.4911H265.696C267.647 99.4911 269.229 97.9101 269.229 95.9581V67.6971C269.229 65.7461 267.647 64.1641 265.696 64.1641Z" fill="white"/>
<path d="M266.579 97.7251H52.8498C52.3628 97.7251 51.9668 98.1201 51.9668 98.6081C51.9668 99.0961 52.3628 99.4911 52.8498 99.4911H266.579C267.067 99.4911 267.463 99.0961 267.463 98.6081C267.463 98.1201 267.067 97.7251 266.579 97.7251Z" fill="#ECECEC"/>
<path d="M64.553 86.2428H66.038L61.742 80.4818L65.898 75.9668H64.412L60.297 80.4218H59.755V75.9668H58.511V86.2428H59.755V81.5258H61.02L64.553 86.2428ZM68.67 84.4968V78.5358H67.486V86.2428H68.87L72.564 80.2818V86.2428H73.748V78.5358H72.383L68.67 84.4968ZM79.149 86.4038C80.715 86.4038 81.858 85.6208 82.22 84.4568L81.076 84.1358C80.775 84.9388 80.077 85.3398 79.149 85.3398C77.759 85.3398 76.8 84.4418 76.745 82.7908H82.341V82.2888C82.341 79.4188 80.634 78.4348 79.029 78.4348C76.941 78.4348 75.556 80.0818 75.556 82.4498C75.556 84.8178 76.921 86.4038 79.149 86.4038ZM76.745 81.7678C76.825 80.5678 77.674 79.4998 79.029 79.4998C80.313 79.4998 81.136 80.4628 81.136 81.7678H76.745ZM84.141 86.2428H87.775C89.341 86.2428 90.284 85.3598 90.284 84.1758C90.284 82.9668 89.365 82.3138 88.518 82.1888C89.386 82.0088 90.003 81.5208 90.003 80.5828C90.003 79.3538 88.949 78.5358 87.294 78.5358H84.141V86.2428ZM85.266 85.1598V82.7908H87.775C88.587 82.7908 89.079 83.2778 89.079 84.0748C89.079 84.7478 88.587 85.1598 87.775 85.1598H85.266ZM85.266 81.7678V79.6198H87.294C88.241 79.6198 88.819 80.0158 88.819 80.6638C88.819 81.3508 88.241 81.7678 87.294 81.7678H85.266Z" fill="#232D42"/>
<path fill-rule="evenodd" clip-rule="evenodd" d="M246.891 75.9038C246.546 75.5588 245.986 75.5588 245.642 75.9038C245.297 76.2478 245.297 76.8078 245.642 77.1528L250.317 81.8268L245.642 86.5018C245.297 86.8468 245.297 87.4068 245.642 87.7508C245.986 88.0958 246.546 88.0958 246.891 87.7508L251.566 83.0758L256.24 87.7508C256.585 88.0958 257.145 88.0958 257.489 87.7508C257.834 87.4068 257.834 86.8468 257.489 86.5018L252.814 81.8268L257.489 77.1528C257.834 76.8078 257.834 76.2478 257.489 75.9038C257.145 75.5588 256.585 75.5588 256.24 75.9038L251.566 80.5788L246.891 75.9038Z" fill="black"/>
<path d="M31.6539 84.4768C31.6539 83.9888 31.2589 83.5938 30.7709 83.5938C30.2829 83.5938 29.8879 83.9888 29.8879 84.4768V130.402C29.8879 130.89 30.2829 131.285 30.7709 131.285C31.2589 131.285 31.6539 130.89 31.6539 130.402V84.4768Z" fill="#00CD78"/>
<g filter="url(#filter0_dddd)">
<path d="M30.7709 88.01C34.1849 88.01 36.9529 85.242 36.9529 81.828C36.9529 78.413 34.1849 75.646 30.7709 75.646C27.3569 75.646 24.5889 78.413 24.5889 81.828C24.5889 85.242 27.3569 88.01 30.7709 88.01Z" fill="#00CD78"/>
</g>
<path d="M30.7708 84.4772C32.2338 84.4772 33.4208 83.2912 33.4208 81.8282C33.4208 80.3642 32.2338 79.1782 30.7708 79.1782C29.3078 79.1782 28.1218 80.3642 28.1218 81.8282C28.1218 83.2912 29.3078 84.4772 30.7708 84.4772Z" fill="white"/>
<g filter="url(#filter1_dddd)">
<path d="M30.7709 137.468C34.1849 137.468 36.9529 134.7 36.9529 131.285C36.9529 127.871 34.1849 125.103 30.7709 125.103C27.3569 125.103 24.5889 127.871 24.5889 131.285C24.5889 134.7 27.3569 137.468 30.7709 137.468Z" fill="#00CD78"/>
</g>
<path d="M30.7708 133.935C32.2338 133.935 33.4208 132.749 33.4208 131.285C33.4208 129.822 32.2338 128.636 30.7708 128.636C29.3078 128.636 28.1218 129.822 28.1218 131.285C28.1218 132.749 29.3078 133.935 30.7708 133.935Z" fill="white"/>
<path d="M249.799 170.146H41.369C30.638 170.146 21.939 178.845 21.939 189.575C21.939 200.306 30.638 209.005 41.369 209.005H249.799C260.53 209.005 269.229 200.306 269.229 189.575C269.229 178.845 260.53 170.146 249.799 170.146Z" fill="#00CD78"/>
<path d="M52.2989 184.598H44.3699V194.874H45.9159V185.922H50.7529V194.874H52.2989V184.598ZM54.5489 197.765H56.0489V193.675H56.1389C56.4109 194.167 56.9629 195.024 58.3679 195.024C60.2349 195.024 61.5899 193.529 61.5899 191.035C61.5899 188.537 60.2139 187.066 58.3529 187.066C56.9229 187.066 56.4059 187.94 56.1389 188.417H56.0139V187.167H54.5489V197.765ZM56.0189 191.02C56.0189 189.409 56.7219 188.341 58.0309 188.341C59.3909 188.341 60.0739 189.49 60.0739 191.02C60.0739 192.566 59.3719 193.746 58.0309 193.746C56.7419 193.746 56.0189 192.642 56.0189 191.02ZM66.5169 195.03C68.6899 195.03 70.1099 193.439 70.1099 191.055C70.1099 188.657 68.6899 187.066 66.5169 187.066C64.3439 187.066 62.9239 188.657 62.9239 191.055C62.9239 193.439 64.3439 195.03 66.5169 195.03ZM66.5219 193.77C65.1019 193.77 64.4399 192.531 64.4399 191.05C64.4399 189.575 65.1019 188.321 66.5219 188.321C67.9329 188.321 68.5949 189.575 68.5949 191.05C68.5949 192.531 67.9329 193.77 66.5219 193.77ZM71.0329 197.097H72.5169V194.874H77.8919V197.097H79.3569V193.574H78.1729V187.167H72.9339L72.6929 190.042C72.5329 191.984 72.2959 192.998 71.6599 193.574H71.0329V197.097ZM73.2649 193.574C73.7769 192.857 73.9679 191.663 74.1179 190.042L74.2789 188.451H76.7079V193.574H73.2649ZM84.0699 195.03C86.2429 195.03 87.6639 193.439 87.6639 191.055C87.6639 188.657 86.2429 187.066 84.0699 187.066C81.8969 187.066 80.4769 188.657 80.4769 191.055C80.4769 193.439 81.8969 195.03 84.0699 195.03ZM84.0749 193.77C82.6549 193.77 81.9929 192.531 81.9929 191.05C81.9929 189.575 82.6549 188.321 84.0749 188.321C85.4859 188.321 86.1479 189.575 86.1479 191.05C86.1479 192.531 85.4859 193.77 84.0749 193.77ZM88.7309 194.874H89.2129C90.8929 194.874 91.5109 193.63 91.6319 191.081L91.7519 188.462H94.2709V194.874H95.7409V187.167H90.3619L90.2269 190.579C90.1309 192.958 89.8599 193.574 89.0019 193.574H88.7259L88.7309 194.874ZM97.2509 194.874H99.0319L101.45 191.663H101.953V194.874H103.452V191.663H103.955L106.358 194.874H108.139L105.169 190.93L108.104 187.167H106.358L103.974 190.368H103.452V187.167H101.953V190.368H101.416L99.0319 187.167H97.2849L100.236 190.93L97.2509 194.874ZM111.135 192.771V187.167H109.665V194.874H111.296L114.678 189.264V194.874H116.148V187.167H114.533L111.135 192.771ZM117.209 188.462H119.734V194.874H121.199V188.462H123.713V187.167H117.209V188.462ZM126.77 189.816V187.167H125.3V194.874H128.667C130.554 194.874 131.608 193.78 131.608 192.33C131.608 190.85 130.554 189.816 128.667 189.816H126.77ZM126.77 191.111H128.667C129.53 191.111 130.147 191.633 130.147 192.375C130.147 193.078 129.53 193.58 128.667 193.58H126.77V191.111Z" fill="#F2F4FA"/>
<path d="M249.799 189.575L250.438 190.185L251.02 189.575L250.438 188.966L249.799 189.575ZM239.201 188.692C238.713 188.692 238.318 189.088 238.318 189.575C238.318 190.063 238.713 190.459 239.201 190.459V188.692ZM244.102 194.265C243.765 194.617 243.778 195.176 244.131 195.513C244.484 195.85 245.043 195.837 245.38 195.484L244.102 194.265ZM245.38 183.667C245.043 183.314 244.484 183.3 244.131 183.638C243.778 183.974 243.765 184.533 244.102 184.886L245.38 183.667ZM249.799 188.692H239.201V190.459H249.799V188.692ZM249.161 188.966L244.102 194.265L245.38 195.484L250.438 190.185L249.161 188.966ZM250.438 188.966L245.38 183.667L244.102 184.886L249.161 190.185L250.438 188.966Z" fill="white"/>
<defs>
<filter id="filter0_dddd" x="16.5889" y="69.646" width="28.364" height="30.364" filterUnits="userSpaceOnUse" color-interpolation-filters="sRGB">
<feFlood flood-opacity="0" result="BackgroundImageFix"/>
<feColorMatrix in="SourceAlpha" type="matrix" values="0 0 0 0 0 0 0 0 0 0 0 0 0 0 0 0 0 0 127 0"/>
<feOffset/>
<feGaussianBlur stdDeviation="0.5"/>
<feColorMatrix type="matrix" values="0 0 0 0 0 0 0 0 0 0 0 0 0 0 0 0 0 0 0.04 0"/>
<feBlend mode="normal" in2="BackgroundImageFix" result="effect1_dropShadow"/>
<feColorMatrix in="SourceAlpha" type="matrix" values="0 0 0 0 0 0 0 0 0 0 0 0 0 0 0 0 0 0 127 0"/>
<feOffset/>
<feGaussianBlur stdDeviation="1"/>
<feColorMatrix type="matrix" values="0 0 0 0 0 0 0 0 0 0.803922 0 0 0 0 0.470588 0 0 0 0.12 0"/>
<feBlend mode="normal" in2="effect1_dropShadow" result="effect2_dropShadow"/>
<feColorMatrix in="SourceAlpha" type="matrix" values="0 0 0 0 0 0 0 0 0 0 0 0 0 0 0 0 0 0 127 0"/>
<feOffset dy="4"/>
<feGaussianBlur stdDeviation="4"/>
<feColorMatrix type="matrix" values="0 0 0 0 0 0 0 0 0 0.803922 0 0 0 0 0.470588 0 0 0 0.18 0"/>
<feBlend mode="normal" in2="effect2_dropShadow" result="effect3_dropShadow"/>
<feColorMatrix in="SourceAlpha" type="matrix" values="0 0 0 0 0 0 0 0 0 0 0 0 0 0 0 0 0 0 127 0"/>
<feOffset/>
<feGaussianBlur stdDeviation="3"/>
<feColorMatrix type="matrix" values="0 0 0 0 0 0 0 0 0 0.803922 0 0 0 0 0.470588 0 0 0 0.65 0"/>
<feBlend mode="normal" in2="effect3_dropShadow" result="effect4_dropShadow"/>
<feBlend mode="normal" in="SourceGraphic" in2="effect4_dropShadow" result="shape"/>
</filter>
<filter id="filter1_dddd" x="16.5889" y="119.103" width="28.364" height="30.365" filterUnits="userSpaceOnUse" color-interpolation-filters="sRGB">
<feFlood flood-opacity="0" result="BackgroundImageFix"/>
<feColorMatrix in="SourceAlpha" type="matrix" values="0 0 0 0 0 0 0 0 0 0 0 0 0 0 0 0 0 0 127 0"/>
<feOffset/>
<feGaussianBlur stdDeviation="0.5"/>
<feColorMatrix type="matrix" values="0 0 0 0 0 0 0 0 0 0 0 0 0 0 0 0 0 0 0.04 0"/>
<feBlend mode="normal" in2="BackgroundImageFix" result="effect1_dropShadow"/>
<feColorMatrix in="SourceAlpha" type="matrix" values="0 0 0 0 0 0 0 0 0 0 0 0 0 0 0 0 0 0 127 0"/>
<feOffset/>
<feGaussianBlur stdDeviation="1"/>
<feColorMatrix type="matrix" values="0 0 0 0 0 0 0 0 0 0.803922 0 0 0 0 0.470588 0 0 0 0.12 0"/>
<feBlend mode="normal" in2="effect1_dropShadow" result="effect2_dropShadow"/>
<feColorMatrix in="SourceAlpha" type="matrix" values="0 0 0 0 0 0 0 0 0 0 0 0 0 0 0 0 0 0 127 0"/>
<feOffset dy="4"/>
<feGaussianBlur stdDeviation="4"/>
<feColorMatrix type="matrix" values="0 0 0 0 0 0 0 0 0 0.803922 0 0 0 0 0.470588 0 0 0 0.18 0"/>
<feBlend mode="normal" in2="effect2_dropShadow" result="effect3_dropShadow"/>
<feColorMatrix in="SourceAlpha" type="matrix" values="0 0 0 0 0 0 0 0 0 0 0 0 0 0 0 0 0 0 127 0"/>
<feOffset/>
<feGaussianBlur stdDeviation="3"/>
<feColorMatrix type="matrix" values="0 0 0 0 0 0 0 0 0 0.803922 0 0 0 0 0.470588 0 0 0 0.65 0"/>
<feBlend mode="normal" in2="effect3_dropShadow" result="effect4_dropShadow"/>
<feBlend mode="normal" in="SourceGraphic" in2="effect4_dropShadow" result="shape"/>
</filter>
</defs>
</svg>
