<svg xmlns="http://www.w3.org/2000/svg" width="297.69" height="856" viewBox="0 0 297.69 856"><title>for-passenger-road</title><path d="M280.47,828.87l-29.94-1.74c6.56-112.88-62.45-193.11-129.19-270.7-40.49-47.07-78.74-91.53-97.83-141l28-10.8c17.24,44.66,53.84,87.22,92.59,132.26C211.42,615.15,287.75,703.88,280.47,828.87Z" transform="translate(-0.31)" style="fill:#00cd78"/><path d="M268,828.14l-5-.28c.15-2.54.26-5.08.34-7.56l5,.15C268.26,823,268.14,825.56,268,828.14Zm-4.54-15.77q0-4-.12-7.92l5-.15c.08,2.65.12,5.34.12,8ZM263,796.54c-.16-2.65-.36-5.31-.6-7.9l5-.45c.24,2.64.45,5.35.61,8Zm-1.44-15.77c-.32-2.59-.69-5.23-1.09-7.84l4.94-.76c.41,2.66.78,5.35,1.11,8Zm-2.41-15.64c-.49-2.6-1-5.21-1.57-7.76l4.89-1.06c.56,2.6,1.1,5.26,1.59,7.91Zm-3.37-15.47c-.63-2.54-1.31-5.12-2-7.66l4.81-1.35c.72,2.59,1.42,5.21,2.07,7.8Zm-4.27-15.25c-.79-2.51-1.62-5-2.47-7.53l4.73-1.63c.87,2.54,1.71,5.12,2.51,7.67Zm-5.15-15c-.91-2.45-1.88-4.93-2.88-7.39l4.64-1.88c1,2.5,2,5,2.93,7.52Zm-6-14.71c-1-2.38-2.13-4.81-3.24-7.21l4.53-2.11c1.14,2.44,2.25,4.91,3.3,7.33Zm-6.66-14.35c-1.16-2.35-2.37-4.73-3.59-7.07l4.43-2.32c1.24,2.38,2.47,4.79,3.64,7.17Zm-7.34-14.07c-1.27-2.31-2.58-4.64-3.9-6.92l4.34-2.5c1.33,2.31,2.66,4.67,3.94,7Zm-7.93-13.77c-1.37-2.26-2.77-4.54-4.17-6.78l4.23-2.66c1.42,2.26,2.84,4.57,4.22,6.86ZM210,649q-2.17-3.33-4.4-6.63l4.14-2.8c1.5,2.22,3,4.46,4.45,6.7Zm-8.91-13.2q-2.28-3.27-4.6-6.51l4.06-2.91q2.34,3.26,4.64,6.56Zm-9.3-13q-2.35-3.21-4.77-6.39l4-3c1.62,2.14,3.22,4.28,4.81,6.44Zm-9.61-12.73c-1.63-2.1-3.26-4.19-4.91-6.28l3.93-3.1c1.65,2.1,3.3,4.21,4.93,6.33Zm-9.87-12.52q-2.51-3.11-5-6.2l3.87-3.16q2.53,3.11,5,6.23Zm-10.09-12.36q-2.53-3.07-5.1-6.12l3.84-3.21c1.71,2,3.41,4.09,5.12,6.15ZM152,573.05q-2.56-3-5.15-6.08l3.8-3.24q2.6,3,5.17,6.09Zm-10.33-12.14c-1.73-2-3.47-4-5.2-6.07l3.79-3.26,5.21,6.08Zm-10.42-12.14L126,542.71l3.79-3.26,5.22,6.06Zm-10.43-12.14-5.21-6.09,3.81-3.24,5.19,6.07Zm-10.39-12.2c-1.73-2-3.45-4.09-5.16-6.14l3.83-3.2c1.71,2,3.42,4.07,5.15,6.11Zm-10.29-12.3q-2.56-3.11-5.08-6.21l3.88-3.15c1.67,2.06,3.36,4.11,5.06,6.18ZM90,499.67c-1.68-2.1-3.33-4.2-5-6.3L89,490.29c1.63,2.09,3.27,4.18,4.94,6.26ZM80.15,487c-1.63-2.14-3.24-4.29-4.82-6.43l4-3q2.36,3.18,4.78,6.38Zm-9.54-12.94c-1.59-2.24-3.15-4.45-4.62-6.6l4.13-2.82c1.45,2.11,3,4.31,4.56,6.52Zm-9.1-13.28c-1.49-2.26-2.95-4.55-4.35-6.78l4.24-2.65c1.38,2.2,2.82,4.45,4.29,6.68ZM53,447.11c-1.39-2.34-2.73-4.7-4-7l4.37-2.42c1.26,2.26,2.58,4.57,3.94,6.88ZM45.15,433c-1.24-2.41-2.45-4.84-3.59-7.24l4.52-2.14c1.11,2.34,2.3,4.73,3.51,7.09Zm-6.92-14.6c-1.08-2.5-2.11-5-3.06-7.49l4.66-1.8c.93,2.41,1.94,4.87,3,7.31Z" transform="translate(-0.31)" style="fill:#f2f4fa"/><path d="M22.11,415.77C.09,372.2-5.18,336.51,6,306.65c8-21.38,24.5-39.54,50.43-55.49,21.67-13.33,46.94-23.63,73.7-34.54,40.27-16.42,81.92-33.4,107.38-60.56,27.7-29.55,32.85-68,16.2-121.07l28.62-9c19.95,63.57,12.45,112.82-22.93,150.57-29.95,31.95-74.68,50.18-117.94,67.82C92.81,264.22,46.88,283,34.08,317.16c-8.06,21.58-3.22,49.4,14.81,85.07Z" transform="translate(-0.31)" style="fill:#00cd78"/><path d="M32.18,408c-1.22-2.46-2.39-4.91-3.48-7.29l4.54-2.08c1.08,2.33,2.23,4.74,3.42,7.15Zm-6.73-14.69c-1.06-2.52-2.07-5.05-3-7.51L27.13,384c.91,2.41,1.89,4.88,2.93,7.35ZM19.76,378.1c-.86-2.61-1.65-5.23-2.35-7.77L22.23,369c.68,2.47,1.45,5,2.28,7.54Zm-4.29-15.67c-.59-2.71-1.08-5.41-1.47-8l4.95-.74c.37,2.51.84,5.11,1.41,7.71Zm-2.38-16.16c-.18-2.43-.27-4.85-.27-7.2,0-.34,0-.67,0-1l5,.05c0,.31,0,.63,0,.95,0,2.23.09,4.53.26,6.83Zm5.18-15.89-5-.53a78.78,78.78,0,0,1,1.28-8.11l4.89,1A75,75,0,0,0,18.27,330.38Zm3.2-15-4.75-1.56a71.79,71.79,0,0,1,3-7.65l4.54,2.08A67.08,67.08,0,0,0,21.47,315.37Zm6.36-13.93-4.29-2.56a81.22,81.22,0,0,1,4.54-6.8l4,3A76.24,76.24,0,0,0,27.83,301.44ZM37,289.07l-3.73-3.34c1.77-2,3.68-3.94,5.7-5.86l3.44,3.63C40.49,285.32,38.67,287.19,37,289.07Zm11.26-10.75-3.19-3.85c2-1.68,4.19-3.35,6.43-5l3,4C52.29,275.09,50.21,276.71,48.26,278.32ZM60.92,269l-2.75-4.18c2.18-1.43,4.49-2.88,6.87-4.3l2.57,4.29C65.29,266.22,63,267.63,60.92,269Zm13.55-8.14-2.42-4.37c2.27-1.26,4.67-2.53,7.13-3.8l2.29,4.45C79.05,258.41,76.7,259.66,74.47,260.89Zm14.11-7.28-2.19-4.49c2.31-1.12,4.76-2.28,7.29-3.45l2.09,4.54C93.27,251.37,90.85,252.51,88.58,253.61ZM103,246.94l-2-4.58c2.44-1.07,4.89-2.14,7.37-3.2l2,4.59Q106.66,245.34,103,246.94Zm14.68-6.3L115.78,236c2.45-1,4.93-2.05,7.41-3.07l1.9,4.62Zm14.79-6.09-1.89-4.63,7.41-3,1.89,4.63Zm14.83-6.06-1.9-4.63c2.47-1,4.95-2,7.42-3.06l1.92,4.61Zm14.85-6.2-2-4.6q3.67-1.56,7.32-3.16l2,4.58Q165.88,220.72,162.18,222.29Zm14.7-6.44-2.07-4.56c2.42-1.1,4.84-2.21,7.23-3.34l2.14,4.52C181.76,213.61,179.32,214.74,176.88,215.85Zm14.55-6.9-2.23-4.47c2.41-1.2,4.79-2.42,7.09-3.62l2.32,4.43C196.29,206.51,193.87,207.74,191.43,209Zm14.28-7.51-2.44-4.36c2.34-1.31,4.65-2.65,6.86-4l2.57,4.29C210.45,198.75,208.1,200.11,205.71,201.44Zm13.86-8.32-2.72-4.2c2.25-1.45,4.45-2.94,6.55-4.42l2.88,4.09C224.13,190.11,221.87,191.63,219.57,193.12Zm13.23-9.34-3.05-4c2.1-1.63,4.16-3.3,6.1-5l3.25,3.79C237.1,180.37,235,182.1,232.8,183.78Zm12.33-10.58-3.45-3.61c1.9-1.83,3.75-3.71,5.49-5.59l3.67,3.4C249,169.35,247.12,171.3,245.13,173.2Zm11.05-12-3.89-3.15c1.65-2,3.23-4.14,4.69-6.23l4.1,2.86C259.55,156.91,257.9,159.1,256.18,161.24Zm9.32-13.39-4.31-2.55c1.32-2.23,2.57-4.53,3.7-6.84l4.49,2.21C268.19,143.09,266.88,145.5,265.5,147.85Zm7.19-14.65-4.64-1.85c.95-2.38,1.82-4.85,2.59-7.32l4.77,1.48C274.61,128.11,273.69,130.7,272.69,133.2Zm4.85-15.56-4.87-1.12c.58-2.5,1.08-5.08,1.49-7.65l4.93.78C278.67,112.34,278.15,115,277.54,117.64Zm2.55-16.06-5-.45c.23-2.55.39-5.18.46-7.8l5,.14C280.49,96.2,280.33,98.93,280.09,101.58Zm-4.52-16.11c-.07-2.56-.21-5.21-.43-7.85l5-.4c.22,2.73.36,5.46.44,8.12Zm-1.24-15.69c-.33-2.55-.72-5.18-1.17-7.81l4.93-.84c.46,2.7.87,5.4,1.2,8Zm-2.65-15.57c-.53-2.52-1.13-5.11-1.77-7.71l4.85-1.2c.66,2.65,1.27,5.31,1.81,7.88Zm-3.8-15.37c-.7-2.48-1.46-5-2.27-7.59l4.78-1.5c.81,2.6,1.59,5.21,2.3,7.74Z" transform="translate(-0.31)" style="fill:#f2f4fa"/><path d="M268,60a30,30,0,1,0-30-30A30,30,0,0,0,268,60Z" transform="translate(-0.31)" style="fill:#00cd78"/><path d="M258.83,23.51a2.68,2.68,0,1,1,2.69-2.68,2.72,2.72,0,0,1-.79,1.9A2.68,2.68,0,0,1,258.83,23.51Zm0-10.18a7.47,7.47,0,0,0-7.5,7.5c0,5.61,7.5,13.93,7.5,13.93s7.5-8.32,7.5-13.93A7.46,7.46,0,0,0,258.83,13.33Zm18.34,10.18a2.68,2.68,0,0,1-1.9-.78,2.72,2.72,0,0,1-.79-1.9,2.69,2.69,0,1,1,2.69,2.68Zm0-10.18a7.46,7.46,0,0,0-7.5,7.5c0,5.61,7.5,13.93,7.5,13.93s7.5-8.32,7.5-13.93A7.47,7.47,0,0,0,277.17,13.33Zm0,23.33a5,5,0,0,0-4.7,3.33h-8.94a5,5,0,1,0-3,6.38,5.05,5.05,0,0,0,3-3h9A5,5,0,0,0,281.92,40,5,5,0,0,0,277.17,36.66Zm0,7.5a2.5,2.5,0,1,1,0-5,2.47,2.47,0,0,1,1.76.73,2.51,2.51,0,0,1-1.76,4.27Z" transform="translate(-0.31)" style="fill:#fff"/><path d="M37,438A30,30,0,1,0,7,408,30,30,0,0,0,37,438Z" transform="translate(-0.31)" style="fill:#00cd78"/><path d="M20.33,408A16.67,16.67,0,1,1,37,424.67,16.72,16.72,0,0,1,20.33,408Zm15.79,2.15,6.8,4.18a1.26,1.26,0,1,0,1.31-2.15l-6.4-3.85v-7.41a1.25,1.25,0,0,0-1.25-1.25,1.27,1.27,0,0,0-1.26,1.25v7.81A1.64,1.64,0,0,0,36.12,410.15Z" transform="translate(-0.31)" style="fill:#fff"/><path d="M268,856a30,30,0,1,0-30-30A30,30,0,0,0,268,856Z" transform="translate(-0.31)" style="fill:#00cd78"/><path d="M279.85,824.28l-2.74-7.88a2.07,2.07,0,0,0-2-1.4H259.86a2.08,2.08,0,0,0-2,1.4l-2.74,7.88a3.1,3.1,0,0,0-.15.91v9.95a2.09,2.09,0,0,0,4.17,0v-.7h16.66v.7a2.09,2.09,0,0,0,4.17,0v-9.95A3.15,3.15,0,0,0,279.85,824.28Zm-20,6a2.09,2.09,0,1,1,2.08-2.09A2.08,2.08,0,0,1,259.86,830.28Zm15.28,0a2.09,2.09,0,1,1,2.08-2.09A2.08,2.08,0,0,1,275.14,830.28Zm-17.36-6.95,1.76-5.3a1.41,1.41,0,0,1,1.32-.95h13.28a1.41,1.41,0,0,1,1.32.95l1.76,5.3Z" transform="translate(-0.31)" style="fill:#fff"/></svg>