<svg width="299" height="280" viewBox="0 0 299 280" fill="none" xmlns="http://www.w3.org/2000/svg">
<path d="M290.519 0.760742H8.56083C4.18663 0.760742 0.640625 4.30676 0.640625 8.68076V271.631C0.640625 276.005 4.18663 279.551 8.56083 279.551H290.519C294.893 279.551 298.439 276.005 298.439 271.631V8.68076C298.439 4.30676 294.893 0.760742 290.519 0.760742Z" fill="white"/>
<path d="M20.0261 123.926H22.3661V121.147H29.3132V123.914H31.6532V119.206H30.3932V109.627H22.7712L22.4449 114.498C22.248 117.513 21.6011 118.632 20.808 119.206H20.0261V123.926ZM23.6205 119.206C24.1999 118.255 24.633 116.776 24.785 114.498L24.9649 111.635H28.0531V119.206H23.6205ZM35.5528 121.31C36.8297 121.31 37.6567 120.753 38.0785 119.949H38.146V121.147H40.4186V115.319C40.4186 113.261 38.6748 112.394 36.751 112.394C34.6809 112.394 33.3197 113.384 32.9878 114.96L35.2041 115.139C35.3672 114.565 35.8791 114.144 36.7397 114.144C37.5554 114.144 38.0223 114.554 38.0223 115.263V115.297C38.0223 115.854 37.4316 115.927 35.9297 116.073C34.2197 116.231 32.684 116.804 32.684 118.734C32.684 120.444 33.9046 121.31 35.5528 121.31ZM36.2391 119.656C35.5022 119.656 34.9735 119.313 34.9735 118.655C34.9735 117.98 35.5303 117.648 36.3741 117.53C36.8972 117.457 37.7523 117.333 38.0391 117.142V118.059C38.0391 118.964 37.291 119.656 36.2391 119.656ZM41.4255 114.391H44.1874V121.147H46.4709V114.391H49.2556V112.507H41.4255V114.391ZM52.8624 121.31C54.14 121.31 54.9668 120.753 55.3882 119.949H55.4563V121.147H57.7286V115.319C57.7286 113.261 55.9846 112.394 54.0608 112.394C51.9912 112.394 50.6297 113.384 50.2979 114.96L52.5139 115.139C52.6771 114.565 53.1887 114.144 54.0497 114.144C54.8654 114.144 55.3319 114.554 55.3319 115.263V115.297C55.3319 115.854 54.7419 115.927 53.2394 116.073C51.5295 116.231 49.9937 116.804 49.9937 118.734C49.9937 120.444 51.2142 121.31 52.8624 121.31ZM53.5491 119.656C52.8117 119.656 52.2835 119.313 52.2835 118.655C52.2835 117.98 52.8403 117.648 53.6838 117.53C54.2073 117.457 55.0619 117.333 55.3494 117.142V118.059C55.3494 118.964 54.6009 119.656 53.5491 119.656ZM65.543 117.986V112.507H63.254V121.147H65.633L68.733 115.651V121.147H71.016V112.507H68.654L65.543 117.986ZM76.604 121.147H80.856C83.016 121.147 84.22 120.264 84.22 118.79C84.22 117.653 83.32 116.754 81.767 116.641C83.005 116.427 83.742 115.775 83.742 114.841C83.742 113.345 82.42 112.507 80.288 112.507H76.604V121.147ZM78.837 119.352V117.468H80.856C81.52 117.468 81.925 117.845 81.925 118.458C81.925 119.015 81.52 119.352 80.856 119.352H78.837ZM78.837 116.062V114.34H80.288C81.031 114.34 81.486 114.661 81.486 115.19C81.486 115.736 81.053 116.062 80.338 116.062H78.837ZM85.73 124.387H88.127V119.763H88.2C88.532 120.483 89.257 121.288 90.652 121.288C92.621 121.288 94.157 119.729 94.157 116.838C94.157 113.868 92.554 112.394 90.658 112.394C89.212 112.394 88.521 113.255 88.2 113.958H88.093V112.507H85.73V124.387ZM88.076 116.826C88.076 115.285 88.728 114.301 89.893 114.301C91.08 114.301 91.71 115.33 91.71 116.826C91.71 118.334 91.069 119.381 89.893 119.381C88.74 119.381 88.076 118.368 88.076 116.826ZM99.692 121.316C101.83 121.316 103.27 120.275 103.607 118.672L101.391 118.525C101.149 119.183 100.53 119.527 99.732 119.527C98.533 119.527 97.774 118.734 97.774 117.446V117.44H103.658V116.782C103.658 113.845 101.88 112.394 99.596 112.394C97.054 112.394 95.406 114.2 95.406 116.866C95.406 119.606 97.031 121.316 99.692 121.316ZM97.774 115.955C97.824 114.971 98.572 114.183 99.636 114.183C100.676 114.183 101.396 114.926 101.402 115.955H97.774ZM110.329 118.498L108.057 112.507H105.221V121.147H107.511V115.843L109.53 121.147H111.122L113.266 115.651V121.147H115.527V112.507H112.669L110.329 118.498ZM122.443 121.147H124.676V112.507H120.822C118.584 112.507 117.188 113.654 117.2 115.341C117.195 116.394 117.785 117.215 118.814 117.665L116.952 121.147H119.248L120.907 118.03H122.443V121.147ZM122.443 116.411H120.8C119.928 116.411 119.473 115.972 119.484 115.409C119.473 114.858 119.939 114.385 120.822 114.385H122.443V116.411Z" fill="#242723"/>
<path d="M276.263 133.819H22.8172C21.0676 133.819 19.6492 135.238 19.6492 136.987V162.332C19.6492 164.082 21.0676 165.5 22.8172 165.5H276.263C278.012 165.5 279.431 164.082 279.431 162.332V136.987C279.431 135.238 278.012 133.819 276.263 133.819Z" fill="white"/>
<path d="M277.055 163.916H22.0252C21.5878 163.916 21.2332 164.271 21.2332 164.708C21.2332 165.145 21.5878 165.5 22.0252 165.5H277.055C277.492 165.5 277.847 165.145 277.847 164.708C277.847 164.271 277.492 163.916 277.055 163.916Z" fill="#ECECEC"/>
<path d="M34.5174 147.284C34.1754 145.394 32.6634 144.278 30.8093 144.278C28.4513 144.278 26.7412 146.096 26.7412 149.012C26.7412 151.928 28.4513 153.746 30.8093 153.746C32.6634 153.746 34.1754 152.63 34.5174 150.74H33.4014C33.1314 152.018 32.0334 152.702 30.8093 152.702C29.1353 152.702 27.8213 151.406 27.8213 149.012C27.8213 146.618 29.1353 145.322 30.8093 145.322C32.0334 145.322 33.1314 146.005 33.4014 147.284H34.5174ZM36.8608 156.194C37.8194 156.194 38.4989 155.685 38.8949 154.628L41.8379 146.725L40.6769 146.708L38.7689 152.216H38.6969L36.7888 146.708H35.6368L38.1929 153.656L37.9949 154.196C37.6169 155.231 37.1308 155.33 36.3569 155.132L36.0869 156.068C36.1948 156.122 36.5009 156.194 36.8608 156.194ZM48.3732 144.116C48.0358 144.399 47.5321 144.399 46.8248 144.395C46.5959 144.395 46.344 144.395 46.0692 144.404C43.9632 144.458 42.9191 146.06 42.9191 149.138V149.876C42.9191 152.432 44.1612 153.764 46.0154 153.764C47.8647 153.764 49.0931 152.423 49.0931 150.254C49.0931 148.076 47.8465 146.923 46.2308 146.923C45.2819 146.923 44.3949 147.319 43.9271 148.184H43.8372C43.9811 146.401 44.6468 145.448 46.0874 145.394C47.365 145.339 48.2829 145.376 48.9133 144.764L48.3732 144.116ZM46.0154 152.81C44.7553 152.81 43.9811 151.802 43.9811 150.254C44.0036 148.742 44.764 147.878 45.9971 147.878C47.262 147.878 48.031 148.742 48.031 150.254C48.031 151.811 47.266 152.81 46.0154 152.81ZM55.8482 144.116C55.5101 144.399 55.0063 144.399 54.2999 144.395C54.0702 144.395 53.8183 144.395 53.5435 144.404C51.4375 144.458 50.3936 146.06 50.3936 149.138V149.876C50.3936 152.432 51.6355 153.764 53.4896 153.764C55.339 153.764 56.5682 152.423 56.5682 150.254C56.5682 148.076 55.3216 146.923 53.7058 146.923C52.7562 146.923 51.87 147.319 51.4019 148.184H51.3116C51.4557 146.401 52.1218 145.448 53.5617 145.394C54.84 145.339 55.758 145.376 56.3876 144.764L55.8482 144.116ZM53.4896 152.81C52.2295 152.81 51.4557 151.802 51.4557 150.254C51.4787 148.742 52.239 147.878 53.4722 147.878C54.7363 147.878 55.5061 148.742 55.5061 150.254C55.5061 151.811 54.741 152.81 53.4896 152.81ZM60.9999 153.764C62.8729 153.764 64.1329 152.342 64.1329 150.2C64.1329 148.04 62.8729 146.618 60.9999 146.618C59.1289 146.618 57.8687 148.04 57.8687 150.2C57.8687 152.342 59.1289 153.764 60.9999 153.764ZM60.9999 152.81C59.5789 152.81 58.9309 151.586 58.9309 150.2C58.9309 148.814 59.5789 147.572 60.9999 147.572C62.4229 147.572 63.0709 148.814 63.0709 150.2C63.0709 151.586 62.4229 152.81 60.9999 152.81ZM64.8499 147.698H67.1359V153.62H68.1979V147.698H70.4669V146.708H64.8499V147.698ZM73.6909 153.782C74.8969 153.782 75.5269 153.134 75.7429 152.684H75.7969V153.62H76.8589V149.066C76.8589 146.87 75.1849 146.618 74.3029 146.618C73.2589 146.618 72.0709 146.978 71.5309 148.238L72.5389 148.598C72.7729 148.094 73.3269 147.554 74.3389 147.554C75.3149 147.554 75.7969 148.071 75.7969 148.958V148.994C75.7969 149.507 75.2749 149.462 74.0149 149.624C72.7329 149.791 71.3329 150.074 71.3329 151.658C71.3329 153.008 72.3769 153.782 73.6909 153.782ZM73.8529 152.828C73.0069 152.828 72.3949 152.45 72.3949 151.712C72.3949 150.902 73.1329 150.65 73.9609 150.542C74.4109 150.487 75.6169 150.362 75.7969 150.146V151.118C75.7969 151.982 75.1129 152.828 73.8529 152.828ZM80.3809 152.36H79.2289L79.1759 152.864C79.0449 154.083 78.7879 155.298 78.6709 155.87H79.4809C79.6979 155.258 80.1559 153.872 80.3089 152.846L80.3809 152.36ZM89.1349 144.404H88.0189L85.7149 145.933V147.068L87.9649 145.574H88.0189V153.62H89.1349V144.404ZM98.6799 145.502C96.6279 145.502 95.1519 146.995 95.1519 149.156C95.1519 151.316 96.6279 152.792 98.6799 152.792H98.8599V153.998H99.9759V152.792H100.138C102.19 152.792 103.666 151.298 103.666 149.138C103.666 146.978 102.19 145.502 100.138 145.502H99.9759V144.242H98.8599V145.502H98.6799ZM98.6799 146.492H98.8599V151.802H98.6799C97.1139 151.802 96.2679 150.758 96.2679 149.156C96.2679 147.536 97.1139 146.492 98.6799 146.492ZM99.9759 146.492H100.138C101.704 146.492 102.55 147.536 102.55 149.138C102.55 150.758 101.704 151.802 100.138 151.802H99.9759V146.492ZM108.29 153.764C109.694 153.764 110.72 153.062 111.044 152.018L110.018 151.73C109.748 152.45 109.123 152.81 108.29 152.81C107.044 152.81 106.184 152.004 106.134 150.524H111.152V150.074C111.152 147.5 109.622 146.618 108.182 146.618C106.31 146.618 105.067 148.094 105.067 150.218C105.067 152.342 106.292 153.764 108.29 153.764ZM106.134 149.606C106.206 148.53 106.967 147.572 108.182 147.572C109.334 147.572 110.072 148.436 110.072 149.606H106.134ZM112.767 153.62H116.026C117.429 153.62 118.276 152.828 118.276 151.766C118.276 150.682 117.452 150.096 116.692 149.984C117.47 149.822 118.023 149.385 118.023 148.544C118.023 147.441 117.078 146.708 115.593 146.708H112.767V153.62ZM113.776 152.648V150.524H116.026C116.754 150.524 117.196 150.96 117.196 151.676C117.196 152.279 116.754 152.648 116.026 152.648H113.776ZM113.776 149.606V147.68H115.593C116.444 147.68 116.961 148.035 116.961 148.616C116.961 149.232 116.444 149.606 115.593 149.606H113.776ZM119.883 156.212H120.945V152.558H121.035C121.269 152.936 121.72 153.764 123.051 153.764C124.779 153.764 125.985 152.378 125.985 150.182C125.985 148.004 124.779 146.618 123.034 146.618C121.683 146.618 121.269 147.446 121.035 147.806H120.909V146.708H119.883V156.212ZM120.928 150.164C120.928 148.616 121.611 147.572 122.908 147.572C124.257 147.572 124.923 148.705 124.923 150.164C124.923 151.64 124.239 152.81 122.908 152.81C121.629 152.81 120.928 151.73 120.928 150.164ZM129.64 153.782C130.845 153.782 131.476 153.134 131.691 152.684H131.746V153.62H132.808V149.066C132.808 146.87 131.133 146.618 130.251 146.618C129.207 146.618 128.019 146.978 127.479 148.238L128.487 148.598C128.721 148.094 129.275 147.554 130.288 147.554C131.264 147.554 131.746 148.071 131.746 148.958V148.994C131.746 149.507 131.224 149.462 129.964 149.624C128.681 149.791 127.281 150.074 127.281 151.658C127.281 153.008 128.325 153.782 129.64 153.782ZM129.801 152.828C128.955 152.828 128.343 152.45 128.343 151.712C128.343 150.902 129.081 150.65 129.909 150.542C130.36 150.487 131.565 150.362 131.746 150.146V151.118C131.746 151.982 131.061 152.828 129.801 152.828ZM134.134 153.62H134.494C136.024 153.62 136.465 152.432 136.564 150.164L136.672 147.698H139.21V153.62H140.272V146.708H135.664L135.538 149.768C135.448 152.09 135.214 152.63 134.386 152.63H134.134V153.62ZM146.379 153.62H147.386V146.708H144.542C143.053 146.708 142.149 147.487 142.149 148.76C142.149 149.709 142.626 150.385 143.458 150.668L141.77 153.62H142.923L144.525 150.812H146.379V153.62ZM146.379 149.822H144.416C143.665 149.822 143.211 149.421 143.211 148.76C143.211 148.089 143.715 147.68 144.542 147.68H146.379V149.822Z" fill="#232D42"/>
<path fill-rule="evenodd" clip-rule="evenodd" d="M268.342 141.739C268.342 141.302 267.988 140.947 267.55 140.947C267.113 140.947 266.758 141.302 266.758 141.739V143.323H260.422V141.739C260.422 141.302 260.067 140.947 259.63 140.947C259.193 140.947 258.838 141.302 258.838 141.739V143.323H257.254C256.379 143.323 255.67 144.032 255.67 144.907V146.491V148.075V155.996C255.67 156.871 256.379 157.58 257.254 157.58H269.926C270.802 157.58 271.511 156.871 271.511 155.996V148.075V146.491V144.907C271.511 144.032 270.802 143.323 269.926 143.323H268.342V141.739ZM257.254 144.907H259.63H267.55H269.926V146.491H257.254V144.907ZM269.926 155.996V148.075H257.254V155.996H269.926ZM259.63 149.659V151.243H261.214V149.659H259.63ZM264.382 151.243H262.798V149.659H264.382V151.243ZM265.966 149.659V151.243H267.55V149.659H265.966ZM259.63 154.412V152.828H261.214V154.412H259.63ZM262.798 154.412H264.382V152.828H262.798V154.412Z" fill="black"/>
<path d="M276.263 178.172H22.8172C21.0676 178.172 19.6492 179.591 19.6492 181.34V206.685C19.6492 208.435 21.0676 209.853 22.8172 209.853H276.263C278.012 209.853 279.431 208.435 279.431 206.685V181.34C279.431 179.591 278.012 178.172 276.263 178.172Z" fill="white"/>
<path d="M277.055 208.269H22.0252C21.5878 208.269 21.2332 208.624 21.2332 209.061C21.2332 209.498 21.5878 209.853 22.0252 209.853H277.055C277.492 209.853 277.847 209.498 277.847 209.061C277.847 208.624 277.492 208.269 277.055 208.269Z" fill="#ECECEC"/>
<path d="M29.9453 198.099C31.9794 198.099 33.1494 196.375 33.1494 193.365C33.1494 190.376 31.9614 188.631 29.9453 188.631C27.9293 188.631 26.7412 190.376 26.7412 193.365C26.7412 196.375 27.9113 198.099 29.9453 198.099ZM29.9453 197.109C28.6043 197.109 27.8213 195.763 27.8213 193.365C27.8213 190.97 28.6133 189.603 29.9453 189.603C31.2774 189.603 32.0694 190.97 32.0694 193.365C32.0694 195.763 31.2864 197.109 29.9453 197.109ZM34.8594 197.973H40.6736V196.983H36.3895V196.911L38.4595 194.697C40.0436 193 40.5116 192.208 40.5116 191.187C40.5116 189.764 39.3596 188.631 37.7395 188.631C36.1239 188.631 34.8954 189.729 34.8954 191.348H35.9575C35.9575 190.3 36.637 189.603 37.7035 189.603C38.7025 189.603 39.4675 190.215 39.4675 191.187C39.4675 192.037 38.968 192.667 37.9015 193.833L34.8594 197.162V197.973ZM43.3241 196.793C43.7696 196.793 44.1342 196.429 44.1342 195.984C44.1342 195.538 43.7696 195.174 43.3241 195.174C42.8786 195.174 42.5141 195.538 42.5141 195.984C42.5141 196.429 42.8786 196.793 43.3241 196.793ZM43.3241 192.132C43.7696 192.132 44.1342 191.767 44.1342 191.321C44.1342 190.876 43.7696 190.512 43.3241 190.512C42.8786 190.512 42.5141 190.876 42.5141 191.321C42.5141 191.767 42.8786 192.132 43.3241 192.132ZM46.0217 197.973H51.8359V196.983H47.5519V196.911L49.6222 194.697C51.2062 193 51.6743 192.208 51.6743 191.187C51.6743 189.764 50.5219 188.631 48.9023 188.631C47.2865 188.631 46.0581 189.729 46.0581 191.348H47.1202C47.1202 190.3 47.7998 189.603 48.8658 189.603C49.8653 189.603 50.6296 190.215 50.6296 191.187C50.6296 192.037 50.1307 192.667 49.0638 193.833L46.0217 197.162V197.973ZM56.7005 198.099C58.7339 198.099 59.9049 196.375 59.9049 193.365C59.9049 190.376 58.7169 188.631 56.7005 188.631C54.6848 188.631 53.4967 190.376 53.4967 193.365C53.4967 196.375 54.6666 198.099 56.7005 198.099ZM56.7005 197.109C55.3596 197.109 54.5763 195.763 54.5763 193.365C54.5763 190.97 55.3683 189.603 56.7005 189.603C58.0329 189.603 58.8249 190.97 58.8249 193.365C58.8249 195.763 58.0409 197.109 56.7005 197.109Z" fill="#232D42"/>
<path fill-rule="evenodd" clip-rule="evenodd" d="M269.926 194.012C269.926 197.512 267.089 200.349 263.59 200.349C260.091 200.349 257.254 197.512 257.254 194.012C257.254 190.513 260.091 187.676 263.59 187.676C267.089 187.676 269.926 190.513 269.926 194.012ZM271.511 194.012C271.511 198.387 267.965 201.933 263.59 201.933C259.216 201.933 255.67 198.387 255.67 194.012C255.67 189.638 259.216 186.092 263.59 186.092C267.965 186.092 271.511 189.638 271.511 194.012ZM262.798 189.26V193.715V194.084L263.08 194.321L266.248 196.994L267.269 195.783L264.382 193.347V189.26H262.798Z" fill="black"/>
<path d="M263.59 228.861H35.4895C26.7411 228.861 19.6492 235.953 19.6492 244.702C19.6492 253.45 26.7411 260.542 35.4895 260.542H263.59C272.339 260.542 279.431 253.45 279.431 244.702C279.431 235.953 272.339 228.861 263.59 228.861Z" fill="#00CD78"/>
<path d="M99.76 249.454H101.43V245.539H105.7V249.454H107.374V240.238H105.7V244.14H101.43V240.238H99.76V249.454ZM111.106 249.593C112.192 249.593 112.839 249.085 113.136 248.504H113.19V249.454H114.756V244.828C114.756 243.001 113.267 242.452 111.948 242.452C110.495 242.452 109.379 243.1 109.019 244.36L110.54 244.576C110.702 244.103 111.161 243.698 111.957 243.698C112.713 243.698 113.128 244.086 113.128 244.765V244.792C113.128 245.26 112.637 245.282 111.417 245.413C110.076 245.557 108.794 245.957 108.794 247.514C108.794 248.873 109.789 249.593 111.106 249.593ZM111.53 248.397C110.851 248.397 110.364 248.086 110.364 247.487C110.364 246.862 110.908 246.601 111.638 246.497C112.066 246.439 112.92 246.331 113.132 246.16V246.974C113.132 247.744 112.511 248.397 111.53 248.397ZM117.965 247.249V242.542H116.395V249.454H118.073L120.832 244.742V249.454H122.406V242.542H120.733L117.965 247.249ZM120.287 240.166C120.283 240.607 120.03 240.998 119.396 240.998C118.753 240.998 118.509 240.598 118.509 240.166H117.299C117.294 241.219 118.109 241.93 119.396 241.93C120.692 241.93 121.506 241.219 121.506 240.166H120.287ZM123.305 243.878H125.542V249.454H127.117V243.878H129.354V242.542H123.305V243.878ZM132.222 247.249V242.542H130.651V249.454H132.329L135.088 244.742V249.454H136.662V242.542H134.989L132.222 247.249ZM141.479 249.454H144.827C146.447 249.454 147.374 248.721 147.374 247.578C147.374 246.61 146.623 245.935 145.538 245.841C146.461 245.67 147.036 245.179 147.036 244.4C147.036 243.235 146.015 242.542 144.381 242.542H141.479V249.454ZM143.005 248.172V246.457H144.827C145.425 246.457 145.79 246.803 145.79 247.375C145.79 247.87 145.425 248.172 144.827 248.172H143.005ZM143.005 245.404V243.847H144.381C145.061 243.847 145.475 244.135 145.475 244.608C145.475 245.103 145.074 245.404 144.413 245.404H143.005ZM151.734 249.589C153.759 249.589 155.046 248.162 155.046 246.025C155.046 243.883 153.759 242.452 151.734 242.452C149.709 242.452 148.422 243.883 148.422 246.025C148.422 248.162 149.709 249.589 151.734 249.589ZM151.742 248.284C150.622 248.284 150.073 247.285 150.073 246.021C150.073 244.756 150.622 243.744 151.742 243.744C152.845 243.744 153.394 244.756 153.394 246.021C153.394 247.285 152.845 248.284 151.742 248.284ZM155.817 251.461H157.418V249.454H161.941V251.461H163.516V248.113H162.445V242.542H157.45L157.252 244.963C157.121 246.511 156.951 247.658 156.365 248.113H155.817V251.461ZM158.04 248.113C158.476 247.469 158.638 246.425 158.755 244.963L158.863 243.856H160.888V248.113H158.04ZM166.303 247.249V242.542H164.732V249.454H166.411L169.169 244.742V249.454H170.745V242.542H169.07L166.303 247.249ZM171.643 243.878H173.88V249.454H175.455V243.878H177.691V242.542H171.643V243.878ZM181.764 249.589C183.375 249.589 184.482 248.801 184.77 247.6L183.249 247.429C183.029 248.014 182.489 248.32 181.786 248.32C180.733 248.32 180.036 247.627 180.022 246.444H184.838V245.944C184.838 243.519 183.38 242.452 181.678 242.452C179.698 242.452 178.406 243.905 178.406 246.039C178.406 248.207 179.68 249.589 181.764 249.589ZM180.027 245.345C180.076 244.464 180.729 243.721 181.701 243.721C182.637 243.721 183.267 244.405 183.276 245.345H180.027ZM185.739 249.454H186.243C187.728 249.454 188.398 248.41 188.506 246.106L188.614 243.878H190.599V249.454H192.174V242.542H187.134L187.012 245.602C186.936 247.541 186.684 248.113 185.968 248.113H185.729L185.739 249.454ZM197.9 249.454H199.426V242.542H196.424C194.732 242.542 193.684 243.41 193.688 244.738C193.684 245.611 194.16 246.272 194.984 246.61L193.436 249.454H195.038L196.456 246.853H197.9V249.454ZM197.9 245.665H196.37C195.654 245.665 195.258 245.291 195.263 244.774C195.258 244.257 195.677 243.865 196.424 243.865H197.9V245.665Z" fill="white"/>
<path d="M20.207 63.2307H23.078V71.2497H24.464V63.2307H27.3396V62.0337H20.207V63.2307ZM30.7845 71.3887C32.292 71.3887 33.3585 70.6467 33.6645 69.5217L32.391 69.2917C32.1479 69.9447 31.563 70.2777 30.798 70.2777C29.646 70.2777 28.8719 69.5307 28.8359 68.1987H33.75V67.7217C33.75 65.2237 32.256 64.2477 30.6899 64.2477C28.7639 64.2477 27.4949 65.7147 27.4949 67.8387C27.4949 69.9847 28.7459 71.3887 30.7845 71.3887ZM28.8404 67.1907C28.8944 66.2097 29.6054 65.3587 30.699 65.3587C31.743 65.3587 32.427 66.1337 32.4315 67.1907H28.8404ZM35.2429 73.8417H36.5885V70.1747H36.6695C36.9125 70.6157 37.4075 71.3847 38.6675 71.3847C40.3415 71.3847 41.5566 70.0437 41.5566 67.8067C41.5566 65.5667 40.3235 64.2477 38.654 64.2477C37.3715 64.2477 36.908 65.0307 36.6695 65.4587H36.5569V64.3377H35.2429V73.8417ZM36.5615 67.7937C36.5615 66.3487 37.1914 65.3907 38.366 65.3907C39.5855 65.3907 40.1975 66.4207 40.1975 67.7937C40.1975 69.1797 39.5675 70.2377 38.366 70.2377C37.2095 70.2377 36.5615 69.2477 36.5615 67.7937ZM46.0429 71.3887C47.5509 71.3887 48.617 70.6467 48.9235 69.5217L47.6499 69.2917C47.4068 69.9447 46.8215 70.2777 46.0564 70.2777C44.9048 70.2777 44.1306 69.5307 44.0947 68.1987H49.009V67.7217C49.009 65.2237 47.5145 64.2477 45.9487 64.2477C44.0226 64.2477 42.7536 65.7147 42.7536 67.8387C42.7536 69.9847 44.0046 71.3887 46.0429 71.3887ZM44.0991 67.1907C44.1531 66.2097 44.8644 65.3587 45.9574 65.3587C47.0021 65.3587 47.6856 66.1337 47.6903 67.1907H44.0991ZM54.3805 69.5847L52.1937 64.3377H50.502V71.2497H51.8199V66.2227L53.8815 71.2497H54.8803L56.9775 66.2407V71.2497H58.2868V64.3377H56.6124L54.3805 69.5847ZM60.0798 71.2497H61.4258V68.4867H62.2978L64.3818 71.2497H66.0518L63.3428 67.6987L66.0198 64.3377H64.3548L62.0738 67.2357H61.4258V64.3377H60.0798V71.2497ZM68.4148 69.3637V64.3377H67.0968V71.2497H68.5588L71.5928 66.2187V71.2497H72.9118V64.3377H71.4618L68.4148 69.3637ZM76.4708 69.9897H75.1748L75.1298 70.4937C75.0258 71.7127 74.7378 72.9417 74.6168 73.4997H75.5708C75.7868 72.9107 76.2638 71.5607 76.4038 70.4797L76.4708 69.9897ZM87.1418 71.2497H88.8388L85.0358 66.2007L88.8618 62.0337H87.1388L83.5508 65.9257H83.0748V62.0337H81.6838V71.2497H83.0748V67.1187H84.0288L87.1418 71.2497ZM91.4578 69.3637V64.3377H90.1388V71.2497H91.6018L94.6358 66.2187V71.2497H95.9538V64.3377H94.5048L91.4578 69.3637ZM100.742 71.3887C102.249 71.3887 103.316 70.6467 103.622 69.5217L102.348 69.2917C102.105 69.9447 101.521 70.2777 100.756 70.2777C99.6028 70.2777 98.8288 69.5307 98.7938 68.1987H103.707V67.7217C103.707 65.2237 102.214 64.2477 100.647 64.2477C98.7218 64.2477 97.4518 65.7147 97.4518 67.8387C97.4518 69.9847 98.7038 71.3887 100.742 71.3887ZM98.7978 67.1907C98.8518 66.2097 99.5628 65.3587 100.657 65.3587C101.701 65.3587 102.385 66.1337 102.389 67.1907H98.7978ZM105.2 71.2497H108.504C110.016 71.2497 110.902 70.4847 110.902 69.3867C110.902 68.3607 110.115 67.7307 109.192 67.6227C110.043 67.4607 110.605 66.9927 110.605 66.1827C110.605 65.0487 109.624 64.3377 108.067 64.3377H105.2V71.2497ZM106.465 70.1247V68.2027H108.504C109.169 68.2027 109.57 68.5947 109.57 69.2377C109.57 69.7867 109.169 70.1247 108.504 70.1247H106.465ZM106.465 67.2177V65.4757H108.067C108.832 65.4757 109.296 65.7957 109.296 66.3267C109.296 66.8807 108.837 67.2177 108.08 67.2177H106.465Z" fill="black"/>
<path d="M156.888 71.2497H160.34C162.388 71.2497 163.563 70.1067 163.563 68.4557C163.563 66.8077 162.388 65.7507 160.34 65.7507H158.279V63.2307H162.635V62.0337H156.888V71.2497ZM158.279 70.0797V66.9207H160.34C161.528 66.9207 162.185 67.6047 162.185 68.4377C162.185 69.2917 161.528 70.0797 160.34 70.0797H158.279ZM173.381 70.0217H172.319V62.0337H170.983V70.0437H166.537V62.0337H165.204V71.2497H171.874V73.4277H173.26L173.381 70.0217Z" fill="black"/>
<path fill-rule="evenodd" clip-rule="evenodd" d="M120.499 67.2898C120.499 74.5768 126.413 80.4908 133.7 80.4908C140.986 80.4908 146.899 74.5768 146.899 67.2898C146.899 60.0038 140.986 54.0898 133.7 54.0898C126.413 54.0898 120.499 60.0038 120.499 67.2898ZM129.739 74.5498L125.581 70.3918C125.317 70.1278 125.317 69.7188 125.581 69.4548L129.739 65.3098V68.6098H135.019V71.2498H129.739V74.5498ZM141.818 65.1248C142.081 64.8608 142.081 64.4518 141.818 64.1878L137.66 60.0298V63.3298H132.379V65.9698H137.66V69.2698L141.818 65.1248Z" fill="#00CD78"/>
<path d="M24.4013 29.273L23.8283 28.726L23.3064 29.273L23.8283 29.82L24.4013 29.273ZM33.9055 30.065C34.3429 30.065 34.6975 29.711 34.6975 29.273C34.6975 28.836 34.3429 28.481 33.9055 28.481V30.065ZM29.5103 25.068C29.8123 24.752 29.8006 24.25 29.4842 23.948C29.1678 23.646 28.6665 23.658 28.3645 23.974L29.5103 25.068ZM28.3645 34.572C28.6665 34.889 29.1679 34.9 29.4842 34.598C29.8006 34.296 29.8123 33.795 29.5103 33.478L28.3645 34.572ZM24.4013 30.065H33.9055V28.481H24.4013V30.065ZM24.9742 29.82L29.5103 25.068L28.3645 23.974L23.8283 28.726L24.9742 29.82ZM23.8283 29.82L28.3645 34.572L29.5103 33.478L24.9742 28.726L23.8283 29.82Z" fill="black"/>
<path d="M45.9702 33.2329H46.9468V29.6259H51.2466V33.2329H52.2232V25.1689H51.2466V28.7599H46.9468V25.1689H45.9702V33.2329ZM55.8316 33.3749C56.8874 33.3749 57.4386 32.8079 57.6271 32.4139H57.6746V33.2329H58.604V29.2479C58.604 27.3269 57.1392 27.1059 56.367 27.1059C55.4538 27.1059 54.4147 27.4209 53.9419 28.5239L54.8242 28.8389C55.0285 28.3979 55.5132 27.9249 56.3987 27.9249C57.2533 27.9249 57.6746 28.3779 57.6746 29.1539V29.1849C57.6746 29.6339 57.2176 29.5949 56.1152 29.7369C54.9929 29.8819 53.7684 30.1299 53.7684 31.5159C53.7684 32.6979 54.6824 33.3749 55.8316 33.3749ZM55.9734 32.5399C55.2336 32.5399 54.6974 32.2089 54.6974 31.5639C54.6974 30.8549 55.3437 30.6339 56.0684 30.5399C56.4621 30.4929 57.517 30.3819 57.6746 30.1929V31.0439C57.6746 31.7999 57.0759 32.5399 55.9734 32.5399ZM59.922 31.6899C59.953 32.6819 60.902 33.3589 62.19 33.3589C63.513 33.3589 64.474 32.6499 64.474 31.5479C64.474 30.7919 64.021 30.1779 63.34 30.1299V30.0669C63.915 29.8899 64.348 29.4729 64.348 28.7909C64.348 27.8349 63.529 27.1059 62.253 27.1059C60.993 27.1059 60.095 27.7989 60.064 28.7759H61.04C61.068 28.2759 61.591 27.9249 62.3 27.9249C63.005 27.9249 63.402 28.2839 63.402 28.8229C63.402 29.3269 63.056 29.7049 62.316 29.7049H61.277V30.5399H62.316C63.056 30.5399 63.529 30.9449 63.529 31.5479C63.529 32.2369 62.919 32.5239 62.174 32.5239C61.446 32.5239 60.958 32.2369 60.914 31.6899H59.922ZM67.559 33.3749C68.614 33.3749 69.165 32.8079 69.355 32.4139H69.402V33.2329H70.331V29.2479C70.331 27.3269 68.867 27.1059 68.094 27.1059C67.181 27.1059 66.141 27.4209 65.669 28.5239L66.551 28.8389C66.756 28.3979 67.24 27.9249 68.126 27.9249C68.981 27.9249 69.402 28.3779 69.402 29.1539V29.1849C69.402 29.6339 68.945 29.5949 67.843 29.7369C66.72 29.8819 65.496 30.1299 65.496 31.5159C65.496 32.6979 66.409 33.3749 67.559 33.3749ZM67.701 32.5399C66.96 32.5399 66.425 32.2089 66.425 31.5639C66.425 30.8549 67.07 30.6339 67.795 30.5399C68.189 30.4929 69.244 30.3819 69.402 30.1929V31.0439C69.402 31.7999 68.803 32.5399 67.701 32.5399ZM71.381 34.9659H72.31V33.2329H76.784V34.9659H77.713V32.3669H76.784V27.1849H72.941L72.736 29.5789C72.59 31.2719 72.374 31.8549 71.885 32.3669H71.381V34.9659ZM72.941 32.3669C73.366 31.8079 73.52 30.8429 73.65 29.5789L73.807 28.0509H75.855V32.3669H72.941Z" fill="#232D42"/>
</svg>
