<svg xmlns="http://www.w3.org/2000/svg" viewBox="0 0 298.59 396.26"><title>for-driver-2</title><path d="M20.09,10.59H306V93.18H20.09Z" transform="translate(-13.73 -5.82)" style="fill:#fff"/><path d="M304.38,5.82H21.68a8,8,0,0,0-7.95,8V394.15a8,8,0,0,0,8,7.94h282.7a7.94,7.94,0,0,0,7.94-7.94V13.77A7.94,7.94,0,0,0,304.38,5.82Z" transform="translate(-13.73 -5.82)" style="fill:#fff"/><path d="M34.76,78.49h2.35V75.71h7v2.77h2.35V73.76H45.15v-9.6H37.51L37.18,69c-.19,3-.84,4.14-1.64,4.72h-.78Zm3.6-4.73A10.48,10.48,0,0,0,39.53,69l.18-2.87h3.1v7.59Zm12,2.11a2.65,2.65,0,0,0,2.53-1.37h.07v1.21h2.28V69.86c0-2.06-1.75-2.93-3.68-2.93s-3.44,1-3.77,2.57l2.22.18a1.45,1.45,0,0,1,1.54-1c.82,0,1.28.42,1.28,1.13v0c0,.56-.59.63-2.09.78-1.72.16-3.26.73-3.26,2.67C47.45,75,48.68,75.87,50.33,75.87ZM51,74.21c-.74,0-1.27-.34-1.27-1s.56-1,1.4-1.13a5.7,5.7,0,0,0,1.67-.39v.92A1.66,1.66,0,0,1,51,74.21Zm5.2-5.28H59v6.78h2.28V68.93h2.8V67H56.22Zm11.46,6.94a2.68,2.68,0,0,0,2.54-1.37h.06v1.21h2.28V69.86c0-2.06-1.75-2.93-3.68-2.93s-3.44,1-3.77,2.57l2.22.18a1.46,1.46,0,0,1,1.54-1c.82,0,1.29.42,1.29,1.13v0c0,.56-.59.63-2.1.78-1.71.16-3.25.73-3.25,2.67C64.81,75,66,75.87,67.68,75.87Zm.69-1.66c-.74,0-1.27-.34-1.27-1s.56-1,1.41-1.13a5.78,5.78,0,0,0,1.67-.39v.92A1.66,1.66,0,0,1,68.37,74.21Zm9.73,1.5h2.27V68.93h3v6.78h2.3V67H78.1Zm13.41.17c2.63,0,4.26-1.8,4.26-4.47s-1.63-4.48-4.26-4.48-4.27,1.79-4.27,4.48S88.88,75.88,91.51,75.88Zm0-1.87c-1.21,0-1.83-1.11-1.83-2.62s.62-2.63,1.83-2.63,1.81,1.12,1.81,2.63S92.71,74,91.52,74Zm5.81,1.7h2.41V67H97.33Zm-.51-9.85A1.16,1.16,0,0,0,98,64.71a1.15,1.15,0,0,0-1.17-1.15,1.16,1.16,0,0,0-1.18,1.15A1.18,1.18,0,0,0,96.82,65.86Zm3.45,0a1.17,1.17,0,0,0,1.18-1.15,1.18,1.18,0,0,0-2.36,0A1.18,1.18,0,0,0,100.27,65.86Zm1,7.39c.06,1.69,1.59,2.63,3.67,2.63s3.66-1,3.66-2.58a2,2,0,0,0-1.92-2v-.09c1.07-.26,1.71-.89,1.71-1.81,0-1.51-1.31-2.44-3.43-2.44-1.94,0-3.45,1-3.46,2.54h2.32c0-.51.53-.86,1.25-.86s1.16.39,1.16,1-.42.91-1.17.91h-1.24v1.57H105a1.1,1.1,0,0,1,1.25,1.06c0,.69-.6,1.06-1.38,1.06s-1.31-.35-1.33-.93Zm8.13,5h2.34V75.71H117v2.53h2.29V73.8h-1.35V67h-6.64l-.22,2.83c-.14,1.71-.3,3.45-1.06,3.93h-.66Zm3.05-4.44a8.84,8.84,0,0,0,.84-3.93l.09-1h2.34V73.8Zm8.28,1.91h2.4V72.63h.9l2.13,3.08H129l-3.1-4.37,3.06-4.3h-2.82l-2.35,3.36h-.68V67h-2.4Zm11.6-3.17V67H130v8.67h2.39l3.11-5.51v5.51h2.29V67H135.4Z" transform="translate(-13.73 -5.82)"/><path d="M290.09,89.21H36a3.18,3.18,0,0,0-3.18,3.17v25.41A3.18,3.18,0,0,0,36,121H290.09a3.18,3.18,0,0,0,3.18-3.18V92.38A3.18,3.18,0,0,0,290.09,89.21Z" transform="translate(-13.73 -5.82)" style="fill:#fff"/><path d="M290.88,119.38H35.18a.8.8,0,0,0-.8.8.79.79,0,0,0,.8.79h255.7a.79.79,0,0,0,.8-.79A.8.8,0,0,0,290.88,119.38Z" transform="translate(-13.73 -5.82)" style="fill:#ececec"/><path d="M47.7,102.71a3.6,3.6,0,0,0-3.72-3c-2.36,0-4.08,1.82-4.08,4.75s1.72,4.74,4.08,4.74a3.59,3.59,0,0,0,3.72-3H46.58a2.52,2.52,0,0,1-2.6,2c-1.68,0-3-1.3-3-3.7s1.31-3.7,3-3.7a2.51,2.51,0,0,1,2.6,2Zm2.35,8.93a2.09,2.09,0,0,0,2-1.57L55,102.15l-1.16,0L52,107.65h-.07L50,102.13H48.82l2.57,7-.2.55c-.38,1-.87,1.13-1.64.93l-.28.94A2,2,0,0,0,50.05,111.64ZM61.59,99.53a2.42,2.42,0,0,1-1.55.28h-.76c-2.11.05-3.15,1.66-3.15,4.75v.74c0,2.56,1.24,3.89,3.1,3.89s3.09-1.34,3.09-3.52-1.25-3.34-2.87-3.34a2.51,2.51,0,0,0-2.31,1.27h-.09c.14-1.79.81-2.75,2.25-2.8,1.28,0,2.2,0,2.84-.63Zm-2.36,8.72c-1.26,0-2-1-2-2.57s.79-2.38,2-2.38,2,.87,2,2.38S60.48,108.25,59.23,108.25Zm7.53,1c1.88,0,3.14-1.42,3.14-3.57S68.64,102,66.76,102s-3.14,1.42-3.14,3.59S64.88,109.2,66.76,109.2Zm0-1c-1.43,0-2.08-1.23-2.08-2.62s.65-2.63,2.08-2.63,2.08,1.24,2.08,2.63S68.19,108.25,66.76,108.25Zm3.86-5.13h2.29v5.94H74v-5.94h2.27v-1H70.62Zm8.86,6.1a2.17,2.17,0,0,0,2.06-1.1h.06v.94h1.06v-4.57A2.27,2.27,0,0,0,80.1,102a2.81,2.81,0,0,0-2.78,1.62l1,.36a1.87,1.87,0,0,1,1.8-1,1.29,1.29,0,0,1,1.47,1.41v0c0,.51-.53.47-1.79.63s-2.69.45-2.69,2A2.14,2.14,0,0,0,79.48,109.22Zm.17-1c-.85,0-1.47-.37-1.47-1.11s.74-1.07,1.57-1.18a5.55,5.55,0,0,0,1.85-.39v1A1.78,1.78,0,0,1,79.65,108.26Zm6.54-.47H85l-.06.51c-.13,1.22-.38,2.44-.5,3h.81a18.74,18.74,0,0,0,.83-3Zm8.78-8H93.85l-2.31,1.53v1.14L93.8,101h0v8.07H95Zm5.6,9.24h.34c2,0,2.45-1.66,2.56-4.57l.15-3.68h3.45v8.25h1.12V99.82h-5.63l-.17,4.46c-.1,2.72-.39,3.75-1.55,3.75h-.27Zm10.27-6.93h-1.07v6.93h1.07v-2.91h1.77a3.09,3.09,0,0,0,3.12,3c1.87,0,3.14-1.42,3.14-3.57S117.6,102,115.73,102a3.1,3.1,0,0,0-3.12,3.12h-1.77Zm4.89,6.12c-1.43,0-2.08-1.23-2.08-2.62s.65-2.63,2.08-2.63,2.07,1.24,2.07,2.63S117.15,108.25,115.73,108.25Zm4-5.13H122v5.94h1.06v-5.94h2.27v-1h-5.63Zm9.65,6.08c1.87,0,3.14-1.42,3.14-3.57s-1.27-3.59-3.14-3.59-3.15,1.42-3.15,3.59S127.46,109.2,129.34,109.2Zm0-1c-1.43,0-2.08-1.23-2.08-2.62s.65-2.63,2.08-2.63,2.07,1.24,2.07,2.63S130.76,108.25,129.34,108.25Zm7.58,1c1.87,0,3.14-1.42,3.14-3.57s-1.27-3.59-3.14-3.59-3.14,1.42-3.14,3.59S135,109.2,136.92,109.2Zm0-1c-1.43,0-2.08-1.23-2.08-2.62s.65-2.63,2.08-2.63,2.07,1.24,2.07,2.63S138.34,108.25,136.92,108.25Z" transform="translate(-13.73 -5.82)" style="fill:#232d42"/><path d="M282.15,97.15a.8.8,0,1,0-1.59,0v1.59h-6.35V97.15a.8.8,0,0,0-.8-.8.79.79,0,0,0-.79.8v1.59H271a1.59,1.59,0,0,0-1.59,1.58v11.12A1.59,1.59,0,0,0,271,113h12.7a1.59,1.59,0,0,0,1.59-1.59V100.32a1.59,1.59,0,0,0-1.59-1.58h-1.58ZM271,100.32h12.7v1.59H271Zm12.7,11.12V103.5H271v7.94Zm-10.32-6.35v1.59H275v-1.59Zm4.77,1.59h-1.59v-1.59h1.59Zm1.59-1.59v1.59h1.58v-1.59Zm-6.36,4.76v-1.59H275v1.59Zm3.18,0h1.59v-1.59h-1.59Z" transform="translate(-13.73 -5.82)"/><path d="M290.09,133.68H36a3.18,3.18,0,0,0-3.18,3.17v25.41A3.18,3.18,0,0,0,36,165.44H290.09a3.18,3.18,0,0,0,3.18-3.18V136.85A3.18,3.18,0,0,0,290.09,133.68Z" transform="translate(-13.73 -5.82)" style="fill:#fff"/><path d="M290.88,163.85H35.18a.8.8,0,0,0-.8.8.79.79,0,0,0,.8.79h255.7a.79.79,0,0,0,.8-.79A.8.8,0,0,0,290.88,163.85Z" transform="translate(-13.73 -5.82)" style="fill:#ececec"/><path d="M43.12,153.66c2,0,3.21-1.73,3.21-4.75s-1.19-4.75-3.21-4.75-3.22,1.75-3.22,4.75S41.08,153.66,43.12,153.66Zm0-1c-1.35,0-2.13-1.35-2.13-3.75s.79-3.77,2.13-3.77,2.13,1.37,2.13,3.77S44.46,152.66,43.12,152.66Zm4.92.87h5.83v-1H49.58v-.08l2.07-2.22c1.59-1.7,2.06-2.49,2.06-3.51a2.62,2.62,0,0,0-2.78-2.57,2.69,2.69,0,0,0-2.85,2.73h1.07a1.64,1.64,0,0,1,1.75-1.75,1.6,1.6,0,0,1,1.76,1.59c0,.85-.5,1.48-1.57,2.65L48,152.72Zm8.49-1.18a.82.82,0,1,0-.81-.81A.81.81,0,0,0,56.53,152.35Zm0-4.68a.81.81,0,1,0-.81-.81A.81.81,0,0,0,56.53,147.67Zm2.71,5.86h5.83v-1h-4.3v-.08l2.08-2.22c1.58-1.7,2.05-2.49,2.05-3.51a2.62,2.62,0,0,0-2.78-2.57,2.69,2.69,0,0,0-2.85,2.73h1.07a1.64,1.64,0,0,1,1.75-1.75,1.61,1.61,0,0,1,1.77,1.59c0,.85-.5,1.48-1.57,2.65l-3,3.34Zm10.7.13c2,0,3.22-1.73,3.22-4.75s-1.19-4.75-3.22-4.75-3.21,1.75-3.21,4.75S67.9,153.66,69.94,153.66Zm0-1c-1.34,0-2.13-1.35-2.13-3.75s.8-3.77,2.13-3.77,2.13,1.37,2.13,3.77S71.29,152.66,69.94,152.66Z" transform="translate(-13.73 -5.82)" style="fill:#232d42"/><path d="M283.73,149.56a6.35,6.35,0,1,1-6.35-6.35A6.35,6.35,0,0,1,283.73,149.56Zm1.59,0a7.94,7.94,0,1,1-7.94-7.94A7.94,7.94,0,0,1,285.32,149.56Zm-8.73-4.77v4.84l.28.24,3.18,2.68,1-1.22-2.89-2.44v-4.1Z" transform="translate(-13.73 -5.82)"/><path d="M277.26,191.65a.79.79,0,1,0-1.58,0V194h-2.39a.79.79,0,0,0-.79.79.79.79,0,0,0,.79.8h2.39V198a.79.79,0,0,0,1.58,0v-2.38h2.39a.8.8,0,0,0,.79-.8.79.79,0,0,0-.79-.79h-2.39Z" transform="translate(-13.73 -5.82)"/><path d="M281.23,187.68H271.7a2.38,2.38,0,0,0-2.38,2.38v9.53A2.39,2.39,0,0,0,271.7,202h9.53a2.39,2.39,0,0,0,2.39-2.38v-9.53A2.38,2.38,0,0,0,281.23,187.68Z" transform="translate(-13.73 -5.82)" style="fill:none;stroke:#000"/><path d="M248.9,190.35h-1.35l-2.31,1.5v1.34l2.21-1.44h.06v7.84h1.39Z" transform="translate(-13.73 -5.82)" style="fill:#4f4f4f"/><g style="opacity:0.25"><path d="M223.93,194.82h-6.36" transform="translate(-13.73 -5.82)" style="fill:none;stroke:#000;stroke-linecap:round;opacity:0.25;isolation:isolate"/><path d="M225.52,187.68H216a2.38,2.38,0,0,0-2.39,2.38v9.53A2.39,2.39,0,0,0,216,202h9.53a2.39,2.39,0,0,0,2.38-2.38v-9.53A2.38,2.38,0,0,0,225.52,187.68Z" transform="translate(-13.73 -5.82)" style="fill:none;stroke:#000;opacity:0.25;isolation:isolate"/></g><path d="M33.81,198.79h3.54c2.15,0,3.12-1.07,3.12-2.48A2.15,2.15,0,0,0,38.55,194v-.09a1.89,1.89,0,0,0,1.56-2c0-1.37-1-2.43-2.92-2.43H33.81Zm1.39-1.19v-3h2.07a1.65,1.65,0,0,1,1.81,1.6c0,.78-.52,1.36-1.86,1.36Zm0-4v-2.81h1.91c1.1,0,1.63.58,1.63,1.35a1.51,1.51,0,0,1-1.67,1.46ZM42,198.79h1.35v-6.93H42Zm.69-8a.81.81,0,1,0,0-1.61.81.81,0,1,0,0,1.61Zm1.93,8h.44c1.51,0,2.06-1.11,2.17-3.41l.11-2.35h2.26v5.76h1.33v-6.93H46.1L46,194.93c-.09,2.14-.33,2.7-1.1,2.7h-.25Zm9.43-4.54v-2.39H52.73v6.93h3c1.7,0,2.65-1,2.65-2.28s-.95-2.26-2.65-2.26Zm0,1.16h1.7a1.19,1.19,0,0,1,1.33,1.14c0,.63-.55,1.08-1.33,1.08h-1.7Zm7.18-3.55H59.92v6.93h1.32v-2.88h3v2.88h1.32v-6.93H64.24v2.89h-3Zm7.45,5v-5H67.36v6.93h1.47l3-5v5h1.32v-6.93H71.74Zm7.38-5H74.59l2.13,3.47-2.15,3.46H76l1.56-2.59,1.56,2.59h1.48l-2.18-3.46,2.16-3.47H79.14l-1.54,2.7Zm13.19,5.27-2.2-5.27H85.37v6.93h1.32v-5l2.07,5h1l2.1-5v5h1.31v-6.93H91.49ZM95,198.79h1.35v-6.93H95Zm.68-8a.81.81,0,1,0-.85-.8A.83.83,0,0,0,95.65,190.79Zm5.41,8.14a2.64,2.64,0,0,0,2.84-2.33h-1.31a1.48,1.48,0,0,1-1.53,1.19c-1.14,0-1.87-.95-1.87-2.46s.75-2.42,1.87-2.42a1.49,1.49,0,0,1,1.53,1.19h1.31a2.64,2.64,0,0,0-2.86-2.33c-2,0-3.22,1.47-3.22,3.59S99,198.93,101.06,198.93Zm9.93-7.07h-1.31v5.77h-3v-5.77h-1.32v6.93H111V201h1.34v-3.34H111Zm4.08,2.39v-2.39h-1.32v6.93h3c1.7,0,2.65-1,2.65-2.28s-1-2.26-2.65-2.26Zm0,1.16h1.7a1.2,1.2,0,0,1,1.34,1.14c0,.63-.56,1.08-1.34,1.08h-1.7Zm6.75-1.57a.91.91,0,0,0,.9-.91.9.9,0,1,0-.9.91Zm0,5a.9.9,0,1,0-.9-.9A.9.9,0,0,0,121.82,198.88Z" transform="translate(-13.73 -5.82)" style="fill:#232d42"/><path d="M39.15,34.41l-.58-.55-.52.55.52.55Zm9.53.8a.8.8,0,0,0,.79-.8.79.79,0,0,0-.79-.79Zm-4.41-5a.8.8,0,0,0,0-1.13.79.79,0,0,0-1.12,0Zm-1.15,9.52a.79.79,0,0,0,1.15-1.09Zm-4-4.51h9.53V33.62H39.15Zm.57-.25,4.55-4.76-1.15-1.1-4.55,4.76Zm-1.15,0,4.55,4.76,1.15-1.09-4.55-4.77Z" transform="translate(-13.73 -5.82)"/><path d="M60.77,38.38h1V34.77h4.31v3.61h1V30.3h-1v3.6H61.75V30.3h-1Zm9.89.15a1.9,1.9,0,0,0,1.8-1h.05v.82h.93v-4a2,2,0,0,0-2.24-2.15,2.46,2.46,0,0,0-2.43,1.42l.88.32a1.63,1.63,0,0,1,1.58-.92,1.12,1.12,0,0,1,1.28,1.23v0c0,.45-.46.41-1.57.56s-2.35.39-2.35,1.78A1.88,1.88,0,0,0,70.66,38.53Zm.14-.84c-.74,0-1.28-.33-1.28-1s.65-.93,1.38-1a4.89,4.89,0,0,0,1.61-.34v.85A1.56,1.56,0,0,1,70.8,37.69Zm4-.85c0,1,1,1.67,2.28,1.67s2.29-.71,2.29-1.82a1.32,1.32,0,0,0-1.14-1.42v-.06a1.3,1.3,0,0,0,1-1.28c0-1-.82-1.69-2.1-1.69s-2.17.69-2.2,1.67h1c0-.5.56-.85,1.27-.85s1.1.36,1.1.9-.35.89-1.09.89h-1v.83h1c.74,0,1.22.41,1.22,1s-.61,1-1.36,1-1.22-.29-1.26-.83Zm7.66,1.69a1.9,1.9,0,0,0,1.8-1h0v.82h.93v-4A2,2,0,0,0,83,32.24a2.48,2.48,0,0,0-2.44,1.42l.89.32A1.62,1.62,0,0,1,83,33.06a1.13,1.13,0,0,1,1.28,1.23v0c0,.45-.46.41-1.57.56s-2.35.39-2.35,1.78A1.88,1.88,0,0,0,82.42,38.53Zm.14-.84c-.74,0-1.28-.33-1.28-1s.65-.93,1.38-1a4.89,4.89,0,0,0,1.61-.34v.85A1.56,1.56,0,0,1,82.56,37.69Zm3.69,2.43h.93V38.38h4.49v1.74h.93V37.51h-.93V32.32H87.81l-.2,2.4c-.15,1.7-.36,2.28-.85,2.79h-.51Zm1.56-2.61a5.86,5.86,0,0,0,.72-2.79l.15-1.53h2.06v4.32Z" transform="translate(-13.73 -5.82)" style="fill:#232d42"/><path d="M60.92,376.68l.69-2h2.81l.69,2H66l-2.54-6.93h-.87L60,376.68Zm1-2.71L63,370.84h0L64.15,374ZM67,376.68h2.45c1.06,0,1.7-.6,1.7-1.4a1.35,1.35,0,0,0-1.19-1.34,1.08,1.08,0,0,0,1-1.08c0-.83-.71-1.38-1.83-1.38H67Zm.76-.73v-1.6h1.69a.8.8,0,0,1,.88.86c0,.46-.33.74-.88.74Zm0-2.29v-1.45h1.37c.64,0,1,.27,1,.7s-.39.75-1,.75Zm4.3-1.44h1.72v4.46h.8v-4.46h1.7v-.74H72Zm7.23,4.56a2.71,2.71,0,1,0-2.36-2.68A2.39,2.39,0,0,0,79.25,376.78Zm0-.71c-1.07,0-1.56-.92-1.56-2s.49-2,1.56-2,1.55.93,1.55,2S80.32,376.07,79.25,376.07Zm6.41-.48-1.78-4.11H82.82v5.2h.8v-4.05l1.72,4.05H86l1.72-4v4h.8v-5.2h-1Zm5.84,1.21A1.62,1.62,0,0,0,93,376h0v.71h.8v-3.43A1.71,1.71,0,0,0,92,371.41a2.12,2.12,0,0,0-2.09,1.22l.76.27a1.41,1.41,0,0,1,1.36-.79,1,1,0,0,1,1.09,1.06v0c0,.38-.39.35-1.34.47s-2,.34-2,1.53A1.6,1.6,0,0,0,91.5,376.8Zm.12-.72c-.64,0-1.1-.28-1.1-.84s.56-.8,1.18-.88a3.87,3.87,0,0,0,1.38-.3v.74A1.33,1.33,0,0,1,91.62,376.08Zm3-3.86h1.72v4.46h.8v-4.46h1.7v-.74H94.63Zm6.19,3.28v-4H100v5.2H101l2.49-4v4h.8v-5.2h-.92Zm8.89-4h-.8v2.63a4.06,4.06,0,0,1-1.25.18,1.06,1.06,0,0,1-1.16-1.16v-1.67h-.79v1.67a1.76,1.76,0,0,0,2,1.91,4,4,0,0,0,1.25-.18v1.82h.8Zm2.27,0h-.8v5.2h.8v-2.22h2.49v2.22h.8v-5.2h-.8v2.23H112Zm6.86,5.3a2.71,2.71,0,1,0-2.36-2.68A2.39,2.39,0,0,0,118.84,376.78Zm0-.71c-1.07,0-1.56-.92-1.56-2s.49-2,1.56-2,1.55.93,1.55,2S119.91,376.07,118.84,376.07Zm6.25.61h.8v-4.46h2.49v4.46h.8v-5.2h-4.09Zm5.55,1.95h.79v-2.75h.07a1.63,1.63,0,0,0,1.52.9c1.3,0,2.21-1,2.21-2.69s-.91-2.68-2.22-2.68a1.59,1.59,0,0,0-1.51.89h-.09v-.82h-.77Zm.78-4.55c0-1.17.52-1.95,1.49-1.95s1.52.85,1.52,1.95-.52,2-1.52,2S131.42,375.26,131.42,374.08Zm5.82,1.42v-4h-.8v5.2h.94l2.49-4v4h.8v-5.2h-.92Zm5.69,0v-4h-.8v5.2h.93l2.49-4v4h.8v-5.2h-.92Zm2-5.75a.61.61,0,0,1-.66.66.6.6,0,0,1-.65-.66h-.74a1.41,1.41,0,0,0,2.8,0Zm5.76,5.84-1.79-4.11h-1.05v5.2h.8v-4.05l1.71,4.05H151l1.72-4v4h.8v-5.2h-1Zm5.83,1.21A1.65,1.65,0,0,0,158,376h0v.71h.8v-3.43a1.71,1.71,0,0,0-1.93-1.84,2.1,2.1,0,0,0-2.08,1.22l.76.27a1.4,1.4,0,0,1,1.35-.79,1,1,0,0,1,1.1,1.06v0c0,.38-.4.35-1.34.47s-2,.34-2,1.53A1.6,1.6,0,0,0,156.49,376.8Zm.12-.72c-.63,0-1.09-.28-1.09-.84s.55-.8,1.18-.88a4,4,0,0,0,1.38-.3v.74A1.34,1.34,0,0,1,156.61,376.08Zm3-3.86h1.71v4.46h.8v-4.46h1.71v-.74h-4.22Zm6.18,3.28v-4H165v5.2H166l2.49-4v4h.8v-5.2h-.92Zm11.43-6a1.86,1.86,0,0,1-1.17.21h-.56c-1.59,0-2.37,1.24-2.37,3.56v.55c0,1.92.93,2.92,2.32,2.92s2.32-1,2.32-2.64-.94-2.5-2.15-2.5a1.9,1.9,0,0,0-1.74.95h-.06c.1-1.34.6-2.06,1.69-2.1s1.65,0,2.12-.47Zm-1.78,6.54c-.94,0-1.53-.76-1.53-1.93s.59-1.78,1.52-1.78,1.53.65,1.53,1.78S176.4,376.07,175.46,376.07Zm3.54,2.56h.8v-2.75h.07a1.6,1.6,0,0,0,1.51.9c1.3,0,2.21-1,2.21-2.69s-.91-2.68-2.22-2.68a1.56,1.56,0,0,0-1.5.89h-.1v-.82H179Zm.79-4.55c0-1.17.51-1.95,1.48-1.95s1.52.85,1.52,1.95-.51,2-1.52,2S179.79,375.26,179.79,374.08Zm7.13,2.7a2.71,2.71,0,1,0-2.36-2.68A2.39,2.39,0,0,0,186.92,376.78Zm0-.71c-1.07,0-1.56-.92-1.56-2s.49-2,1.56-2,1.56.93,1.56,2S188,376.07,186.92,376.07Zm4.37-4.59h-.8v5.2h.8v-2.22h2.49v2.22h.8v-5.2h-.8v2.23h-2.49Zm5.55,1.88v-1.88H196v5.2h2.18A1.68,1.68,0,0,0,200.1,375c0-.95-.66-1.64-1.88-1.64Zm0,.74h1.38a1,1,0,0,1,1.08.94,1,1,0,0,1-1.08.89h-1.38Z" transform="translate(-13.73 -5.82)"/><path d="M42.32,377.47l-4-4,1.12-1.13,2.85,2.85,6-6,1.12,1.12Zm-4-11.12a1.59,1.59,0,0,0-1.59,1.59v11.12a1.59,1.59,0,0,0,1.59,1.59H49.47a1.59,1.59,0,0,0,1.59-1.59V367.94a1.59,1.59,0,0,0-1.59-1.59Z" transform="translate(-13.73 -5.82)" style="fill:#09acfe"/><path d="M43.91,107.47a2.38,2.38,0,1,0-2.38-2.38A2.38,2.38,0,0,0,43.91,107.47Z" transform="translate(-13.73 -5.82)" style="fill:#fff"/><path d="M288.5,249.62H34.38a3.17,3.17,0,0,0-3.17,3.17V278.2a3.17,3.17,0,0,0,3.17,3.18H288.5a3.18,3.18,0,0,0,3.18-3.18V252.79A3.18,3.18,0,0,0,288.5,249.62Z" transform="translate(-13.73 -5.82)" style="fill:#fff"/><path d="M289.29,279.79H33.59a.8.8,0,0,0-.8.8.79.79,0,0,0,.8.79h255.7a.79.79,0,0,0,.8-.79A.8.8,0,0,0,289.29,279.79Z" transform="translate(-13.73 -5.82)" style="fill:#ececec"/><path d="M41.76,260.23H40.65l-2.32,1.53v1.14l2.26-1.5h.06v8.07h1.11Zm5.55,9.37a3.09,3.09,0,0,0,.11-6.18,2.63,2.63,0,0,0-1.61.53h-.05l.32-2.73h3.86v-1h-4.8l-.56,4.55,1.05.12a3.05,3.05,0,0,1,1.61-.47,2,2,0,0,1,2,2.12,2,2,0,0,1-2,2.05,1.7,1.7,0,0,1-1.79-1.44H44.44A2.68,2.68,0,0,0,47.31,269.6Zm7.86,0c2,0,3.21-1.73,3.21-4.75s-1.19-4.75-3.21-4.75S52,261.85,52,264.85,53.13,269.6,55.17,269.6Zm0-1c-1.35,0-2.13-1.34-2.13-3.75s.79-3.77,2.13-3.77,2.13,1.37,2.13,3.77S56.51,268.6,55.17,268.6Z" transform="translate(-13.73 -5.82)" style="fill:#232d42"/><path d="M37.77,228.47h-1v7.41L33.91,233l-.68.7,4,4,4-4-.7-.7-2.85,2.86Zm14.53,8.17h-1v-8.17H50.28v8.21H45.51v-8.21H44.45v9.24H51v2.18h1.15Zm1.54,1.07h1.07v-6.93H53.84Zm.55-8.09a.72.72,0,1,0-.76-.72A.74.74,0,0,0,54.39,229.62Zm3.53,1.16H56.86v6.93h1.06v-3h3.33v3h1.06v-6.93H61.25v3H57.92Zm8.37,7.09a2.17,2.17,0,0,0,2.06-1.1h.06v.94h1.06v-4.57a2.28,2.28,0,0,0-2.56-2.46,2.82,2.82,0,0,0-2.78,1.63l1,.36a1.88,1.88,0,0,1,1.8-1A1.29,1.29,0,0,1,68.41,233v0c0,.51-.53.47-1.79.63s-2.69.45-2.69,2A2.14,2.14,0,0,0,66.29,237.87Zm.17-1c-.85,0-1.46-.38-1.46-1.12s.74-1.06,1.57-1.17a5.29,5.29,0,0,0,1.84-.4v1A1.78,1.78,0,0,1,66.46,236.91Zm8.09-1c0,1.13,1.13,1.91,2.6,1.91s2.62-.81,2.62-2.08a1.5,1.5,0,0,0-1.3-1.62v-.07a1.49,1.49,0,0,0,1.16-1.46c0-1.1-.94-1.94-2.4-1.94s-2.48.8-2.51,1.92h1.12c0-.57.63-1,1.44-1s1.26.42,1.26,1-.39,1-1.24,1H76.11v1H77.3c.85,0,1.39.47,1.39,1.15s-.7,1.12-1.55,1.12-1.4-.33-1.45-.95Zm8.76,1.93a2.16,2.16,0,0,0,2-1.1h.06v.94h1.06v-4.57a2.28,2.28,0,0,0-2.56-2.46,2.82,2.82,0,0,0-2.78,1.63l1,.36a1.89,1.89,0,0,1,1.81-1A1.29,1.29,0,0,1,85.42,233v0c0,.51-.53.47-1.79.63s-2.69.45-2.69,2A2.15,2.15,0,0,0,83.31,237.87Zm.16-1c-.85,0-1.46-.38-1.46-1.12s.74-1.06,1.57-1.17a5.29,5.29,0,0,0,1.84-.4v1A1.78,1.78,0,0,1,83.47,236.91Zm11.76-8.44H94.11L91.8,230v1.14l2.26-1.5h0v8.07h1.12Zm6.25,9.24h1.06v-5.94h3.33v5.94h1.06v-6.93h-5.45Zm9.44.16a2.18,2.18,0,0,0,2-1.1H113v.94h1.06v-4.57a2.28,2.28,0,0,0-2.56-2.46,2.82,2.82,0,0,0-2.78,1.63l1,.36a1.88,1.88,0,0,1,1.8-1A1.29,1.29,0,0,1,113,233v0c0,.51-.53.47-1.79.63s-2.69.45-2.69,2A2.15,2.15,0,0,0,110.92,237.87Zm.16-1c-.85,0-1.47-.38-1.47-1.12s.75-1.06,1.57-1.17a5.3,5.3,0,0,0,1.85-.4v1A1.78,1.78,0,0,1,111.08,236.91Zm7.77.94a2.57,2.57,0,0,0,2.72-2.17h-1.06a1.61,1.61,0,0,1-1.66,1.21c-1.26,0-2.08-1-2.08-2.65s.83-2.6,2.08-2.6a1.62,1.62,0,0,1,1.66,1.21h1.06a2.58,2.58,0,0,0-2.74-2.17c-1.87,0-3.12,1.49-3.12,3.6S116.9,237.85,118.85,237.85Zm6.32,0a2.19,2.19,0,0,0,2.06-1.1h0v.94h1.07v-4.57a2.29,2.29,0,0,0-2.57-2.46,2.84,2.84,0,0,0-2.78,1.63l1,.36a1.88,1.88,0,0,1,1.8-1,1.29,1.29,0,0,1,1.46,1.41v0c0,.51-.52.47-1.78.63s-2.69.45-2.69,2A2.14,2.14,0,0,0,125.17,237.87Zm.16-1c-.84,0-1.46-.38-1.46-1.12s.74-1.06,1.57-1.17a5.29,5.29,0,0,0,1.84-.4v1A1.78,1.78,0,0,1,125.33,236.91Zm4.53.8h1.28l2.36-3H134v3h1.07v-3h.54l2.35,3h1.28l-2.8-3.52,2.76-3.41H138l-2.31,3h-.56v-3H134v3h-.57l-2.31-3h-1.27l2.78,3.41Zm12-1.57v-5.36H140.8v6.93h1.25l3.32-5.36v5.36h1.06v-6.93h-1.22Zm6.51,4.16h1.07v-3.66h.09a2.13,2.13,0,0,0,2,1.21c1.73,0,2.94-1.39,2.94-3.59s-1.21-3.58-3-3.58a2.11,2.11,0,0,0-2,1.2h-.13v-1.1h-1Zm1.05-6.06c0-1.55.69-2.6,2-2.6s2,1.14,2,2.6-.69,2.65-2,2.65S149.43,235.81,149.43,234.24Zm8.73,3.63a2.17,2.17,0,0,0,2.06-1.1h.06v.94h1.06v-4.57a2.28,2.28,0,0,0-2.56-2.46,2.82,2.82,0,0,0-2.78,1.63l1,.36a1.88,1.88,0,0,1,1.8-1,1.29,1.29,0,0,1,1.47,1.41v0c0,.51-.53.47-1.79.63s-2.69.45-2.69,2A2.14,2.14,0,0,0,158.16,237.87Zm.17-1c-.85,0-1.46-.38-1.46-1.12s.73-1.06,1.56-1.17a5.3,5.3,0,0,0,1.85-.4v1A1.78,1.78,0,0,1,158.33,236.91Zm6.54-.47h-1.15l-.06.51c-.13,1.22-.38,2.44-.5,3H164a18.31,18.31,0,0,0,.83-3ZM175,230.78h-4.75v6.93h1.87v-5.42H175Zm1.17,9.52h1.92v-3.7h.06a2.07,2.07,0,0,0,2,1.22c1.58,0,2.81-1.25,2.81-3.57s-1.29-3.57-2.81-3.57a2.05,2.05,0,0,0-2,1.26H178v-1.16h-1.9Zm1.88-6.06c0-1.23.53-2,1.46-2s1.46.83,1.46,2-.52,2-1.46,2S178,235.48,178,234.24Zm8-3.46h-1.84v6.93H186V235h2.37v2.72h1.82v-6.93h-1.82v2.69H186Zm6.66,7a.82.82,0,1,0-.81-.81A.82.82,0,0,0,192.67,237.78Zm0-5.15a.81.81,0,1,0-.81-.81A.82.82,0,0,0,192.67,232.63Z" transform="translate(-13.73 -5.82)"/><path d="M43.41,304.7H36.29v9.24h1.39v-8.05H42v8.05h1.38Zm2,11.84h1.35v-3.68h.08a2.12,2.12,0,0,0,2,1.22c1.68,0,2.9-1.35,2.9-3.59s-1.24-3.57-2.91-3.57a2.09,2.09,0,0,0-2,1.21h-.11V307H45.44Zm1.32-6.06c0-1.45.63-2.41,1.81-2.41s1.84,1,1.84,2.41-.64,2.45-1.84,2.45S46.76,311.93,46.76,310.48Zm7.84,1.57v-5H53.28v6.93h1.47l3-5v5h1.32V307H57.66Zm7.65,0v-5H60.92v6.93h1.47l3-5v5h1.32V307H65.3Zm2.47-7.39a.88.88,0,0,1-1.76,0H61.85a2,2,0,0,0,4,0Zm7.74,7.61L70.26,307H68.57v6.93h1.32v-5l2.07,5h1l2.1-5v5h1.31V307H74.69Zm7.73,1.82a2.18,2.18,0,0,0,2-1.1h.05v.95h1.32v-4.6c0-2-1.59-2.42-2.69-2.42a2.79,2.79,0,0,0-2.86,1.77l1.27.29a1.62,1.62,0,0,1,1.61-1,1.15,1.15,0,0,1,1.31,1.24v0c0,.5-.5.49-1.75.63s-2.65.5-2.65,2.07A2.1,2.1,0,0,0,80.19,314.09Zm.29-1.08c-.76,0-1.31-.34-1.31-1s.64-1,1.42-1.08a5.44,5.44,0,0,0,1.67-.37v.89A1.63,1.63,0,0,1,80.48,313Zm5.81-6H84.94v6.93h1.35v-2.82h1.55a3.1,3.1,0,0,0,3.16,3c1.94,0,3.21-1.45,3.21-3.58s-1.27-3.58-3.21-3.58a3.12,3.12,0,0,0-3.17,3H86.29ZM91,312.93c-1.3,0-1.88-1.1-1.88-2.43s.58-2.43,1.88-2.43,1.89,1.11,1.89,2.43S92.31,312.93,91,312.93Zm7.49,3h1.33v-2h4.84v2H106v-3.17h-1.06V307H100.2L100,309.6c-.14,1.74-.35,2.65-.93,3.17h-.56Zm2-3.17a6.86,6.86,0,0,0,.76-3.17l.15-1.43h2.18v4.6Zm9.71,1.31c2,0,3.23-1.43,3.23-3.57s-1.27-3.59-3.23-3.59-3.23,1.43-3.23,3.59S108.26,314.08,110.21,314.08Zm0-1.13c-1.28,0-1.87-1.12-1.87-2.45s.59-2.45,1.87-2.45,1.86,1.13,1.86,2.45S111.49,313,110.22,313Zm11,1.13a2.64,2.64,0,0,0,2.85-2.33h-1.32a1.47,1.47,0,0,1-1.52,1.19c-1.14,0-1.88-.95-1.88-2.46s.75-2.42,1.88-2.42a1.47,1.47,0,0,1,1.52,1.19h1.32a2.66,2.66,0,0,0-2.86-2.33c-2,0-3.22,1.47-3.22,3.59S119.22,314.08,121.23,314.08Zm4.29-.14h1.31v-5.77h3v5.77h1.32V307h-5.65Zm6.91,0h.44c1.51,0,2.06-1.12,2.17-3.41l.11-2.36h2.26v5.77h1.33V307H133.9l-.12,3.07c-.09,2.14-.33,2.69-1.1,2.69h-.25Zm10.12.15a2.16,2.16,0,0,0,2-1.1h.05v.95H146v-4.6c0-2-1.59-2.42-2.69-2.42a2.79,2.79,0,0,0-2.86,1.77l1.27.29a1.62,1.62,0,0,1,1.61-1,1.16,1.16,0,0,1,1.32,1.24v0c0,.5-.51.49-1.75.63s-2.66.5-2.66,2.07A2.1,2.1,0,0,0,142.55,314.09Zm.29-1.08c-.76,0-1.31-.34-1.31-1s.64-1,1.42-1.08a5.37,5.37,0,0,0,1.67-.37v.89A1.62,1.62,0,0,1,142.84,313Zm4.07-4.84h2.27v5.77h1.32v-5.77h2.26V307h-5.85Zm8.6,3.88v-5h-1.33v6.93h1.47l3-5v5H160V307h-1.45Zm7.21-3.07a.9.9,0,1,0-.91-.9A.9.9,0,0,0,162.72,309Zm0,5a.9.9,0,1,0-.91-.9A.9.9,0,0,0,162.72,314Z" transform="translate(-13.73 -5.82)" style="fill:#242723"/><path d="M42.32,339.35l-4-4,1.12-1.12,2.85,2.85,6-6,1.12,1.13Zm-4-11.12a1.59,1.59,0,0,0-1.59,1.59V341a1.59,1.59,0,0,0,1.59,1.58H49.47a1.59,1.59,0,0,0,1.59-1.59V329.82a1.59,1.59,0,0,0-1.59-1.59Z" transform="translate(-13.73 -5.82)" style="fill:#09acfe"/><path d="M62.35,339.35h1.17l-3.38-4.53,3.27-3.55H62.24L59,334.77h-.42v-3.5h-1v8.08h1v-3.71h1Zm4.31.14a1.89,1.89,0,0,0,1.8-1h.05v.82h.93v-4a2,2,0,0,0-2.24-2.15,2.47,2.47,0,0,0-2.43,1.42l.88.32a1.65,1.65,0,0,1,1.58-.92,1.12,1.12,0,0,1,1.28,1.23v0c0,.44-.46.4-1.56.55s-2.35.39-2.35,1.78A1.86,1.86,0,0,0,66.66,339.49Zm.15-.83c-.75,0-1.28-.33-1.28-1s.64-.93,1.37-1a4.58,4.58,0,0,0,1.61-.35v.86A1.55,1.55,0,0,1,66.81,338.66Zm4.56,3h.93v-3.21h.08a1.87,1.87,0,0,0,1.77,1.06c1.51,0,2.57-1.22,2.57-3.14s-1.06-3.13-2.59-3.13a1.85,1.85,0,0,0-1.75,1h-.11v-1h-.9Zm.91-5.31c0-1.36.6-2.27,1.74-2.27s1.77,1,1.77,2.27-.6,2.32-1.77,2.32S72.28,337.7,72.28,336.32Zm5.29-2.16h2v5.19h.93v-5.19h2v-.87H77.57Zm8,5.33a1.89,1.89,0,0,0,1.8-1h.05v.82h.93v-4a2,2,0,0,0-2.24-2.15,2.48,2.48,0,0,0-2.44,1.42l.89.32a1.64,1.64,0,0,1,1.58-.92,1.13,1.13,0,0,1,1.28,1.23v0c0,.44-.46.4-1.57.55s-2.35.39-2.35,1.78A1.87,1.87,0,0,0,85.55,339.49Zm.14-.83c-.74,0-1.28-.33-1.28-1s.65-.93,1.38-1a4.63,4.63,0,0,0,1.61-.35v.86A1.56,1.56,0,0,1,85.69,338.66Z" transform="translate(-13.73 -5.82)" style="fill:#242723"/><path d="M110.62,339.35l-4-4,1.12-1.12,2.85,2.85,6-6,1.12,1.13Zm-4-11.12a1.59,1.59,0,0,0-1.59,1.59V341a1.58,1.58,0,0,0,1.58,1.58h11.13a1.58,1.58,0,0,0,1.58-1.59V329.82a1.59,1.59,0,0,0-1.59-1.59Z" transform="translate(-13.73 -5.82)" style="fill:#09acfe"/><path d="M130.77,331.27h-4.88v8.08h1v-7.21h3.9Zm3.19,8.21c1.65,0,2.75-1.25,2.75-3.13s-1.1-3.14-2.75-3.14-2.74,1.25-2.74,3.14S132.32,339.48,134,339.48Zm0-.84c-1.24,0-1.81-1.07-1.81-2.29s.57-2.3,1.81-2.3,1.82,1.09,1.82,2.3S135.21,338.64,134,338.64Zm3.61-4.48h2v5.19h.93v-5.19h2v-.87h-4.92Zm6.5,5.19H145v-6.06h-.94Zm.48-7.07a.65.65,0,0,0,.66-.63.67.67,0,0,0-1.33,0A.66.66,0,0,0,144.55,332.28Zm2.38,7.07h2.86c1.23,0,2-.69,2-1.62a1.57,1.57,0,0,0-1.39-1.57,1.26,1.26,0,0,0,1.17-1.26c0-1-.83-1.61-2.14-1.61h-2.48Zm.89-.85v-1.86h2a.94.94,0,0,1,1,1c0,.53-.39.85-1,.85Zm0-2.67v-1.69h1.59c.75,0,1.2.31,1.2.82s-.45.87-1.2.87Zm5.58,3.52h.93v-2.56h.84l2,2.56h1.2l-2.48-3.14,2.45-2.92h-1.2L155,335.93h-.62v-2.64h-.93Zm8,.14a1.89,1.89,0,0,0,1.8-1h0v.82h.93v-4a2,2,0,0,0-2.25-2.15,2.48,2.48,0,0,0-2.43,1.42l.89.32A1.64,1.64,0,0,1,162,334a1.13,1.13,0,0,1,1.28,1.23v0c0,.45-.46.41-1.57.56s-2.35.39-2.35,1.78A1.87,1.87,0,0,0,161.38,339.49Zm.14-.83c-.74,0-1.28-.33-1.28-1s.65-.93,1.38-1a4.63,4.63,0,0,0,1.61-.35v.86A1.56,1.56,0,0,1,161.52,338.66Z" transform="translate(-13.73 -5.82)" style="fill:#242723"/></svg>