<svg xmlns="http://www.w3.org/2000/svg" xmlns:xlink="http://www.w3.org/1999/xlink" viewBox="0 0 207 61"><defs><linearGradient id="a" x1="36.43" y1="35.94" x2="6.13" y2="27.86" gradientTransform="matrix(1, 0, 0, -1, 0, 61)" gradientUnits="userSpaceOnUse"><stop offset="0" stop-color="#00a0ff"/><stop offset="0.01" stop-color="#00a1ff"/><stop offset="0.26" stop-color="#00beff"/><stop offset="0.51" stop-color="#00d2ff"/><stop offset="0.76" stop-color="#00dfff"/><stop offset="1" stop-color="#00e3ff"/></linearGradient><linearGradient id="b" x1="51.67" y1="30.5" x2="14.72" y2="30.5" gradientTransform="matrix(1, 0, 0, -1, 0, 61)" gradientUnits="userSpaceOnUse"><stop offset="0" stop-color="#ffe000"/><stop offset="0.41" stop-color="#ffbd00"/><stop offset="0.78" stop-color="orange"/><stop offset="1" stop-color="#ff9c00"/></linearGradient><linearGradient id="c" x1="35.13" y1="28.65" x2="10.85" y2="-12.27" gradientTransform="matrix(1, 0, 0, -1, 0, 61)" gradientUnits="userSpaceOnUse"><stop offset="0" stop-color="#ff3a44"/><stop offset="1" stop-color="#c31162"/></linearGradient><linearGradient id="d" x1="16.44" y1="63.87" x2="27.27" y2="45.59" gradientTransform="matrix(1, 0, 0, -1, 0, 61)" gradientUnits="userSpaceOnUse"><stop offset="0" stop-color="#32a071"/><stop offset="0.07" stop-color="#2da771"/><stop offset="0.48" stop-color="#15cf74"/><stop offset="0.8" stop-color="#06e775"/><stop offset="1" stop-color="#00f076"/></linearGradient></defs><title>google-play</title><path d="M199.33,61H7.67A7.67,7.67,0,0,1,0,53.38V7.63A7.66,7.66,0,0,1,7.67,0H199.33A7.66,7.66,0,0,1,207,7.63V53.38A7.67,7.67,0,0,1,199.33,61Z"/><path d="M199.33,1.22a6.44,6.44,0,0,1,6.45,6.41V53.38a6.43,6.43,0,0,1-6.45,6.4H7.67a6.44,6.44,0,0,1-6.45-6.4V7.63A6.44,6.44,0,0,1,7.67,1.22Zm0-1.22H7.67A7.67,7.67,0,0,0,0,7.63V53.38A7.65,7.65,0,0,0,7.67,61H199.33A7.66,7.66,0,0,0,207,53.38V7.63A7.68,7.68,0,0,0,199.33,0Z" style="fill:#a6a6a6"/><path d="M109.05,20.18a4.62,4.62,0,0,1-3.47-1.44,4.84,4.84,0,0,1-1.4-3.49,4.77,4.77,0,0,1,1.4-3.5A4.63,4.63,0,0,1,109,10.32a4.68,4.68,0,0,1,3.47,1.43,5,5,0,0,1,0,7A4.59,4.59,0,0,1,109.05,20.18Zm-41.13,0a4.84,4.84,0,0,1-3.49-1.42A4.73,4.73,0,0,1,63,15.25a4.73,4.73,0,0,1,1.43-3.51,5,5,0,0,1,5.43-1,3.86,3.86,0,0,1,1.48,1.06l.1.11-1,1-.1-.12a3,3,0,0,0-2.4-1,3.32,3.32,0,0,0-2.39,1,3.41,3.41,0,0,0-1,2.53,3.44,3.44,0,0,0,1,2.54,3.5,3.5,0,0,0,4.84,0,2.64,2.64,0,0,0,.71-1.59H67.75V14.78h4.73v.13a4.38,4.38,0,0,1,.07.71,4.26,4.26,0,0,1-1.18,3.16A4.59,4.59,0,0,1,67.92,20.18Zm54.69-.2h-1.46l-4.47-7.14,0,1.28V20h-1.46V10.52h1.66l0,.08,4.2,6.72,0-1.28V10.52h1.48ZM98.09,20H96.61V12H94.05V10.52h6.6V12H98.08v8Zm-5.25,0H91.37V10.52h1.47Zm-8.28,0H83.09V12H80.53V10.52h6.6V12H84.56Zm-5,0H73.94V10.52h5.65V12H75.42v2.59h3.77V16H75.42v2.59h4.17Zm27.07-2.19a3.38,3.38,0,0,0,4.78,0,3.46,3.46,0,0,0,1-2.52,3.46,3.46,0,0,0-1-2.52,3.26,3.26,0,0,0-2.39-1,3.19,3.19,0,0,0-2.38,1,3.43,3.43,0,0,0-1,2.52A3.46,3.46,0,0,0,106.66,17.77Z" style="fill:#fff"/><path d="M104,33.18a6.49,6.49,0,1,0,6.52,6.49A6.38,6.38,0,0,0,104,33.18Zm0,10.4a3.94,3.94,0,1,1,3.66-3.93A3.75,3.75,0,0,1,104,43.58ZM89.83,33.18a6.49,6.49,0,1,0,6.51,6.49A6.39,6.39,0,0,0,89.83,33.18Zm0,10.4a3.94,3.94,0,1,1,3.66-3.93A3.76,3.76,0,0,1,89.83,43.58ZM72.91,35.16V37.9h6.6A5.79,5.79,0,0,1,78,41.36a6.74,6.74,0,0,1-5.1,2,7.32,7.32,0,0,1,0-14.64,7.05,7.05,0,0,1,5,2l2-1.95A9.59,9.59,0,0,0,72.94,26a10.07,10.07,0,1,0,0,20.14,9.23,9.23,0,0,0,7-2.83,9.11,9.11,0,0,0,2.39-6.44,8.7,8.7,0,0,0-.15-1.71H72.91ZM142.1,37.3a6,6,0,0,0-5.56-4.14,6.17,6.17,0,0,0-6.13,6.49,6.35,6.35,0,0,0,6.45,6.49,6.46,6.46,0,0,0,5.41-2.88l-2.2-1.48a3.7,3.7,0,0,1-3.2,1.8,3.31,3.31,0,0,1-3.15-2L142.4,38Zm-8.86,2.16a3.57,3.57,0,0,1,3.39-3.78A2.49,2.49,0,0,1,139,37.06Zm-7.06,6.29H129V26.69h-2.86ZM121.5,34.62h-.1A4.5,4.5,0,0,0,118,33.16a6.49,6.49,0,0,0,0,13,4.51,4.51,0,0,0,3.43-1.48h.1v.93c0,2.48-1.32,3.81-3.46,3.81a3.61,3.61,0,0,1-3.28-2.3l-2.47,1A6.2,6.2,0,0,0,118,52c3.34,0,6.17-2,6.17-6.76V33.55h-2.69v1.07Zm-3.27,9a3.94,3.94,0,0,1,0-7.86,3.65,3.65,0,0,1,3.46,4A3.6,3.6,0,0,1,118.23,43.58Zm37.22-16.89h-6.82V45.75h2.86V38.53h4a5.93,5.93,0,1,0,0-11.84Zm.09,9.18h-4.06V29.33h4.06a3.27,3.27,0,1,1,0,6.54Zm17.61-2.73a5.37,5.37,0,0,0-5.09,2.92l2.53,1a2.7,2.7,0,0,1,2.59-1.41,2.76,2.76,0,0,1,3,2.46v.2a6.38,6.38,0,0,0-3-.73c-2.73,0-5.5,1.49-5.5,4.28,0,2.56,2.24,4.21,4.73,4.21a4,4,0,0,0,3.63-1.87h.1v1.48h2.75v-7.3C178.93,35,176.41,33.14,173.15,33.14Zm-.36,10.44c-.93,0-2.24-.45-2.24-1.63,0-1.47,1.63-2,3-2a5,5,0,0,1,2.6.64A3.43,3.43,0,0,1,172.79,43.58Zm16.17-10-3.27,8.27h-.1l-3.4-8.27h-3.06l5.09,11.56-2.9,6.42h3l7.83-18Zm-25.67,12.2h2.85V26.69h-2.85Z" style="fill:#fff"/><path d="M15.93,11.49a3.08,3.08,0,0,0-.69,2.15V47.36A3,3,0,0,0,16,49.5l.12.1L35,30.71v-.43L16.05,11.39Z" style="fill:url(#a)"/><path d="M41.28,37,35,30.72v-.44L41.28,24l.14.08,7.46,4.24c2.14,1.2,2.14,3.19,0,4.4l-7.46,4.24Z" style="fill:url(#b)"/><path d="M41.42,36.94,35,30.5l-19,19c.7.75,1.87.83,3.18.1Z" style="fill:url(#c)"/><path d="M41.42,24.06,19.11,11.41c-1.31-.75-2.48-.65-3.18.1l19,19Z" style="fill:url(#d)"/><path d="M41.28,36.8,19.12,49.37c-1.24.72-2.34.67-3.05,0l-.12.12.12.1a2.51,2.51,0,0,0,3.05,0L41.43,36.94Z" style="opacity:0.20000000298023224;isolation:isolate"/><path d="M48.88,32.48,41.26,36.8l.14.14,7.46-4.24a2.68,2.68,0,0,0,1.6-2.2A2.76,2.76,0,0,1,48.88,32.48Z" style="opacity:0.11999999731779099;isolation:isolate"/><path d="M19.1,11.63,48.88,28.52a2.8,2.8,0,0,1,1.6,2,2.68,2.68,0,0,0-1.6-2.2L19.1,11.41c-2.13-1.23-3.86-.21-3.86,2.23v.22C15.24,11.42,17,10.42,19.1,11.63Z" style="fill:#fff;opacity:0.25;isolation:isolate"/></svg>