<svg width="100" height="100" viewBox="0 0 100 100" fill="none" xmlns="http://www.w3.org/2000/svg">
<path d="M89.5859 13.2746C88.7468 12.4858 87.7375 11.8763 86.6264 11.4874C85.5154 11.0985 84.3285 10.9393 83.1464 11.0207C69.3443 11.9942 56.3783 17.6265 46.6294 26.8833L45.3483 28.1117H28.6373C28.4114 28.1119 28.1877 28.1545 27.9794 28.237C27.7711 28.3195 27.5824 28.4404 27.4242 28.5924L9.70425 45.6834C9.4699 45.9087 9.31134 46.1941 9.24843 46.5039C9.18551 46.8137 9.22105 47.1341 9.35058 47.425C9.48011 47.7158 9.69788 47.9642 9.97659 48.1389C10.2553 48.3137 10.5825 48.407 10.9173 48.4073H27.2202L31.585 52.5198C24.9626 52.7488 18.6838 55.3551 14.035 59.8049C0.147019 73.0504 11.0874 88.1653 11.2008 88.3148C11.408 88.5945 11.7045 88.8046 12.0472 88.9145C12.3899 89.0244 12.7609 89.0284 13.1062 88.926C13.4515 88.8235 13.753 88.6198 13.967 88.3447C14.181 88.0695 14.2961 87.7373 14.2958 87.3962C14.2958 82.2582 19.4089 77.3872 24.8053 77.3872C27.3963 77.4014 29.8755 78.3832 31.6991 80.1174C33.5226 81.8516 34.5417 84.1965 34.5326 86.6377C34.5379 86.9274 34.6264 87.2102 34.7888 87.4562C34.9511 87.7022 35.1811 87.9022 35.4545 88.0348C35.7278 88.1674 36.0342 88.2277 36.341 88.2093C36.6478 88.1909 36.9436 88.0944 37.1969 87.9303C40.465 85.5405 43.1143 82.4825 44.9447 78.987C46.7752 75.4915 47.7389 71.6499 47.7631 67.7522L52.298 72.0249V87.3962C52.2983 87.7129 52.3982 88.0224 52.585 88.2856C52.7719 88.5488 53.0374 88.754 53.348 88.8751C53.6585 88.9963 54.0002 89.028 54.3299 88.9663C54.6596 88.9046 54.9625 88.7522 55.2003 88.5284L73.3397 71.4374C73.6533 71.1425 73.8322 70.7439 73.8386 70.3265V54.9553L75.1424 53.7482C84.967 44.5628 90.9448 32.3462 91.978 19.3419C92.0644 18.2281 91.8954 17.1098 91.4827 16.063C91.07 15.0161 90.4231 14.0651 89.5859 13.2746ZM29.3516 31.3163H41.9471L27.2088 45.2027H14.9534L29.3516 31.3163ZM37.4916 83.4759C36.7604 80.8246 35.1181 78.476 32.821 76.7967C30.5239 75.1175 27.7014 74.202 24.794 74.1934C19.2161 74.1934 14.0237 77.8893 11.8923 82.7389C9.90832 78.0709 8.30978 69.8138 16.4272 62.0908C18.8358 59.7829 21.7721 58.0241 25.0121 56.9485C28.2521 55.8729 31.7101 55.509 35.1222 55.8846L44.1919 64.4301C44.6509 67.8745 44.2875 71.372 43.1283 74.6671C41.9691 77.9622 40.0433 80.9718 37.4916 83.4759ZM70.4374 69.6642L55.6991 83.5507V72.0463L70.4374 58.1598V69.6642ZM72.7049 51.505L70.9363 53.1714L70.8796 53.2248L53.9985 69.1088L30.3265 46.805L47.2303 30.8783L47.2869 30.8249L49.0555 29.1799C58.2158 20.4653 70.4044 15.1556 83.3845 14.2253C84.082 14.1663 84.7848 14.2524 85.4432 14.4774C86.1016 14.7025 86.6995 15.0609 87.1947 15.5275C87.6899 15.9941 88.0704 16.5575 88.3092 17.1778C88.5481 17.7981 88.6394 18.4603 88.5769 19.1176C87.5895 31.3474 81.9541 42.8315 72.7049 51.4623V51.505Z" fill="#242723"/>
</svg>
