<svg xmlns="http://www.w3.org/2000/svg" viewBox="0 0 16 16"><path d="M8,3.9A4.1,4.1,0,1,0,12.1,8,4.09,4.09,0,0,0,8,3.9Zm0,6.77A2.67,2.67,0,1,1,10.67,8,2.67,2.67,0,0,1,8,10.67Zm5.23-6.94a1,1,0,1,1-1-1A1,1,0,0,1,13.23,3.73Zm2.71,1a4.71,4.71,0,0,0-1.29-3.35A4.71,4.71,0,0,0,11.3.06C10,0,6,0,4.7.06A4.73,4.73,0,0,0,1.35,1.35,4.71,4.71,0,0,0,.06,4.7C0,6,0,10,.06,11.3a4.71,4.71,0,0,0,1.29,3.35A4.73,4.73,0,0,0,4.7,15.94C6,16,10,16,11.3,15.94a4.71,4.71,0,0,0,3.35-1.29,4.71,4.71,0,0,0,1.29-3.35C16,10,16,6,15.94,4.7Zm-1.7,8a2.7,2.7,0,0,1-1.52,1.52A18,18,0,0,1,8,14.56a17.91,17.91,0,0,1-4.71-.32,2.7,2.7,0,0,1-1.52-1.52C1.35,11.66,1.44,9.16,1.44,8s-.09-3.67.33-4.72A2.65,2.65,0,0,1,3.29,1.76,17.91,17.91,0,0,1,8,1.44a18,18,0,0,1,4.72.32,2.7,2.7,0,0,1,1.52,1.52c.42,1.06.32,3.56.32,4.72S14.66,11.67,14.24,12.72Z"/></svg>