<svg xmlns="http://www.w3.org/2000/svg" viewBox="0 0 18 15"><path d="M8.78,4.64l0-.65A3.78,3.78,0,0,1,11.28.18,4.46,4.46,0,0,1,13.55.12a5.29,5.29,0,0,1,1.11.59l.64.43L16,.92A7.31,7.31,0,0,0,17.14.47c.22-.12.42-.19.42-.15a3.74,3.74,0,0,1-.89,1.42c-.54.6-.39.65.72.25.66-.22.68-.22.55,0A10,10,0,0,1,17,3c-.72.73-.76.8-.76,1.41a13.62,13.62,0,0,1-.89,4A11.43,11.43,0,0,1,11,13.56a10.9,10.9,0,0,1-8.53,1A10,10,0,0,1,0,13.38a4,4,0,0,1,1.07-.11,7.18,7.18,0,0,0,3.48-1l.7-.42-.8-.28A3.93,3.93,0,0,1,2,9.42c-.08-.28-.06-.29.67-.29l.76,0-.64-.3A4.13,4.13,0,0,1,1,7.11,4.72,4.72,0,0,1,.56,5.34a1.46,1.46,0,0,1,.61.15c.9.33,1,.25.49-.31a3.85,3.85,0,0,1-.8-3.92L1.08.63l.86.86A10.51,10.51,0,0,0,8.13,4.56Z" transform="translate(0 0)"/></svg>