<svg xmlns="http://www.w3.org/2000/svg" viewBox="0 0 30 30"><path d="M15,0A15,15,0,1,0,30,15,15,15,0,0,0,15,0ZM7.62,13.54a.83.83,0,0,1-.83-1,8.65,8.65,0,0,1,2.72-5,.84.84,0,0,1,1.16,0,.82.82,0,0,1,0,1.19,7.07,7.07,0,0,0-2.2,4.12A.84.84,0,0,1,7.62,13.54ZM15,23.13a1.66,1.66,0,0,1-1.66-1.67h3.33A1.67,1.67,0,0,1,15,23.13Zm5.49-2.5H9.5a.84.84,0,0,1-.58-1.43L10,18.13V14c0-2.57,1.36-4.7,3.75-5.27V8.13a1.25,1.25,0,1,1,2.5,0v.56A5.08,5.08,0,0,1,20,14v4.17l1.07,1.07A.84.84,0,0,1,20.48,20.63Zm1.91-7.1a.82.82,0,0,1-.82-.69,7,7,0,0,0-2.21-4.11.82.82,0,0,1,0-1.19.84.84,0,0,1,1.16,0,8.7,8.7,0,0,1,2.71,5A.83.83,0,0,1,22.39,13.53Z"/></svg>