<svg xmlns="http://www.w3.org/2000/svg" viewBox="0 0 30 30"><path d="M19.58,19.35a1.24,1.24,0,1,0,0,2.47,1.29,1.29,0,0,0,.89-.36,1.24,1.24,0,0,0,0-1.75A1.29,1.29,0,0,0,19.58,19.35Z"/><path d="M11.37,11.23a1.33,1.33,0,0,0-1.9-1.87,1.29,1.29,0,0,0-.39.93,1.33,1.33,0,0,0,1.34,1.33A1.37,1.37,0,0,0,11.37,11.23Z"/><path d="M19.58,9a1.32,1.32,0,0,0-.95,2.26,1.37,1.37,0,0,0,.95.39,1.33,1.33,0,1,0,0-2.65Z"/><path d="M15,0A15,15,0,1,0,30,15,15,15,0,0,0,15,0ZM10.42,6.59a3.71,3.71,0,0,1,3.75,3.7c0,2.78-3.75,6.89-3.75,6.89s-3.75-4.11-3.75-6.89A3.7,3.7,0,0,1,10.42,6.59Zm10,16.33a2.51,2.51,0,0,1-3.18-1.51H12.77a2.51,2.51,0,0,1-4.72,0,2.47,2.47,0,0,1,1.53-3.15,2.51,2.51,0,0,1,3.19,1.5h4.46a2.49,2.49,0,0,1,2.35-1.64A2.51,2.51,0,0,1,22,19.76,2.47,2.47,0,0,1,20.42,22.92Zm-.84-5.74s-3.75-4.11-3.75-6.89a3.75,3.75,0,0,1,7.5,0C23.33,13.07,19.58,17.18,19.58,17.18Z"/></svg>