<svg xmlns="http://www.w3.org/2000/svg" viewBox="0 0 30 30"><path d="M18.57,15.06a1,1,0,1,0,1,1A1,1,0,0,0,18.57,15.06Z"/><path d="M18.07,10.54H11.43a.71.71,0,0,0-.66.47l-.88,2.66h9.72L18.73,11A.71.71,0,0,0,18.07,10.54Z"/><path d="M15,0A15,15,0,1,0,30,15,15,15,0,0,0,15,0Zm6,19.57a1,1,0,0,1-2.08,0v-.35H10.58v.35a1,1,0,0,1-2.08,0v-5a1.39,1.39,0,0,1,.08-.46L9.94,10.2a1.05,1.05,0,0,1,1-.7h7.64a1,1,0,0,1,1,.7l1.36,3.94a1.39,1.39,0,0,1,.08.46Z"/><path d="M10.93,15.06a1,1,0,1,0,1,1A1,1,0,0,0,10.93,15.06Z"/></svg>