<svg xmlns="http://www.w3.org/2000/svg" width="24" height="24" viewBox="0 0 24 24"><path d="M4.72,2.67a16.5,16.5,0,0,0,.6,3.45l-1.6,1.6a19.6,19.6,0,0,1-1-5Zm13.15,16a16.94,16.94,0,0,0,3.46.6v2a20.64,20.64,0,0,1-5.06-1ZM6,0H1.33A1.34,1.34,0,0,0,0,1.33,22.67,22.67,0,0,0,22.67,24,1.34,1.34,0,0,0,24,22.67V18a1.34,1.34,0,0,0-1.33-1.33,15.26,15.26,0,0,1-4.76-.76,1.23,1.23,0,0,0-.42-.07,1.37,1.37,0,0,0-.94.39l-2.94,2.93a20.19,20.19,0,0,1-8.78-8.78L7.76,7.45a1.33,1.33,0,0,0,.33-1.36,15.21,15.21,0,0,1-.76-4.76A1.34,1.34,0,0,0,6,0Z"/></svg>